<?xml version="1.0" encoding="UTF-8"?><svg xmlns="http://www.w3.org/2000/svg" viewBox="0 0 47.05 83.34"><defs><style>.ac{fill:#c1dfee;}.ad{fill:#39240e;}.ae{fill:#575756;}.af{fill:#bababa;}.ag{fill:#66b0d8;}.ah{fill:#8c8b8b;}.ai{opacity:.6;}.aj{fill:#9ccce6;}.ak{fill:#e2eef6;}.al{opacity:.4;}.am{fill:#1a0908;}</style></defs><g id="a"/><g id="b"><g id="c"><g id="d" transform="translate(-97.907 -129.762)"><g id="e" transform="translate(97.907 129.762)"><g id="f" transform="translate(0.941 0.875)"><path id="g" class="aj" d="M8.32,65.21c.42-12.95-2.25-25.54-4.36-38.2C2.75,19.76,1.91,12.45,1.02,5.16c-.35-2.85,.52-3.72,3.46-3.74,10.41-.1,20.81-.16,31.22-.27,2.35-.02,4.7-.29,7.05-.26,2.97,.04,3.79,1.19,3.31,4.11-3.02,18.79-6.05,37.57-6.53,56.65-.21,1.96-.07,3.94,.41,5.84-2.19,2.85-5.44,3.74-8.69,4.42-6.56,1.52-13.45,.54-19.33-2.74-1.62-.91-3.29-1.84-3.62-3.96Z"/></g><g id="h" transform="translate(5.527 65.209)"><path id="i" class="ag" d="M8.32,65.21c8.94,7.14,18.59,8.13,28.91,3.32,.88-.41,1.81-.7,2.73-1.04,.87,3.31,1.98,6.56,3.31,9.72,1.37,3.31,.29,4.87-3.26,4.92-10.08,.13-20.17,.24-30.26,.32-3.44,.03-4.62-1.11-4.08-4.43,.7-4.3,1.76-8.54,2.66-12.82Z"/></g><g id="j" transform="translate(7.087 12.6)"><path id="k" class="am" d="M23.38,12.88c4.62,.07,9.24,.21,13.86,.19,2.18,0,2.65,.79,2.24,2.89-1.88,9.82-3.15,19.74-3.8,29.71-.41,5.77-.98,11.52-1.38,17.29,.02,1.1-.73,2.06-1.8,2.32-5.67,2.23-12.04,1.75-17.32-1.3-1.44-.74-2.27-2.28-2.11-3.89,.26-11.16-2.35-21.98-4.02-32.91-.6-3.97-1.12-7.96-1.85-11.9-.39-2.09,.13-2.76,2.32-2.66,4.62,.22,9.24,.19,13.86,.27Z"/></g><g id="l" transform="translate(6.624 6.095)"><path id="m" class="ac" d="M12.9,9.87c-1.37-.02-2.75-.02-4.12-.07-1.02-.03-2.14-.16-2.15-1.46s1.08-1.46,2.11-1.47c2.64-.02,5.3-.35,7.89-.32,6.86,.06,13.69-.57,20.54-.44,.3,0,.59,.01,.88,.03,.95,.07,1.85,.34,1.86,1.45s-.88,1.53-1.83,1.44c-3.05-.29-6.04,.59-9.07,.49-5.38-.17-10.76-.06-16.12,.35Z"/></g><g id="n" transform="translate(10.347 73.777)"><path id="o" class="ak" d="M23.25,79.49c-3.41,.26-6.78-.58-10.21-.75-1.84-.09-3-1.11-2.62-3.09,.35-1.84,1.68-2.01,3.38-1.82,6.33,.71,12.67,1.24,19.01,.05,1.72-.32,3.94,1.67,3.87,3.38-.04,1.08-1.01,1.08-1.72,1.22-3.84,.87-7.78,1.21-11.72,1Z"/></g><g id="p"><path id="q" class="ae" d="M9.08,83.33c-1.25,.03-2.47-.43-3.39-1.28-.96-1.16-1.29-2.73-.86-4.18l2.66-12.82h0c-.02-8.7-.8-17.37-2.32-25.93v-.02C4.97,37.88,.43,9.67,.17,5.29-.19,4.1,.02,2.8,.74,1.78,1.63,.7,3.21,.29,5.42,.55l30.26-.26L42.72,.03c1.25-.15,2.5,.26,3.4,1.14,.96,1.06,1.17,2.7,.63,4.88l-3.99,26.62c-.02,.21-2.79,23.22-2.38,28.92-.22,2.17-.17,4.77,.27,5.43l.12,.28c.75,3.09,2.26,8.37,3.12,9.36,.23,.37,1.34,2.46,.48,4.25-.64,1.15-1.82,1.9-3.14,1.99l-31.49,.41c-.22,.03-.45,.04-.67,.03Zm-2.24-44.52c1.56,8.72,2.34,17.56,2.33,26.42l-2.68,12.97c-.29,.91-.13,1.9,.43,2.68,.77,.6,1.74,.86,2.71,.73l31.46-.4c.72-.05,1.37-.44,1.75-1.04,.24-.86,.12-1.78-.33-2.54-1.25-1.41-2.95-8.14-3.36-9.8-.9-1.61-.54-5.48-.46-6.26-.42-5.71,2.28-28.17,2.39-29.12l4-26.73c.41-1.65,.33-2.8-.22-3.41-.55-.47-1.27-.68-1.99-.59l-7.15,.27-30.4,.26c-1.69-.2-2.79,.01-3.28,.61-.36,.62-.44,1.36-.22,2.04l.04,.22c.17,3.89,4.86,33.02,4.97,33.7h0Z"/></g><g id="r" transform="translate(12.534 31.404)"><path id="s" class="ad" d="M17.79,59.92c-1.5-2.21-1.66-4.69-2.09-7.08-1.11-6.05-2.07-12.12-3.09-18.18-.31-1.8,.43-3.16,1.8-3.24,1.34-.08,2.17,1.03,2.26,2.79,.37,7.17,.8,14.34,1.17,21.51,.08,1.4-.03,2.81-.05,4.21Z"/></g></g><g id="t" transform="translate(107.68 144.845)"><g id="u" class="al" transform="translate(13.625)"><path id="v" class="af" d="M35.46,23.42c-.3,.24-.58,.51-.83,.8-2.44,3.56-3.87,3.91-7.61,1.83-.45-.26-.89-.53-1.34-.79-2.12-1.19-2.67-2.49-2.03-4.85,.86-3.17,3.44-5.49,5.92-5.31,2.85,.2,6.48,3.04,6.73,5.26,0,1.07-.29,2.13-.83,3.06Z"/></g><g id="w" class="al" transform="translate(0 3.709)"><path id="x" class="af" d="M9.78,25.8c-.07-2.81,2.16-3.88,3.91-4.85,4.37-2.42,5.87-4.1,9.04,2.34,2.29,4.66,1.38,7.44-3.39,9.62-3.97,1.81-5.65,2.51-8.52-3.29-.67-1.16-1.03-2.48-1.04-3.82Z"/></g><g id="y" class="ai" transform="translate(15.643 1.495)"><path id="a`" class="ah" d="M25.42,20.27c.01-3.43,3.73-4.47,5.93-3.11,.64,.4,.97,.95,.65,1.63-.17,.51-.71,.79-1.22,.62-.15-.05-.29-.14-.4-.25-1.92-1.76-3.4-.95-4.95,1.1Z"/></g><g id="aa" class="ai" transform="translate(1.537 7.265)"><path id="ab" class="ah" d="M13.33,30.51c-1.54-.86-2.33-2.63-1.96-4.35,.21-1.65,1.98-3.63,3.28-3.8,.6-.15,1.22,.18,1.42,.77,.31,.61,.11,1.35-.46,1.73q-3.12,2.25-2.28,5.65Z"/></g></g></g></g></g></svg>