<?xml version="1.0" encoding="UTF-8"?><svg xmlns="http://www.w3.org/2000/svg" viewBox="0 0 74 74"><defs><style>.aa{fill:#fff;}.ab{fill:#575756;}.ac{fill:#f6a757;}.ad{fill:#f7a857;}.ae{fill:#fedb94;}.af{fill:none;stroke:#707070;}.ag{fill:#fbbd40;}.ah{fill:#f18822;}.ai{fill:#f6a857;}</style></defs><g id="a"/><g id="b"><g id="c"><g><g id="d"><circle class="aa" cx="37" cy="37" r="37"/><circle class="af" cx="37" cy="37" r="36.5"/></g><g id="e" transform="translate(12 12)"><circle class="aa" cx="37.5" cy="37.5" r="25.5"/><circle class="af" cx="37.5" cy="37.5" r="25"/></g><path id="f" class="ab" d="M7.51,40.6c0-2.43,.38-4.85,1.11-7.17,.11-.25,.04-.53-.16-.71-.68-.7-.88-1.74-.48-2.64,2.92-7.94,8.82-14.43,16.45-18.09,.97-.48,1.96-.9,2.98-1.27,.87-.35,1.87-.15,2.54,.52,.18,.2,.47,.26,.71,.15,4.77-1.5,9.88-1.48,14.63,.07,.57,.14,1.05,.5,1.35,1.01,.06,.14,.21,.22,.36,.21,4.03,.15,6.71,2.35,8.47,5.78,1.95,3.53,2.11,7.78,.41,11.43-.35,.84-.94,1.55-1.7,2.05-1.02,.74-2.43,.62-3.31-.28-.63-.65-1.22-1.33-1.76-2.04-1.23-1.46-2.15-1.33-3.7-.92-.19,.05-.23,.16-.27,.32-.12,.45-.39,.84-.77,1.1-.64,.5-1.32,.96-2.02,1.37-.13,.08-.3,.1-.3,.35-.04,2.02-.53,4-1.43,5.8-1.67,3.51-4.89,6.02-8.7,6.79-.92,.29-1.89,.42-2.85,.39-.25-.02-.27,.17-.35,.3-.41,.7-.87,1.38-1.37,2.02-.22,.35-.57,.6-.96,.72-.35,.07-.44,.27-.53,.56-.52,1.32-.03,2.82,1.16,3.59,.57,.42,1.12,.88,1.64,1.38,1.16,.92,1.36,2.61,.44,3.77-.11,.14-.24,.28-.39,.39-.9,.83-2,1.42-3.19,1.71-5.06,1.46-10.51-.24-13.84-4.34-1.09-1.43-1.71-3.16-1.75-4.96,.04-.27-.1-.53-.35-.65-.44-.27-.75-.71-.86-1.21-.78-2.43-1.18-4.96-1.18-7.51Z"/><path id="g" class="ah" d="M9.27,30.54c.94-2.65,2.27-5.15,3.93-7.42,3.57-4.98,8.53-8.8,14.26-10.98,.23-.11,.47-.18,.73-.21,.19,.2,.12,.45,.13,.68,.04,.91,.04,1.84,.17,2.74,.31,1.74,.88,3.43,1.69,5.01,1.55,3.22,3.6,6.18,6.08,8.75,.23,.25,.44,.52,.64,.79,.22,.29,.33,.65,.28,1.01-.18,1.89-.85,3.7-1.94,5.25-1.41,1.89-3.49,3.17-5.81,3.58-2.09,.44-1.84,.41-3.39-.98-3.37-3.19-7.39-5.61-11.78-7.1-1.21-.33-2.45-.59-3.69-.77-.46-.01-.91-.13-1.31-.35Z"/><path id="h" class="ag" d="M9.27,30.54c3.67,.37,7.22,1.52,10.41,3.36,2.38,1.4,4.61,3.06,6.63,4.94,.26,.24,.53,.47,.8,.7,.47,.33,1.06,.41,1.59,.22,1.88-.25,3.64-1.02,5.11-2.23,1.5-1.3,2.53-3.06,2.94-5,.12-.49,.2-.99,.3-1.49,.15-.77-.35-1.25-.8-1.73-1.89-1.97-3.54-4.15-4.94-6.5-1.29-2.12-2.25-4.42-2.87-6.82-.11-.43-.17-.86-.17-1.31,.02-.92-.16-1.83-.1-2.75,.74,.08,1.05,.33,1.22,1,1.36,5.07,3.76,9.8,7.04,13.9,1.11,1.46,2.3,2.86,3.57,4.18,.52,.45,.76,1.14,.63,1.81-.3,2.15-1.09,4.21-2.32,6-1.64,2.19-4.03,3.72-6.71,4.28-.67,.16-1.36,.27-2.04,.38-.47,.02-.91-.18-1.2-.55-1.61-1.54-3.32-2.97-5.11-4.29-3.9-3-8.36-5.2-13.12-6.46-.62-.07-1.07-.63-1-1.26,.02-.14,.06-.27,.12-.4Z"/><path id="i" class="ad" d="M38.4,27.1c-3.44-4.02-6-8.71-7.51-13.77-.14-.5-.02-.65,.45-.77,1.04-.31,2.1-.53,3.18-.66,.11,.11,.19,.25,.21,.4,.98,3.23,2.24,6.37,3.77,9.38,.49,1.08,1.07,2.12,1.73,3.11,.09,.13,.14,.29,.13,.45,.03,.41-.17,.81-.52,1.03-.46,.31-.82,.8-1.44,.84Z"/><path id="j" class="ad" d="M9.11,37.29c.14-1.21,.41-2.41,.79-3.57,.1-.34,.31-.13,.44-.1,1.73,.46,3.42,1.07,5.04,1.83,3.21,1.51,6.21,3.43,8.93,5.71-.21,.95-.92,1.71-1.86,1.96-.16,0-.32-.04-.45-.13-1.36-.86-2.78-1.63-4.25-2.3-2.72-1.29-5.52-2.38-8.39-3.27-.1-.03-.19-.08-.26-.15Z"/><path id="k" class="ah" d="M9.11,37.29c1.04,.23,2.06,.54,3.05,.95,2.46,.87,4.86,1.91,7.18,3.12,.96,.44,1.87,.96,2.73,1.56-.18,.13-.41,.18-.63,.14-3.92-.21-7.59,.86-11.23,2.12-.27,.15-.57,.22-.88,.19-.55-2.54-.66-5.15-.32-7.72,.02-.12,.05-.23,.09-.34Z"/><path id="l" class="ah" d="M40.14,24.85c-.83-1.28-1.57-2.62-2.19-4.01-.91-1.86-1.71-3.77-2.41-5.71-.41-1.06-.76-2.14-1.02-3.24,1.23-.24,2.49-.33,3.74-.28,1.46,.02,2.91,.19,4.33,.51,.04,.2,0,.41-.09,.59-1.09,2.82-1.81,5.77-2.16,8.78-.13,.79-.15,1.59-.07,2.38,.1,.33,.06,.69-.12,.98Z"/><path id="m" class="ag" d="M40.14,24.85c-.3-4.46,.89-8.63,2.44-12.73,.76,.16,1.52,.36,2.26,.6,.73,.23,.84,.46,.56,1.16-.86,2.18-1.44,4.46-1.72,6.79-.3,2.5-.25,5.03,.16,7.51,.12,.38-.05,.8-.4,.99-.19,.11-.36,.25-.54,.37-.37-.37-.68-.79-.92-1.25-.52-.79-1-1.6-1.49-2.41-.12-.19-.15-.41-.24-.6-.02-.15,.04-.32-.1-.43Z"/><path id="n" class="ag" d="M9.34,45.36c4.1-1.55,8.27-2.74,12.73-2.44,.11,.14,.28,.08,.42,.11,.94,.41,1.83,.92,2.67,1.52,.58,.3,1.12,.69,1.59,1.14-.1,.14-.2,.27-.28,.42-.22,.43-.72,.65-1.18,.51-4.82-.78-9.77-.23-14.3,1.6-.58,.23-.84,.1-1.03-.5-.26-.77-.47-1.56-.62-2.35Z"/><path id="o" class="ag" d="M54.02,18.59c.87,1.44,1.42,3.05,1.6,4.73,.27,2.02-.04,4.07-.88,5.91-.25,.62-.66,1.16-1.2,1.56-.53,.47-1.34,.42-1.81-.11l-.02-.02c-.56-.59-1.09-1.21-1.58-1.86-.64-.83-1.55-1.41-2.56-1.64-.31-.07-.61,0-.91-.06-.12-.16-.17-.37-.12-.58,.12-1.24,.31-2.47,.54-3.7,.02-.08,.05-.16,.1-.23,.03-.05,.07-.09,.12-.11,.31,.03,.59,.2,.76,.45,.45,.46,.94,.88,1.42,1.3,.71,.81,1.94,.88,2.74,.18,.16-.14,.3-.31,.41-.5,.7-1.09,1.1-2.34,1.17-3.63,0-.57,.07-1.13,.23-1.68Z"/><path id="p" class="ag" d="M24.32,49.43c-.04,1.37,.6,2.66,1.7,3.47,.64,.48,1.25,1,1.83,1.54,.56,.45,.66,1.26,.21,1.83-.02,.03-.05,.06-.08,.09-.31,.43-.73,.77-1.21,.99-3.51,1.69-7.64,1.48-10.96-.55,.55-.17,1.12-.25,1.69-.23,1.31-.08,2.58-.49,3.68-1.22,.91-.55,1.21-1.73,.66-2.65-.1-.16-.22-.31-.36-.44-.42-.49-.84-.98-1.3-1.43-.25-.18-.42-.45-.48-.76,.02-.05,.05-.1,.1-.14,1.04-.29,2.11-.47,3.19-.56,.44-.15,.91-.14,1.34,.04Z"/><path id="q" class="ah" d="M54.02,18.59c.02,1.51-.23,3-.74,4.42-.22,.63-.62,1.18-1.15,1.58-.86,.65-2.08,.53-2.8-.28-.65-.64-1.33-1.26-2.04-1.83-.16-.14-.09-.31-.06-.47,.48-2.41,1.16-4.77,2.03-7.07,.03-.17,.13-.32,.27-.42,1.44,.53,2.7,1.47,3.61,2.71,.36,.41,.65,.87,.88,1.36Z"/><path id="r" class="ah" d="M19.7,50.08c.51,.68,1.08,1.31,1.7,1.88,1.48,1.54,.87,2.97-.67,3.86-.95,.49-1.98,.79-3.05,.86-.62,.08-1.25,.08-1.87,.12-1.87-.94-3.32-2.54-4.07-4.49,.12-.2,.33-.23,.51-.3,2.22-.84,4.5-1.49,6.83-1.96,.2-.04,.42-.18,.62,.02Z"/><path id="s" class="ai" d="M19.7,50.08c-1.59,.28-3.16,.67-4.69,1.16-1.09,.36-2.18,.72-3.27,1.08-.34-.77-.52-1.61-.52-2.46-.03-.19,.08-.37,.26-.43,2.4-.98,4.94-1.56,7.53-1.72,.08,.07,.12,.17,.11,.27,.03,.61,.21,1.21,.52,1.74,.08,.09,.1,.22,.08,.34l-.02,.03Z"/><path id="t" class="ai" d="M49.54,14.52c-.75,2.04-1.38,4.12-1.89,6.24-.13,.57-.23,1.15-.35,1.73l-.02,.02c-.12,.03-.24,0-.34-.08-.51-.31-1.09-.49-1.69-.51-.12,0-.24-.04-.33-.12,.16-2.59,.74-5.13,1.72-7.53,.05-.18,.24-.3,.43-.26,.85,0,1.69,.17,2.46,.52Z"/><path id="u" class="ae" d="M44.92,21.8c.85-.07,1.69,.18,2.35,.71-.32,1.51-.53,3.05-.62,4.59-.46,.1-.93,.19-1.39,.29-.14,.03-.21,0-.24-.16-.26-1.8-.29-3.62-.1-5.43Z"/><path id="v" class="ae" d="M19.72,50.05c-.52-.66-.78-1.5-.71-2.35,1.33-.15,2.67-.16,4.01-.05,.46,.02,.91,.1,1.37,.15,.16,.01,.26,.04,.21,.24-.1,.46-.19,.93-.29,1.39-1.54,.1-3.08,.3-4.59,.62Z"/><path id="w" class="ae" d="M40.24,25.27c.89,1.42,1.77,2.84,2.66,4.27-1.39,1.11-1.4,1.12-2.56-.15-.69-.73-1.34-1.49-1.94-2.29,.5-.28,.97-.6,1.41-.96,.29-.19,.45-.52,.43-.86Z"/><path id="x" class="ae" d="M26.76,45.68c-1.1-.68-2.2-1.36-3.29-2.04-.33-.2-.65-.41-.98-.62,.36,.02,.71-.16,.9-.47,.33-.44,.62-.91,.93-1.37,1.13,.85,2.15,1.82,3.2,2.76,.16,.14,.22,.26,.09,.47-.25,.44-.54,.87-.85,1.27Z"/><path id="y" class="ac" d="M18.48,26.28c.34,.08,.65,.25,.92,.48,1.98,1.28,3.84,2.72,5.58,4.31,.46,.42,.93,.85,1.37,1.29s.54,.87,.23,1.18-.64,.25-1.13-.24c-1.82-1.8-3.79-3.43-5.9-4.88-.47-.33-.97-.62-1.44-.96-.27-.14-.39-.46-.28-.75,.1-.27,.36-.45,.65-.43Z"/><path id="a`" class="ac" d="M29.73,30.05c-.23,.04-.46-.05-.6-.22-1.31-1.35-2.55-2.77-3.7-4.25-.74-.97-1.45-1.96-2.11-2.98-.09-.12-.17-.25-.23-.39-.12-.33-.28-.7,.15-.94,.31-.19,.73-.1,.92,.22,.01,.02,.03,.05,.04,.07,.46,.69,.91,1.39,1.4,2.06,1.02,1.43,2.14,2.8,3.34,4.09,.42,.44,.82,.9,1.25,1.34,.19,.21,.22,.51,.08,.75-.08,.22-.31,.33-.53,.26Z"/></g></g></g></svg>