<?xml version="1.0" encoding="UTF-8"?><svg xmlns="http://www.w3.org/2000/svg" viewBox="0 0 63.65 64.08"><defs><style>.dy{fill:#9cced3;}.e`{fill:#85a666;}.ea{fill:#c1ad39;}.eb{fill:#69a9c2;}.ec{fill:#4b9973;}.ed{fill:#89c3e5;}.ee{fill:#94af75;}.ef{fill:#575756;}.eg{fill:#70a3bb;}.eh{fill:#49acda;}.ei{fill:#9ca755;}.ej{fill:#d2b91b;}.ek{fill:#70a4a5;}.el{fill:#bedeef;}.em{fill:#65ad82;}.en{fill:#5aabcb;}.eo{fill:#a3b44a;}.ep{fill:#61b080;}.eq{fill:#9ecbe6;}.er{fill:#d7b31d;}.es{fill:#a9cfbb;}.et{fill:#66aa9e;}.eu{fill:#f6ab14;}.ev{fill:#abaa4e;}.ew{fill:#53a7d3;}.ex{fill:#b2aa4d;}.ey{fill:#60aca3;}.f`{fill:#83a56b;}.fa{fill:#96cfe9;}.fb{fill:#f6ab10;}.fc{fill:#bab141;}.fd{fill:#aaceb7;}.fe{fill:#a5a65c;}.ff{fill:#f7e096;}.fg{fill:#6ea790;}.fh{fill:#58a7cb;}.fi{fill:#8ca260;}.fj{fill:#e9b606;}.fk{fill:#aea653;}.fl{fill:#d8af29;}.fm{fill:#8ac3e5;}.fn{fill:#a9cfbc;}.fo{fill:#a8ab50;}.fp{fill:#bdb344;}.fq{fill:#aeab4c;}.fr{fill:#69a98c;}.fs{fill:#f9e190;}.ft{fill:#d0ac2a;}.fu{fill:#fddb9b;}.fv{fill:#9fcdb9;}.fw{fill:#acaa4b;}.fx{fill:#428766;}.fy{fill:#7dab6c;}.g`{fill:#66a2bf;}.ga{fill:#d6eaf3;}.gb{fill:#7aa779;}.gc{fill:#a3ab55;}.gd{fill:#8bc4e1;}.ge{fill:#d0ab32;}</style></defs><g id="a"/><g id="b"><g id="c"><g id="d" transform="translate(-133.095 -97.087)"><g id="e" transform="translate(134.447 98.095)"><path id="f" class="eq" d="M1.35,18.05c.14-4.75-.05-9.49,.29-14.24,.12-1.71,.79-2.49,2.39-2.64,.61-.05,1.23-.05,1.85-.05,17.58-.04,35.16-.08,52.74-.11,3.05,0,3.18,.17,3.24,3.26,.08,4.37,.23,8.75,.34,13.12-.45,.58-1.22,.82-1.92,.6-2.85-.09-5.69-.04-8.54-.03-.51,.09-1.04,.12-1.56,.07-1.05,.02-2.09,.16-3.1,.41-.19,.02-.39,0-.57-.05-2.93-2.08-5.68-4.44-9.04-5.91-2.54-1.26-5.39-1.75-8.2-1.39-.6,.15-1.24,.09-1.8-.18-.27-.18-.49-.43-.63-.72-.37-.98-.38-2.05-.04-3.04,.58-1.39,1.82-1.29,2.99-1.3,7.05-.03,14.09,0,21.14-.02,.74,.05,1.49,0,2.21-.16,.38-.11,.7-.33,.7-.75s-.34-.63-.72-.72c-.55-.1-1.11-.14-1.66-.11-14.46,0-28.92,0-43.39,.03-.93,0-2.57-.48-2.52,.97,.04,1.16,1.61,.72,2.52,.73,3.83,.06,7.67,.01,11.5,.04,.86-.1,1.73,0,2.55,.26,.88,.68,8.14,.95,9.66,.53,.57-.15-5.05,6.82-5.18,7.43-.1,.5-2.62,.5-3.05,.73-1.71,.91-.48-2.44-.22-.77,.11,.24,.19,.5,.22,.77-.11,.81-.4,1.59-.85,2.27-.26,.9-1.05,1.53-1.98,1.6-2.68,.24-5.38,.31-8.07,.22-1.06,.14-2.1-.32-2.71-1.2-.36-.91-.52-1.89-.46-2.87,.05-1.16-.85-2.14-2.01-2.18-.07,0-.14,0-.21,0-1.3-.03-2.02,.73-2.15,2.21-.09,1.08,.16,2.22-.49,3.22-.94,.83-2.35,.82-3.27-.03Z"/></g><g id="g" transform="translate(178.433 114.479)"><path id="h" class="fb" d="M60.3,17.51l1.91-.11c.64,2.92,.19,5.88,.39,8.82,.59,8.05,.73,16.12,.41,24.19-.02,.37-.09,.73-.14,1.09-.5,.48-1.2,.69-1.88,.57-4.32,.01-8.64,.01-12.96,0-.79,0-1.65,.09-2.09-.83-.19-.52-.05-1.11,.36-1.48,1.05-.6,2.11-1.21,2.44-2.52,.06-.16,.14-.31,.24-.44,.51-.39,.91-.92,1.16-1.52,.14-.48,.36-.93,.67-1.33,.35-.36,.72-.69,1.12-.99,.72-.43,1.22-1.13,1.4-1.95,.22-.37,.5-.7,.82-.99,1.68-1.6,1.67-2.98-.04-4.27-.85-.44-1.62-1-2.3-1.67-.28-.62-.85-1.07-1.53-1.17-2.03-.67-3.76-2.03-4.88-3.84-.14-.67-.02-1.37,.35-1.94,.07-.17,.18-.32,.31-.45,1.44-.8,.9-2.38,1.37-3.55,.37-.5,.54-1.13,.46-1.75-.27-1.57,.53-3.13,1.96-3.82,.54-.18,1.13-.13,1.64,.13,2.93,.22,5.88,.16,8.81-.17Z"/></g><g id="i" transform="translate(135.066 148.482)"><path id="j" class="ew" d="M3.08,58.97c-.78-1.89-1.15-3.92-1.11-5.97,.4-.57,1.09-.87,1.78-.77,5.41,.09,10.74-1.16,16.19-.75,5.04,.37,10.1-.14,15.15-.03,.92-.03,1.85,.02,2.77,.15,.58,.09,1.17,.08,1.75-.01,1.72-.21,3.46-.19,5.18,.08,5.3,.44,10.6,.1,15.9,.22,.71,.01,1.5-.24,2.09,.43,0,1.25-.16,2.5-.51,3.7l-.15-.09c.13-.21,.13-.37,.01-.15-.4,1.01-.7,2.06-.9,3.13-.93,1.14-1.93,.28-2.9,.1-.11,.11-.23,.21-.37,.28-.41,.17-.87,.16-1.27-.01-.98-.53-1.5-1.64-2.58-2.04-.66-.25-1.31-.69-2.16-.2,.34,.74,1.06,1,1.63,1.41,.53,.38,1.26,.68,.84,1.58-1,1.4-2.82,1.95-4.43,1.35-2.89-.86-5.96-.86-8.85,0-2.8,.73-5.7,1.03-8.59,.89-1.76-.14-3.48-.6-5.25-.78-3.38-.24-6.78,.01-10.09,.76-2.26-.6-4.63-.55-6.86,.15-3.04,.18-5.75-.34-7.26-3.41Z"/></g><g id="k" transform="translate(134.19 114.536)"><path id="l" class="eu" d="M38.11,52.2c-8.58,.06-17.16-.06-25.73,.25-3.46,.12-6.94,.32-10.41,.55-.29-4.43-.74-8.85-.83-13.28-.12-6.73,.01-13.47,.05-20.21,.03-.49,.08-.98,.15-1.46,1.01-.7,1.99,.36,2.99,.04l.29,.15c.47,.47,.72,1.11,.72,1.77,.18,1.77,.22,3.55,.14,5.32,.05,3.18,.41,6.35,.57,9.52-.24,2.81,.14,5.62,.19,8.43,0,.42,.03,.96,.55,1.05,.58,.1,.56-.53,.79-.86,.16-.27,.24-.58,.23-.89-.58-4,.59-7.92,.56-11.9-.02-3.5,.92-6.92,.86-10.42-.07-.65-.02-1.31,.16-1.94,.12-.43,.45-.76,.88-.88,.46,.52,1.17,.73,1.84,.57,2.56-.16,5.14,.35,7.69-.36,.3-.09,.74,.3,1.12,.46,.44,.33,.7,.85,.69,1.4,.21,1.1,.26,2.23,.15,3.35-.37,1.01,.44,1.37,1.04,1.85,.18,.23,.31,.5,.39,.78,.59,1.12,1.01,2.2-.64,2.81-.88,.28-1.83,.31-2.72,.08-1.67,.08-3.48-.63-4.89,.87-.1,.14-.22,.27-.34,.39-.81,.6-1.53,1.33-2.12,2.15-.66,.57-.45,1.4-.65,2.11-.37,1.04-.32,2.15-.59,3.21,.03,.38-.02,.76-.15,1.11-.9,1.33-.89,3.08,.04,4.4,.26,.63,.31,1.34,.14,2-.03,.27-.05,.54-.05,.81-.24,.94,.33,1.89,1.27,2.12h0c1.73,1.61,4,2.49,6.36,2.48,3.55,.06,7.11,.36,10.61-.54,.75,.11,1.48-.34,1.71-1.06,.12-.13,.27-.23,.43-.31,.8-.16,1.62-.19,2.42-.09,.18,.03,.35,.08,.51,.16,.49,.36,1.04,.61,1.63,.74,.87,.51,1.88,.87,2.31,1.91,.17,.48,.03,1.01-.35,1.35Z"/></g><g id="m" transform="translate(174.515 153.355)"><path id="n" class="fh" d="M41.42,61.13c2.34-1.64,5.03-.94,7.34-.47,1.62,.51,3.37,.27,4.79-.66,.27-.14,.56-.26,.85-.33,.56-.83,1.42-.75,2.26-.74,.49,.02,.97-.02,1.45-.11,.48,1.36-.69,1.57-1.2,2.4,1.38-.43,1.58-1.22,1.2-2.4-.1-.88,.07-1.76,.47-2.54,.18,1.8,.53,3.15,2.47,2.66,.11-.24,.22-.24,.33,0-1.43,3.98-3.23,4.93-7.32,3.83-3.38-.91-6.74-1.89-10.3-1.56-.77,.25-1.6,.23-2.35-.06Z"/></g><g id="o" transform="translate(149.517 158.204)"><path id="p" class="eb" d="M41.42,61.13l2.35,.06c-5.11,1.22-10.24,2.09-15.49,.86-3.32-.78-6.6-.28-9.88,.36-.6,.11-1.22,.14-1.82,.2-.26-.43-.24-.73,.37-.73,3.86-.93,7.78-.69,11.7-.76,1.92-.04,3.63,.8,5.56,.87,2.5,.09,4.76-1.03,7.22-.86Z"/></g><g id="q" transform="translate(177.319 147.41)"><path id="r" class="ee" d="M62.76,52.32c-5.21-.01-10.41,.02-15.61-.07-.8-.01-1.61,.79-2.42,.03-.39-.48-.78-1.03-.25-1.58,.54-.57,1.19-.42,1.76,.07,.18,1.12,1.08,.8,1.74,.8,4.96,0,9.92-.04,14.88-.07l-.1,.83Z"/></g><g id="s" transform="translate(143.362 158.183)"><path id="t" class="en" d="M16.94,61.89l-.37,.73-1.95,.22c-1.04-.02-2.08,0-3.12-.01-.61-.01-1.3,.04-1.24-.9,1.46-1.08,5.27-1.1,6.68-.03Z"/></g><g id="u" transform="translate(136.172 156.057)"><path id="v" class="g`" d="M10.27,61.91c.59,.97,1.56,.66,2.43,.72,.65-.06,1.31,0,1.94,.2-2.57,.34-5.17,.23-7.7-.34-1.88-.28-3.41-1.67-3.86-3.52,1.41,.02,1.22,1.64,2.23,2.19,1.62,.88,3.29,.7,4.97,.75Z"/></g><g id="w" transform="translate(194.111 151.873)"><path id="x" class="eg" d="M61.39,58.92h-.33c-.2-1.44,.4-2.68,1.05-4.14l.14,1.24c-.06,1.02-.36,2.01-.86,2.9Z"/></g><g id="y" transform="translate(143.318 113.807)"><path id="a`" class="fr" d="M10.57,38.13l.12-1.07c.46-.76,1.39-1.11,2.24-.82,.85,1.29-.1,2.79,.5,4.13,.35-.42,.26-.94,.39-1.4,.5-2.81,3.08-4.76,5.92-4.48,.68,0,1.35,.12,2.02,.16,.9,.15,1.75-.45,1.9-1.35,.01-.06,.02-.13,.02-.2,.16-1.1-.58-1.52-1.47-1.78-2.03-.6-5.79,.95-7.34,2.96-.56,.73-.85,1.87-2.13,1.72-.87-.29-1.34-1.23-1.05-2.1,0-.02,.01-.04,.02-.06,.05-.28,.05-.56,.09-.85,.5-1.48,1.75-2.43,2.59-3.68l-.04-.05c1.53-1.36,3.57-.84,5.31-1.44h2.81c1.03,.03,1.49-.65,1.04-1.53-.2-.4-.73-.39-.96-.76l-.09-.66c-.59-.4-1.08-.93-1.42-1.56-.16-1.22-.18-2.45-.04-3.67,.44-.54,.71-1.31,1.59-1.31,.8-.26,1.67,.04,2.14,.74,.24,.36,.23,1.26,1.01,.43,.3-.38,.63-.73,.98-1.06,.24-.16,.52-.24,.81-.24,1.56,.14,3.13,.19,4.7,.15,.18,0,.37,.02,.54,.08,.62,.2,.87,.83,1.35,1.2,1.55,1.19,2.77,.75,3.31-1.22,.03-.52,.28-1,.69-1.31,.34-.28,.79-.39,1.22-.31,2.33,.86,4.9,.19,7.2,1.16l.43,.12c.44,.37,.55,1,.28,1.5-1.21,1.36-2.83,.59-4.26,.81-.7,.11-1.65-.4-1.96,.74,0,.46-.02,.92-.06,1.37,.21,1.44,1.08,.96,1.91,.68,1.47-.48,2.95-.81,4.36,.21,.33,1.31-.04,2.7-.98,3.68l-.05-.04c-.64,.4-.86,1.15-1.35,1.68-.95,.49-1.59,.08-2.26-.62-2.26-2.36-4.56-2.23-6.55,.29-.3,.39-.58,.8-.9,1.18-1.12,1.36-1.67,1.5-3.11,.43-1.58-1.17-3.32-1.36-5.52-1.46,.87,.78,1.8,1.48,2.8,2.09,3.06,2.02,3.11,2.35,.68,4.99-.63,.68-1.19,1.42-1.66,2.22-.96,1.43-.91,3.31,.12,4.69,.82,1.16,1.76,2.23,2.78,3.21,.55,.55,1.28,1.03,1.14,1.99-.14,.48-.7,.5-.94,.88h-.01c-.36,.62-.9,1.12-1.54,1.43-2.56,1.13-5.28,.91-7.97,.92-1.42,.08-2.84,.04-4.26-.11-2.17-.35-4.38-.79-5.63-2.96-.15-.21-.28-.42-.4-.65,.04-.89-.3-1.76-.93-2.4l-.15-2.16c-.46-1.47-.46-3.06,0-4.53Z"/></g><g id="aa" transform="translate(137.167 100.378)"><path id="ab" class="el" d="M22.5,6.65H6.56c-1.13-.01-2.49,.07-2.49-1.49,0-1.42,1.15-1.87,2.48-1.87,15.45,0,30.89,0,46.34,0,1.17,0,2.3,.08,2.25,1.72-.06,1.67-1.36,1.59-2.41,1.59-7.78,.04-15.57,.02-23.35,.04-.73,0-1.68-.37-2.06,.73-1.51-.7-3.18-.95-4.82-.73Z"/></g><g id="ac" transform="translate(155.232 107.234)"><path id="ad" class="eh" d="M46.54,17.92c-2.27,.1-4.55,.62-6.77-.4-.53-.12-1.08-.14-1.62-.05-.16,.09-.34,.12-.52,.11-.98-.62-1.9-1.32-2.91-1.89-2.42-1.38-5.44-1.1-7.57,.69-.58,.45-.98,1.11-1.66,1.45-.19,.06-.39,.1-.59,.12-1.29,.32-2.35,.17-2.76-1.32l1.15-1.8c.76-1.1,1.08-1.33,1.8-2.24,.69-.85,1.61-1.49,2.64-1.85,3.98-1.33,7.64-.2,11.15,1.57,2.9,1.35,5.51,3.26,7.67,5.62Z"/></g><g id="ae" transform="translate(137.413 108.892)"><path id="af" class="ga" d="M10.28,17.45l-.33,.71c-1.7,1.08-3.88,1.08-5.59,.01l-.02-.09c0-1.22-.06-2.44,0-3.67-.02-1.43,1.12-2.61,2.55-2.63,.12,0,.23,0,.35,.02,1.51-.15,2.86,.96,3.01,2.47v.06c.08,1.03,.02,2.08,.03,3.11Z"/></g><g id="ag" transform="translate(180.068 114.508)"><path id="ah" class="er" d="M47.04,19.58c-.02-.51-.04-1.02-.07-1.53,.82-1.01,1.9-.49,2.88-.5,.02,.12,.09,.31,.05,.35-1.61,1.39-1.37,3.33-1.58,5.15-.01,.12-.27,.21-.42,.31-.19,.02-.37-.07-.49-.22-.65-1.13-.4-2.36-.37-3.56Z"/></g><g id="ai" transform="translate(184.565 114.504)"><path id="aj" class="ej" d="M60.3,17.51c-.2,.74-.82,.57-1.35,.63-2.33,.23-4.71-.49-7.03,.45-.58,.24-.44-.52-.43-.91,2.93-.28,5.87-.34,8.81-.16Z"/></g><g id="ak" transform="translate(154.413 113.709)"><path id="al" class="ey" d="M22.14,16.62c.74,1.16,1.95,.65,2.96,.83,.29,.26,.44,.64,.4,1.03-.2,.52-.29,1.16-1.08,1.14-.31-1.02-1.17-.69-1.86-.75-.31-.43-1.02-.22-1.24-.78,.43-.38,.71-.9,.82-1.46Z"/></g><g id="am" transform="translate(154.023 115.173)"><path id="an" class="f`" d="M21.32,18.09c.51,.11,1.15,.02,1.24,.78l-1.56,.76c-.02-.5-.05-1.01-.07-1.51l.39-.03Z"/></g><g id="ao" transform="translate(165.815 125.865)"><path id="ap" class="fr" d="M46.24,50.76c-1.22-.21-1.78,.24-1.5,1.51l-5.17-.07c-.63-.31-1.16-.79-1.53-1.38-.85-.29-1.61-.79-2.21-1.45-.09-.96-1.09-.33-1.43-.83l-.04,.04c-.38-.6-1.35-.15-1.63-.91,.06-1.71,1.13-3.21,.92-5-.01-1.15-.18-2.3-.5-3.41-.42-1.08-.39-2.2,1.01-2.69,.43,.51,1.2,.58,1.71,.15,.04-.03,.07-.06,.1-.1,2.95-2.25,5.8-2.18,8.83,.03,.4,.39,.89,.66,1.43,.79,.74,.19,1.52-.16,1.88-.84,.38-.67,.2-1.52-.42-1.99-.98-.95-2.27-1.53-3.64-1.62-.79-.09-1.62,0-2.26-.61,.28-1.62,1.87-2.16,2.71-3.32,.42-.18,.83-.43,1.3-.12,1.35,1.48,3.01,2.64,4.86,3.41,.39,.57,.9,1.04,1.48,1.41l2.24,1.5c1.62,1.72,1.44,3.45,.04,5.2,.03,.5-.27,.69-.71,.75-.62,.64-1,1.46-1.56,2.14-.13,.47-.56,.8-1.04,.79-.4,.21-.64-.06-.9-.3s-.55-.67-.9-.24c-.4,.5,.23,.87,.34,1.32,.07,.27,.1,.55,.07,.83-.03,.49-.21,.96-.5,1.35h0c-.65,1.06-1.64,1.86-2.26,2.94-.34,.12-.61,.39-.73,.73Z"/></g><g id="aq" transform="translate(187.477 132.322)"><path id="ar" class="ei" d="M54.42,40.43c0-.06-.04-.14-.02-.18,.82-1.58,.81-3.45-.02-5.02,2.22,1.27,2.24,3.59,.04,5.2Z"/></g><g id="as" transform="translate(191.995 120.781)"><path id="at" class="fj" d="M59.2,23.69c.44,1.7,.46,3.49,.07,5.2-.48-1.7-.5-3.49-.07-5.2Z"/></g><g id="au" transform="translate(180.067 144.168)"><path id="av" class="ev" d="M46.97,50.03c-.05-1.6,1.11-2.27,2.26-2.94,.01,1.57-1.1,2.28-2.26,2.94Z"/></g><g id="aw" transform="translate(179.33 120.26)"><path id="ax" class="ea" d="M46.25,27.04c-.2-1.33,1.18-2.3,.85-3.67,.1-.18,.33-.26,.51-.16,.04,.02,.08,.06,.12,.09l.18,.04c-.33,1.33,.27,3.08-1.65,3.69Z"/></g><g id="ay" transform="translate(182.195 140.322)"><path id="b`" class="ek" d="M50.68,43.33l.42,.79c.05,.52-.14,1.04-.51,1.4-.27,.41-.83,.51-1.23,.24-.04-.03-.08-.06-.11-.09l-.06-.85c-.29-1.31,.2-1.81,1.51-1.49Z"/></g><g id="ba" transform="translate(177.677 124.078)"><path id="bb" class="fi" d="M45.81,28.92l-1.02,.38c-.25-.22-.28-.59-.07-.85-.02-1.02,.43-1.55,1.49-1.46l-.4,1.92Z"/></g><g id="bc" transform="translate(185.243 138.274)"><path id="bd" class="fo" d="M52.15,43.33c-.1-1.01,.58-1.93,1.56-2.14,.1,1.01-.58,1.93-1.56,2.14Z"/></g><g id="be" transform="translate(182.331 142.604)"><path id="bf" class="fk" d="M49.25,45.67l1.35-.15c-.06,.76-.61,1.39-1.36,1.56v-1.41Z"/></g><g id="bg" transform="translate(183.751 129.417)"><path id="bh" class="fw" d="M52.14,33.74c-.95,.01-1.58-.32-1.48-1.41,.75,.2,1.36,.55,1.48,1.41Z"/></g><g id="bi" transform="translate(161.359 152.973)"><path id="bj" class="gd" d="M36.87,59.31c-2.61,.14-5.22-.3-7.64-1.3-.43-.18-1.05-.34-.97-.96,.1-.75,.79-.69,1.32-.68,1.85-.1,3.7-.02,5.54,.22,2.15,.45,4.28-.25,6.43-.39,.24-.02,.48-.17,.72-.17,.76,.01,1.86-.5,2.16,.35,.28,.79-.86,1.01-1.45,1.4-1.8,1.21-3.97,1.75-6.12,1.53Z"/></g><g id="bk" transform="translate(140.92 153.072)"><path id="bl" class="fm" d="M12.7,60.59c-1.5-.25-3.34-.33-4.6-1.85-.19-.23-.28-.53-.27-.82,.04-.37,.4-.43,.72-.34,3.79,1,7.25-.64,10.82-1.37,.36-.09,.72-.16,1.08-.21,.44-.04,.92,.04,1.08,.51,.16,.43-.27,.63-.55,.85-2.33,1.95-5.24,3.09-8.28,3.24Z"/></g><g id="bm" transform="translate(183.876 153.052)"><path id="bn" class="ed" d="M56.66,58.92c-.45,1.17-1.47,.6-2.26,.74-1-.59-2.01-1.15-2.99-1.78-.47-.21-.72-.73-.59-1.23,.21-.66,.8-.74,1.36-.68,1.98,.22,3.69,.89,4.47,2.94Z"/></g><g id="bo" transform="translate(171.133 147.904)"><path id="bp" class="fp" d="M38.04,50.82c.75,.09,1.37,.64,1.53,1.38h-1.45c-.03-.46-.05-.92-.08-1.38Z"/></g><g id="bq" transform="translate(137.793 115.909)"><path id="br" class="fu" d="M5.42,35.2c-.42-3.27-.65-6.57-.69-9.87-.04-1.9-.02-3.8-.03-5.71,1.58-1.18,3.79-1.03,5.2,.35l-1.66,24.03c-1.84-1.34-2.04-3.42-2.4-5.41-.2-1.12,.32-2.33-.41-3.4Z"/></g><g id="bs" transform="translate(138.519 132.283)"><path id="bt" class="ff" d="M5.42,35.2c.53,.23,.83,.79,.75,1.36-.33,2.77,1.57,4.91,2.07,7.44,.05,1.07-.49,1.64-1.53,1.57s-1.17-.98-1.18-1.77c-.06-2.87-.07-5.74-.1-8.6Z"/></g><g id="bu" transform="translate(137.46 115.248)"><path id="bv" class="fs" d="M9.9,19.97c-1.72-.31-3.46-.43-5.2-.35-.11-.48-.22-.96-.33-1.45h5.59l-.05,1.8Z"/></g><g id="bw" transform="translate(143.736 130.594)"><path id="bx" class="gb" d="M12.07,33.62c-.14,.91,.47,1.56,.8,2.3,.09,.09,.09,.24,0,.33-.02,.02-.04,.03-.06,.05-.56,.55-1.33,.83-2.12,.75-.11-1.18,.11-2.36,.65-3.41,.21-.17,.51-.17,.72-.01Z"/></g><g id="by" transform="translate(147.445 124.859)"><path id="c`" class="ft" d="M19.66,27.82c-.03,.17-.07,.33-.13,.48-1.81-.14-3.38,1.06-5.18,.96,.4-1.29,1.4-1.53,2.58-1.48,.9,.03,1.82,.02,2.73,.04Z"/></g><g id="ca" transform="translate(144.905 126.4)"><path id="cb" class="fe" d="M14.39,29.31c-.19,1.57-1.37,2.53-2.27,3.66-.4-.42-.4-1.09,0-1.51,.63-.85,1.13-1.84,2.27-2.15Z"/></g><g id="cc" transform="translate(155.561 122.612)"><path id="cd" class="gc" d="M22.55,25.53c1.71-.04,1.7,1.13,1.38,2.22-.27,.94-.92,1.11-1.47,.08,1.79-.71-.15-1.54,.08-2.3Z"/></g><g id="ce" transform="translate(142.94 135.214)"><path id="cf" class="ge" d="M10.57,38.13v4.52c-.97-1.35-.97-3.17,0-4.52Z"/></g><g id="cg" transform="translate(167.486 145.001)"><path id="ch" class="fy" d="M34.39,48.53q1.41-.71,2.67-.48c-.13,.71-1.28,.48-1.24,1.32-.54-.16-1.37,.17-1.43-.83Z"/></g><g id="ci" transform="translate(143.791 141.894)"><path id="cj" class="e`" d="M10.72,44.81c1.82-.05,1.33,1.27,1.36,2.29-1.52,.44-.78-1.17-1.39-1.55l.03-.74Z"/></g><g id="ck" transform="translate(143.73 142.633)"><path id="cl" class="fc" d="M10.7,45.55c.91,.11,.46,1.45,1.39,1.55l-.04,.76c-1.8,.02-1.38-1.26-1.35-2.31Z"/></g><g id="cm" transform="translate(164.543 144.666)"><path id="cn" class="ex" d="M32.91,47.7c.55,.18,1.37-.09,1.44,.87h-2.91c-.02-.5,.28-.73,.7-.86,.22-.17,.53-.18,.76-.02Z"/></g><g id="co" transform="translate(162.991 145.664)"><path id="cp" class="fq" d="M29.9,50c.35-.65,.69-1.32,1.54-1.43,.14,1.18-.4,1.63-1.54,1.43Z"/></g><g id="cq" transform="translate(144.446 128.55)"><path id="cr" class="fl" d="M12.12,31.46v1.51l-.04,.65-.72,.02c.16-.75-.38-1.76,.76-2.18Z"/></g><g id="cs" transform="translate(154.092 120.391)"><path id="ct" class="eo" d="M21.04,23.3c.74,.2,1.29,.81,1.42,1.56-1.06,.01-1.63-.42-1.42-1.56Z"/></g><g id="cu" transform="translate(188.452 156.025)"><path id="cv" class="ew" d="M58.21,58.94c.79,.63,.95,1.76,.38,2.58-.55,.75-1.6,.34-2.43,.32-.39,.04-.74-.24-.79-.62-.05-.46,.28-.67,.65-.74,.93-.13,1.75-.7,2.2-1.53Z"/></g><g id="cw" transform="translate(158.417 122.665)"><path id="cx" class="ec" d="M32.91,47.69l-.76,.02c-1.02-1.06-2.06-2.09-3.05-3.17-2.92-3.18-2.93-5.69-.16-8.95,.78-.91,2.39-1.54,2.16-2.77-.19-1.04-1.82-1.29-2.74-1.99-.83-.63-1.74-1.15-2.6-1.74-.34-.18-.51-.57-.41-.94,.11-.37,.48-.36,.77-.35,2.28,.02,4.64-.09,6.4,1.69,1.02,1.03,1.5,.59,2.08-.34,.3-.46,.63-.91,.98-1.33,2.28-3,5.56-2.99,7.7,.1,.44,.65,1.01,.26,1.43,.55l.07,.85c-.54,1.35-1.64,2.4-3.01,2.88-.03,.05-.04,.14-.08,.16-2.64,1.07-5.11,2.53-7.33,4.32-.79,.52-1.07,1.56-.63,2.4,1.28,2.82,.97,6.1-.84,8.62Z"/></g><g id="cy" transform="translate(145.575 127.503)"><path id="d`" class="es" d="M12.81,36.3l.06-.37c1.46-3.14,4.51-5.24,7.96-5.48,2.63-.28,4.35,1.36,3.55,3.41-.35,1.11-1.45,1.79-2.6,1.61-5.68-.51-6.61,.17-7.48,5.57-.07,.43-.08,.91-.64,.97-.54,.06-.74-.4-.88-.8-.42-1.61-.41-3.3,.01-4.91Z"/></g><g id="da" transform="translate(173.394 116.665)"><path id="db" class="fg" d="M47.73,23.31l-.63,.06c-1.57-.01-3.11-.29-4.58,.78-1.08,.78-1.96,.04-2.2-1.58,1.02-1.14,2.38-.56,3.41-.74-1.04-.13-2.4,.4-3.41-.73-.11-1.08,.37-1.53,1.47-1.5,1.75,.04,3.51-.01,5.26-.03,1.31,1.04,.52,2.47,.68,3.73Z"/></g><g id="dc" transform="translate(158.178 113.557)"><path id="dd" class="dy" d="M25.08,18.48l.02-1.03,.38-.07c1.11-.77,2.48-1.08,3.81-.84,1.46,.17,2.93,.18,4.4,.01,1.41-.17,2.83,.11,4.06,.82l.41,.1-.07,1.4c-1.53,1.15-3.63,1.14-5.16,0-.11-.02-.22-.04-.33-.04-1.71-.85-3.5-.38-5.27-.35l-.44,.37c-.7,.39-1.43,.94-1.8-.36Z"/></g><g id="de" transform="translate(166.015 115.95)"><path id="df" class="fd" d="M32.92,18.86h5.16c-.02,1.18-.94,2.15-2.12,2.21-1.59,.16-2.5-.82-3.04-2.21Z"/></g><g id="dg" transform="translate(173.409 118.189)"><path id="dh" class="em" d="M40.31,21.1c1.59,0,3.18,0,4.76,.01,.5,0,1.05,.04,1.05,.72s-.55,.72-1.05,.73c-1.59,.01-3.18,0-4.77,.01v-1.47Z"/></g><g id="di" transform="translate(160.414 114.753)"><path id="dj" class="et" d="M27.32,18.47c1.83-.97,3.62-1.3,5.27,.35-1.75-.11-3.56,.47-5.27-.35Z"/></g><g id="dk" transform="translate(157.469 115.57)"><path id="dl" class="fv" d="M25.08,18.48c.52,.52,1.17,.35,1.8,.36-.31,.43-.61,.88-.87,1.34-.27,.51-.32,1.37-1.1,1.16-.85-.23-.41-1.11-.49-1.71,.22-.38,.44-.76,.66-1.14Z"/></g><g id="dm" transform="translate(158.571 111.154)"><path id="dn" class="fa" d="M37.74,17.37c-3.36-.19-6.73,.33-10.09-.22-.73-.02-1.46,.06-2.18,.24,2.67-4.82,9.69-4,12.26-.01Z"/></g><g id="do" transform="translate(167.099 129.273)"><path id="dp" class="fn" d="M34.37,36.67c1.54-3.04,4.26-4.11,7.41-4.48,2.1,0,4.19,.01,5.98,1.42,1.55,1.22,1.88,2.46,.85,3.76-.98,1.25-2.53,1.34-3.89,.13-1.76-1.84-4.49-2.36-6.8-1.3-.87,.44-1.67,1.01-2.37,1.69-.39,.32-.66,1.12-1.3,.7-.46-.31-.12-.9,.03-1.37,.04-.18,.08-.36,.1-.55Z"/></g><g id="dq" transform="translate(181.483 139.612)"><path id="dr" class="ep" d="M50.69,43.33c-.7,.24-1.26,.79-1.51,1.49-.59-.24-.88-.91-.65-1.5,.24-.59,.91-.88,1.5-.65,.3,.12,.54,.36,.65,.66Z"/></g><g id="ds" transform="translate(139.993 117.796)"><path id="dt" class="fs" d="M8.03,20.71c.47,1.11,.54,2.35,.2,3.51-.09,.39-.42,.86-.92,.68-.35-.15-.51-.55-.37-.9,.03-.07,.07-.13,.12-.19,.78-.92,.45-2.1,.97-3.11Z"/></g><g id="du" transform="translate(165.447 128.1)"><path id="dv" class="fx" d="M34.38,32.47c-.05,.51,.05,1.14-.72,1-.56-.1-1.4-.14-1.31-.95,.07-.62,.47-1.46,1.12-1.5,.89-.06,.77,.87,.9,1.45Z"/></g><g id="dw" transform="translate(133.095 97.087)"><path id="dx" class="ef" d="M56.82,64.08c-.09,0-.18,0-.27-.01-9.82-2.64-12.51-2.01-12.54-2.01-4.39,1.07-8.91,1.51-13.42,1.31-5.02-1.56-11.94-.09-12.01-.07-4.99,1.27-11.54,.13-11.81,.09-4.74-.33-5.57-8.26-5.69-10.01-.74-1.27-1.53-6.73-.8-35.34,.19-7.56,.41-13.42,.46-14.26C.67,1.92,2.11,.36,3.96,.28h.08L56.06,.11c3.11-.35,5.23,.12,6.24,1.44,.59,.82,.77,1.87,.47,2.84,.68,13.38,.88,47.58,.89,47.92-.18,5.11-1.38,8.61-3.54,10.46-.91,.81-2.08,1.27-3.29,1.3Zm-11.78-3.89c1.74,0,5.26,.35,11.85,2.13,.79-.07,1.53-.4,2.11-.94,1.19-1.05,2.66-3.48,2.86-9.09,0-.31-.2-34.76-.89-47.97v-.19l.06-.18h0c.15-.44,.09-.92-.16-1.31-.34-.44-1.42-1.11-4.71-.73l-52.13,.17c-.33,0-1.41,.16-1.5,1.79-.04,.83-.26,6.67-.46,14.21-.59,23.1-.15,32.78,.47,34.23l.29,.16,.02,.5c.1,2.33,1.04,8.42,4.13,8.64,.15,.02,6.54,1.12,11.18-.05,.33-.07,7.48-1.6,12.76,.07-.02,0,.51,.02,1.45,.03,3.76-.02,7.51-.46,11.18-1.32,.48-.11,.98-.16,1.48-.13h0Z"/></g></g></g></g></svg>