<?xml version="1.0" encoding="UTF-8"?><svg xmlns="http://www.w3.org/2000/svg" viewBox="0 0 79.92 70.5"><defs><style>.ad{fill:#d7d8d7;}.ae{fill:#575756;}.af{fill:#a5a4a4;}.ag{fill:#b3b2b2;}.ah{fill:#e4e3e3;}.ai{fill:#999;}.aj{fill:#c0c0bf;}.ak{fill:#bcbcbb;}.al{fill:#a2a0a0;}</style></defs><g id="a"/><g id="b"><g id="c"><g id="d" transform="translate(-64.887 -94.717)"><g id="e" transform="translate(114.117 123.768)"><path id="f" class="ai" d="M79.03,39.12c.75,12.02-15.98,12.7-15.98,12.7-4.94-.14-6.13,2.61-6.13,2.61,1.86,.34,2.68,3.15,2.68,3.15-1.08,6.26-6.97,2.03-6.97,2.03-4.28-3.09-2.32-7.08-.28-9.62,1.34-1.64,3.14-2.85,5.16-3.49,2.89-.99,5.91-1.53,8.96-1.58,0,0,8.77-1.93,5.25-7.42,0,0-4.64-2.91-9.51,2.2,0,0-.47,4.5-5.82,2.68-1.29-.64-1.26-2.18-.8-3.73,.91-2.79,2.88-5.12,5.49-6.48,4.57-2.52,7.71-2.25,7.71-2.25,10.43,.54,10.26,9.21,10.26,9.21Z"/><path id="g" class="ae" d="M56.44,61.84c-1.55-.12-3.04-.65-4.31-1.55-1.52-.97-2.55-2.53-2.85-4.31-.27-1.98,.57-4.24,2.41-6.53,1.44-1.77,3.38-3.08,5.56-3.77,2.98-1.02,6.09-1.56,9.24-1.62,1-.25,4.27-1.35,5.05-3.24,.31-.91,.16-1.92-.42-2.7-.79-.41-4.3-1.88-8.12,1.97-.23,1.18-.91,2.22-1.9,2.9-1.27,.81-2.95,.87-4.99,.17-1.15-.56-2.22-1.8-1.34-4.77,.96-3.01,3.08-5.52,5.89-6.98,4.74-2.6,8.05-2.36,8.19-2.35,10.68,.56,11.02,9.29,11.03,10.02,.26,2.91-.71,5.79-2.67,7.96-4.68,5.18-13.75,5.6-14.13,5.62-2.74-.06-4.16,.76-4.84,1.41,1.04,.84,1.8,1.98,2.17,3.27l.05,.19-.03,.19c-.35,2.01-1.2,3.31-2.54,3.86-.46,.18-.95,.28-1.45,.27Zm10-16.11c-2.95,.08-5.88,.61-8.68,1.56-1.87,.58-3.52,1.7-4.76,3.22-1.08,1.34-2.31,3.34-2.05,5.25,.25,1.31,1.03,2.46,2.16,3.16,.69,.49,2.77,1.65,4.13,1.09,.86-.49,1.41-1.39,1.47-2.38-.25-.71-.96-2.19-1.95-2.37l-1.05-.19,.42-.98c.06-.13,1.52-3.26,6.93-3.12,.03,0,8.69-.42,12.89-5.07,1.65-1.84,2.45-4.28,2.22-6.73v-.06c0-.32,0-7.86-9.46-8.35-.04,0-3-.19-7.25,2.15-2.42,1.24-4.24,3.39-5.08,5.98-.44,1.48-.32,2.39,.37,2.73,1.09,.5,2.34,.48,3.41-.03,.65-.47,1.08-1.19,1.19-1.98l.03-.28,.2-.21c5.29-5.55,10.52-2.36,10.58-2.33l.26,.26c.97,1.27,1.22,2.94,.67,4.43-1.28,3.09-6.23,4.21-6.44,4.26h-.21Z"/></g><g id="h" transform="translate(118.872 138.078)"><path id="i" class="ae" d="M55.58,47.79l-1.6-.56,1.22-3.86,1.62,.48c-.33,1.22-.88,3.01-1.24,3.94Z"/></g><g id="j" transform="translate(64.887 121.664)"><path id="k" class="ak" d="M.95,27.8H56.26c1.29,1.98,1.76,4.38,1.3,6.69,0,0-4.21,6.61-1.18,7.86l-1.58,5.11s-5.03,5.15-4.38,6.53c0,0-19.14,21.41-41.92,0,0,0-8.69-11.68-7.55-26.19Z"/><path id="l" class="ae" d="M29.48,64.36c-7.43,0-14.68-3.27-21.57-9.75-.46-.6-8.95-12.21-7.8-26.88l.06-.78H56.68l.25,.34c1.44,2.16,1.96,4.81,1.46,7.35l-.12,.3c-1.03,1.62-2.5,4.7-2.07,6.08,.07,.25,.25,.46,.5,.54l.71,.29-2.01,6.19c-2.28,2.33-4.24,4.97-4.19,5.65l.24,.5-.39,.35c-.34,.38-8.4,9.25-20.46,9.77-.37,.02-.74,.03-1.1,.03ZM1.74,28.65c-.74,13.68,7.35,24.73,7.43,24.84,6.78,6.35,13.99,9.49,21.33,9.15,10.2-.44,17.6-7.47,19.04-8.94,.06-1.7,2.38-4.47,4.52-6.68l1.33-4.29c-.38-.31-.65-.73-.79-1.2-.76-2.41,1.6-6.43,2.16-7.35,.33-1.9,0-3.86-.95-5.54H1.74Z"/></g><g id="m" transform="translate(73.932 125.92)"><path id="n" class="ah" d="M13.62,31.35s4.5,15.2,11.62,21.22c.41,.72,.16,1.64-.56,2.05-.22,.12-.46,.19-.72,.2,0,0-5.9,.3-8.7-2.62,0,0-4.93-4.19-6.14-9.36,0,0-.67-8.15,2.01-10.83,.64-.68,1.61-.94,2.5-.67Z"/></g><g id="o" transform="translate(95.704 124.469)"><path id="p" class="af" d="M33.2,62.01s-4.38-.12-1.28-3.77c0,0,15.33-2.01,14.6-25.73,0,0,1.03-3.16,3.22-2.68,0,0,2.43-.67,4.38,2.13,0,0,2.01,25-20.92,30.05Z"/></g><g id="q" transform="translate(80.101 152.477)"><path id="r" class="al" d="M44.21,69.33l-27.74,.32c-.93-1.86,0-9.04,0-9.04,0,0,15.08,6.87,27.74-1.34,0,0,.57,9.53,0,10.06Z"/><path id="s" class="ae" d="M15.95,70.5l-.24-.47c-1-1.99-.24-8.29-.08-9.53l.15-1.13,1.04,.47c.15,.06,14.82,6.57,26.93-1.28l1.22-.79,.08,1.45c.59,9.93,.03,10.45-.27,10.73l-.24,.22-28.59,.33Zm1.23-8.69c-.32,2.31-.36,4.66-.11,6.98l26.48-.31c.1-2.59,.06-5.18-.11-7.76-10.79,6.16-22.67,2.46-26.26,1.09h0Z"/></g><g id="t" transform="translate(82.053 94.717)"><path id="u" class="aj" d="M26.63,3.07s-7.64,3.87-.67,9.55c0,0,6.81,5.53,.18,10.95,0,0-8.39,3.1-2.8-2.37,0,0,3.33-2.4-1.92-5.34,0,0-7.51-5.49-.27-13.76,1.09-.94,2.52-1.38,3.95-1.21,0,0,3.29,.24,1.52,2.19Z"/><path id="v" class="ae" d="M22.48,25.29c-.65,.08-1.3-.18-1.7-.7-.71-1.12,.53-2.58,1.98-4,.46-.32,.75-.84,.79-1.39-.05-.79-.95-1.72-2.53-2.6-2.07-1.58-3.43-3.91-3.8-6.48-.31-2.83,.8-5.71,3.31-8.58C21.8,.4,23.5-.15,25.2,.04c.49,.04,2.22,.25,2.69,1.44,.25,.78,0,1.64-.63,2.17l-.24,.18s-2.89,1.5-3.12,3.75c-.15,1.38,.73,2.86,2.61,4.38,.14,.11,3.39,2.8,3.4,6.44,0,2.12-1.08,4.08-3.21,5.82l-.24,.14c-1.26,.53-2.6,.84-3.96,.93ZM24.56,1.71c-1.03-.02-2.03,.34-2.81,1-2.13,2.44-3.11,4.89-2.86,7.21,.31,2.07,1.4,3.95,3.03,5.26,2.08,1.15,3.22,2.5,3.3,3.93,0,1.09-.51,2.12-1.39,2.77-.56,.51-1.04,1.09-1.45,1.72,1.14-.11,2.26-.37,3.32-.78,1.45-1.02,2.36-2.64,2.48-4.41,0-2.83-2.74-5.12-2.77-5.14-2.35-1.92-3.43-3.9-3.22-5.88,.31-2.83,3.17-4.59,3.89-4.99,.1-.1,.17-.22,.21-.36-.4-.18-.82-.29-1.26-.32-.17-.03-.33-.04-.48-.04h0Z"/></g><g id="w" transform="translate(94.59 100.287)"><path id="x" class="aj" d="M39.94,8.06s-7.08,3.2-2.64,8.1c2.44,2.69,2.33,7.05-.83,8.84-.38,.22-.78,.41-1.19,.57,0,0-2.07,.3-.24-3.47,0,0,1.56-2.38-3.95-5.9,0,0-2.5-6.44,3.59-9.18,0,0,8.78-1.9,5.28,1.03Z"/><path id="y" class="ae" d="M35.14,26.4c-.53,.02-1.04-.22-1.36-.64-.6-.82-.45-2.1,.48-4.02,.05-.08,.94-1.89-3.65-4.82l-.23-.15-.1-.26c-.96-2.49-1.36-7.83,4.03-10.26,6.4-1.4,6.96-.25,7.17,.19,.49,1.01-.6,1.92-1.01,2.27l-.19,.12s-3.11,1.44-3.56,3.62c-.14,1.18,.3,2.36,1.19,3.15,1.48,1.61,2.15,3.8,1.83,5.96-.26,1.77-1.32,3.31-2.87,4.19-.42,.23-.85,.44-1.29,.62-.15,.03-.3,.05-.44,.05Zm-3.37-10.75c2.46,1.61,3.88,3.25,4.22,4.86,.19,.7,.09,1.44-.26,2.06-.81,1.69-.59,2.18-.59,2.19,.21-.13,.57-.31,.9-.49,1.11-.63,1.86-1.73,2.04-2.99,.24-1.65-.28-3.33-1.42-4.55-1.27-1.18-1.87-2.92-1.6-4.63,.58-2.76,3.74-4.43,4.4-4.75l.08-.07c-1.59,.04-3.17,.24-4.72,.59-4.55,2.07-3.42,6.67-3.06,7.8h0Z"/></g><g id="a`" transform="translate(124.582 126.437)"><path id="aa" class="ad" d="M61.2,36.88c3.9-2.41,8.62-3.13,13.06-1.99,0,0,2.19,.32,.32-1.42-4.5-2.85-10.38-2.14-14.07,1.7,0,0-2.24,3.15,.69,1.71Z"/></g><g id="ab" transform="translate(126.686 136.57)"><path id="ac" class="ag" d="M74.38,42.06s-6.69,5-12.17,5.61c0,0-1.6,.85,1.46,1.18,0,0,7.18,.91,11.24-5.31,0,0,1.54-2.37-.53-1.47Z"/></g></g></g></g></svg>