<?xml version="1.0" encoding="UTF-8"?><svg xmlns="http://www.w3.org/2000/svg" viewBox="0 0 50.19 90.37"><defs><style>.an{fill:#575756;}.ao{fill:#fdd56b;}.ap{fill:#b5dff0;}.aq{fill:#fcd398;}.ar{fill:#f3921b;}.as{fill:#f3921c;}.at{fill:#b4e0f1;}.au{fill:#ea5b2a;}.av{fill:#70c5eb;}.aw{fill:#c6e5f4;}.ax{fill:#ce582f;}.ay{fill:#694621;}.b`{fill:#9f5437;}</style></defs><g id="a"/><g id="b"><g id="c"><g><g id="d" transform="translate(5.938 31.622)"><path id="e" class="ar" d="M44.91,32.61c-.88,9.38-1.73,18.77-2.65,28.15-.75,7.51-1.5,15.02-2.74,22.48-.68,4.05-2.54,5.93-6.62,6.02-6.34,.14-12.68,.2-19.02,.23-2.96,.02-4.55-1.2-5.16-4.12-1.61-7.79-2.72-15.67-3.63-23.58-1.1-9.52-2.08-19.05-3.11-28.58,1.94-1.58,4.09-1.02,6.22-.6,.29,.09,.56,.25,.78,.46,1.04,1.22,.84,2.78,.95,4.18,.35,4.5,.95,8.99,.96,13.51-.79,1.83,8.04,13.78,7.55,15.78-.53,2.16-9.86-6.47-8.28-5.05,.59,.53,1.32,.95,1.62,1.76,1.12,4.21,1.05,8.57,1.66,13.24,.9-1.1,.6-2.07,.67-2.94,.23-2.95-.5-5.96,.52-8.87,1.63-1.26,2.92-2.91,3.77-4.78,.28-.69,.67-1.75,1.89-1.12,.98,1.4,.58,2.94,.44,4.46-.45,4.66-.77,9.32-1.16,13.99-.1,1.17-.61,3.16,.99,3.3,1.78,.15,1.2-1.87,1.39-3.03,.03-.98,.4-1.91,1.04-2.64,1.39-.7,1.87,.45,2.47,1.26,2.78,3.79,4.46,4.32,8.9,2.84,1.11-.37-7.05,2.84-7.25,1.64-.21-1.29-.3,.3-.76-.92-1.73-4.52,4.74-12.08,.23-10.46-1.04,.37-2.11,1.04-3.14-.07-.88-2.34-.76-4.93,.33-7.18,1.14-1.29,2.22-.42,3.23,.17,2.02,1.19,3.97,2.51,6.04,3.61,1.95,1.04-2.7,3.43-1.76,1.42,1.1-2.34-2.54,2.77-1.45,.42,.53-1.15-1.5-2.5-2.72-3.11-2.53-1.27,6.08-6.35,3.63-7.75-.35-.2,2.46-.13,2.07-.04-.45,.08,3.89,13.98,3.45,14.07-.94,.16-14.43,9.95-14.65,10.82-.32,1.26,3.51-18.68,2.68-17.67-.55,.66,.73-7.1,.02-8.2-.97-2.82,.14-5.61,.24-8.41,.12-3.38,.71-6.74,.81-10.14,.05-1.71,.22-3.4,1.49-4.74,.3-.13-.11-.07,.21-.13,5.69-1.06,11.4-.61,17.11-.25,.3,.02,.55,.33,.78,.56Z"/></g><g id="f" transform="translate(29.994 18.039)"><path id="g" class="av" d="M44.91,32.61l-18.06,.22c-.12-.09-.23-.17-.35-.26-1.08-2.84,.05-5.67,.06-8.51,.21-.66,.56-1.28,1.02-1.8,1.75-1.1,3.76-.82,5.67-.96,2.22-.17,4.47,.17,6.03-.17-3.21,.05-7.08,.48-10.97,.09-.24-.09-.47-.24-.66-.42-.45-.51-.55-1.24-.27-1.85,.12-.24,.36-.39,.62-.4,5.2,.32,10.35-.56,15.54-.5,2.24,.02,3.15,.76,2.84,3.02-.53,3.84-.99,7.69-1.48,11.54Z"/></g><g id="h" transform="translate(4.865 18.649)"><path id="i" class="av" d="M8.38,33.06l-6.4,.15c-.35-3.72-.76-7.43-1.03-11.16-.22-3.02,.27-3.58,3.22-3.36,5.44,.4,10.89,.33,16.33,.29,.97,0,1.93-.17,2.9-.26,.21,.16,.37,.37,.44,.62,.13,.53-.01,1.08-.38,1.48-.2,.18-.43,.32-.67,.42-5.34,.38-10.7,.43-16.05,.15,3.6,.37,8.43,.03,13.26,.13,1.06-.12,2.13,.04,3.1,.46,.24,.14,.45,.34,.6,.58,.4,3.39,.11,6.83-.85,10.11-.17,.25-.39,.45-.65,.6-2.27,.67-4.68,.73-6.98,.16-1.78-.93-1.62-2.65-1.59-4.22,.04-1.85-.88-2.35-2.54-2.32-1.32,.02-1.88,.45-1.88,1.83,0,1.48,.42,3.1-.84,4.35Z"/></g><g id="j" transform="translate(27.366 0.772)"><path id="k" class="au" d="M23.4,18.72c.19-2.09,.37-4.18,.56-6.27,.29-3.29,1.82-5.61,5.07-6.7,5.38-1.79,10.84-3.28,16.33-4.67,.84-.33,1.76-.38,2.63-.13,.89,.27,1.47,1.13,1.38,2.06-.07,1.09-.9,1.97-1.98,2.1-4.85,1.29-9.69,2.61-14.5,4.03-4.38,1.29-4.36,1.35-4.65,5.78-.08,1.21-.17,2.42-.25,3.63-.08,.08-.15,.16-.22,.24-1.35,.85-2.71,1.24-4.14,.18-.08-.08-.16-.16-.23-.25Z"/></g><g id="l" transform="translate(22.646 31.78)"><path id="m" class="ay" d="M27.06,32.83l-1.96,23.38c.2,1.76-.32,3.44-.45,5.32-.54,2.59-.72,5.23-.53,7.87,.94,1.71,.75,3.82-.48,5.33-.42,1.48-.62,3.01-.58,4.55-.08,1.45-.46,2.86-2.31,2.79s-2.17-1.41-2.06-2.93c.39-5.31,.81-10.62,1.2-15.93,.11-1.53,.16-3.06,.24-4.59-.45-.41-.69-1.02-.63-1.63,.67-6.51,.87-13.06,1.6-19.57,.18-1.61,.11-3.26,1.37-4.53l.12-.13c1.08-1.2,2.93-1.31,4.13-.23,.07,.06,.13,.13,.2,.19l.12,.11Z"/></g><g id="n" transform="translate(14.253 82.6)"><path id="o" class="ao" d="M23.76,83.03c3.01-.2,7.08,.37,11.11-.37,1.3-.24,2.42,.27,2.46,1.65,.04,1.43-1.08,2.11-2.45,2.17-3.73,.16-7.45,.37-11.18,.39-3.73,.17-7.47,.09-11.19-.25-1.28-.17-2.3-.47-2.23-1.95,.07-1.54,1.21-1.66,2.45-1.65,3.33,.03,6.66,.01,11.02,.01Z"/></g><g id="p" transform="translate(12.68 32.14)"><path id="q" class="aq" d="M8.72,33.3c1.91-1.65,3.9-1.34,5.92-.25,.59,.45,.93,1.15,.92,1.89,.01,5.07,.34,10.14-.17,15.2-.1,.28-.26,.55-.45,.78-1.31,.93-2.99,1.18-4.52,.68-.11-.09-1.24-12.29-1.7-18.3Z"/></g><g id="r" transform="translate(12.114 25.887)"><path id="s" class="aw" d="M14.58,33.24l-5.86,.06c-.14-.04-.26-.12-.34-.23-.06-1.93-.05-3.87-.21-5.79-.09-1.14,.38-1.44,1.37-1.36,.08,0,.16,0,.24,0,5.86-.01,4.78-.54,4.87,4.57-.1,.8,0,1.62,.31,2.37,.18,.41,.06,.54-.37,.39Z"/></g><g id="t" transform="translate(15.04 62.74)"><path id="u" class="aq" d="M15.05,64.5c0,3.81,0,7.61-.03,11.42,0,.94,.21,2.08-1.28,2.15-1.63,.08-1.45-1.13-1.54-2.17-.37-4.27-.75-8.54-1.12-12.81l.23-.26c1.4-.33,2.85,.35,3.49,1.64,.08,.02,.16,.03,.25,.04Z"/></g><g id="v" transform="translate(26.363 21.59)"><path id="w" class="b`" d="M26.73,32.73l-4.33,.04c.1-3.42,.42-6.83,.96-10.21,2.34-1.62,3.79-1.16,4.13,1.3l-.75,8.88Z"/></g><g id="x" transform="translate(31.326 19.99)"><path id="y" class="ap" d="M27.86,20.61c4.29-.18,8.6,.15,12.89-.49,.83-.12,2.3-.45,2.31,.96,.01,1.21-1.33,.94-2.15,.91-4.39-.2-8.75,.38-13.12,.44-.48-.39-.56-1.1-.17-1.58,.07-.09,.15-.16,.25-.23Z"/></g><g id="a`" transform="translate(26.831 19.592)"><path id="aa" class="ax" d="M27.86,20.61l-.08,1.81c-.1,.48-.2,.96-.3,1.43-.74-2.44-2.72-.97-4.12-1.3-.09-.03-.17-.05-.26-.06-.37-.58-.29-1.35,.21-1.83l.18-.06c.94-1.16,2.64-1.34,3.8-.4,.14,.11,.27,.24,.38,.38l.19,.03Z"/></g><g id="ab" transform="translate(27.448 18.701)"><path id="ac" class="b`" d="M27.67,20.58l-4.18,.02c.05-.54,.1-1.08,.16-1.62,1.36-.28,2.76-.34,4.14-.18l-.11,1.79Z"/></g><g id="ad" transform="translate(18.141 32.841)"><path id="ae" class="as" d="M14.58,33.24c.12-.13,.25-.26,.37-.39l7.33,.05c-.52,6.28-.94,12.57-1.62,18.83-.2,1.83,.25,3.75-.61,5.5,.73-4.08-.84,12.08-3.82,11.07-2.06-4.7-2.59-27.03-1.5-32.14,.08-.98,.03-1.96-.15-2.92Z"/></g><g id="af" transform="translate(6.139 20.202)"><path id="ag" class="at" d="M23.3,20.66c.15,.61,.08,1.26-.21,1.83-6.41-.04-12.82,.29-19.22-.48-.71-.08-1.64,.05-1.7-.94-.05-.88,.71-.91,1.41-.84,6.24,.69,12.5,.18,18.74,.35,.33,.01,.65,.05,.97,.08Z"/></g><g id="ah" transform="translate(3.963)"><path id="ai" class="an" d="M13.66,90.37c-1.26,.01-2.5-.38-3.51-1.13-1.61-1.21-2.51-3.28-2.69-6.16-3.21-19.2-3.69-24.02-3.62-25.37h0L.11,23.96c-.07-.48-.54-3.98,1.19-5.52,.86-.72,2.04-.91,3.09-.51h0c.4,0,14.03,.62,18.27,.1l.46-5.18h0s-.73-6.68,8.31-8.71L45.17,.3c.17-.06,2.3-.77,3.77,.21,.79,.56,1.25,1.47,1.23,2.44h0c.06,.56-.1,1.12-.43,1.57-.91,1.04-2.2,1.67-3.58,1.73l-14.26,4.02c-1.63,.08-2.89,1.46-2.81,3.09,0,.1,.01,.19,.03,.29l-.26,4.13c2.09,.11,4.18,.07,6.26-.12,8.59-.85,10.41-.33,10.93,.13,.21,.13,.39,.3,.53,.51,.79,1.17,.79,3.7,0,7.53-.38,2.79-.95,7.6-.86,8.41l-2.28,22.77c-1.57,17.04-2.18,21.19-2.51,22.32h.01l-.63,4.03c-.17,2.41-1.96,7.04-7.45,6.69l-18.26,.24c-.31,.06-.62,.09-.93,.08ZM5.36,57.97c-.04,1.93,2.2,16.17,3.67,24.94,.16,2.46,.85,4.13,2.06,5.05,.97,.68,2.16,.95,3.32,.75l18.47-.25c5.45,.36,5.82-5.05,5.83-5.28l.75-4.43c.41-1.64,1.66-14.16,2.37-21.89l2.28-22.6c.14-2.91,.44-5.81,.87-8.69,1.02-4.88,.42-6.14,.26-6.37l-.23-.04-.1-.19c-.98-.32-5.62-.12-9.54,.26-1.3,.33-6.78,.14-7.4,.12l-.82-.03,.39-5.63c-.17-1.15,.13-2.32,.84-3.24,.83-.95,1.97-1.57,3.22-1.74l14.24-4.01c2.31-.34,2.8-1.16,2.76-1.56-.06-.96-.42-1.21-.54-1.29-.78-.31-1.64-.31-2.43-.02l-2.5,.64-11.29,3.21c-7.75,1.74-7.13,7.07-7.12,7.13l-.56,6.57-.59,.12c-3.6,.71-18.78,.02-19.42,0-1.26-.33-1.65,.02-1.78,.14-.94,.84-.79,3.3-.67,4.1v.03l1.07,9.36,2.67,24.75-.08,.1Z"/></g><g id="aj" transform="translate(14.379 51.326)"><path id="ak" class="aq" d="M11.08,63.08l-.66-11.48,3.85-.26,.78,13.17"/></g><g id="al" transform="translate(27.265 68.338)"><path id="am" class="ar" d="M24.06,68.34l-.75,7.69,3.33-4.83-2.57-2.87Z"/></g></g></g></g></svg>