<?xml version="1.0" encoding="UTF-8"?><svg xmlns="http://www.w3.org/2000/svg" viewBox="0 0 78.84 80.33"><defs><style>.cl{fill:#e3a00b;}.cm{fill:#fde092;}.cn{fill:#fdfae1;}.co{fill:#e5b230;}.cp{fill:#ebdda2;}.cq{fill:#fab515;}.cr{fill:#575756;}.cs{fill:#aaac83;}.ct{fill:#d8c051;}.cu{fill:#d9be5b;}.cv{fill:#bdbfbe;}.cw{fill:#e2e0b7;}.cx{fill:#fefae1;}.cy{fill:#b3861d;}.d`{fill:#dab97c;}.da{fill:#c0c29a;}.db{fill:#e9d590;}.dc{fill:#e6da96;}.dd{fill:#cc930a;}.de{fill:#eaba54;}.df{fill:#ddbc57;}.dg{fill:#c0c297;}.dh{fill:#f4f4d9;}.di{fill:#fdf9df;}.dj{fill:#fef9df;}.dk{fill:#fefae0;}.dl{fill:#dfbd42;}.dm{fill:#e1e0b7;}.dn{fill:#fdf9e0;}.do{fill:#f9db5e;}.dp{fill:#e2a10b;}.dq{fill:#edd982;}.dr{fill:#debb49;}.ds{fill:#e1bf41;}.dt{fill:#d7d7ba;}.du{fill:#ebce60;}.dv{fill:#e2a009;}</style></defs><g id="a"/><g id="b"><g id="c"><g id="d" transform="translate(-98.116 -87.878)"><g id="e" transform="translate(98.116 87.878)"><g id="f" transform="translate(0.678 0.814)"><path id="g" class="cw" d="M6.88,36.31c-.94-.45-.45-1.31-.49-1.96-.07-1.18-.25-2.02-1.64-2.39-1.99-.52-2.85-2.39-3.37-4.05-.96-3.05-1.19-6.22,.9-9.05,2.3-3.11,5.5-4.01,9.17-3.54,1.12,.14,1.74,.35,1.5-1.24-.73-3.79,1.18-7.59,4.66-9.25,2.51-1.27,5.44-1.38,8.04-.3,.9,.41,1.97,.24,2.69-.45C32.92,.06,39.67-.28,44.64,3.26c2.97,2.09,4.84,5.41,5.08,9.03,.15,2.02,.1,2.03,2.19,2.01,3.93-.05,7.38,2.61,8.32,6.43,.54,2.57-.27,5.23-2.16,7.05-.23,.25-.58,.39-.65,.77-.37,.36-.12,.93-.46,1.3-.49,.26-1.04,.39-1.59,.39-1.27,.58-2.75,.67-3.82,1.69-4.38,.85-7.82-1.13-11.15-3.73-.73,3.65-2.58,6.16-6.51,6.55-.15-.05-.28-.13-.39-.25-.24-.31-.33-.7-.27-1.08,.11-.91,1.41,3.22,.47,2.86-.52-.2-.47-1.6-.96-1.28-.58,.38-.25,2.66-.13,3.11,.15,.57-1.29-2.76-1.51-2.17-.56,1.39-.74,1.36-.41,2.73,.28,2.05,.39,4.13,.35,6.2-.16,2.48-1.42,4.36-3.32,4.91-.94-.2-2.29,.64-2.64-1.05,.35-.81,.18-1.75-.43-2.39-.95-1.39-1.43-3.06-1.36-4.75-.02-2.66,0-5.32-.01-7.97,0-.35,0-.69-.03-1.03-.04-.29-.06-.64-.39-.73-.38-.11-.47,.26-.63,.5-.44,.82-.79,1.69-1.05,2.59-.24,.63-.37,1.36-1.16,1.6-.25,.04-.5-.02-.7-.16-.58-.76-.64-1.79-.16-2.61,.15-.36,.41-.66,.33-1.08-.21-.86,.14-1.74-.03-2.72-.84,.18-1.48,.83-2.32,.86-.66-.2-1.37,.13-1.65,.76-1.91,1.03-4.03,1.61-6.19,1.7-1.89,.19-1.9,.1-1.9,2.03,0,.25-.06,.49-.17,.71-.08,.13-.2,.23-.35,.28Z"/></g><g id="h" transform="translate(6.884 30.036)"><path id="i" class="cq" d="M19.96,32.47c.1,1.31-.81,2.48-.54,3.82,.14,.37,.07,.78-.19,1.08-1.46,.71-1.76,2.1-1.83,3.47-.26,5.7,1.09,11.36,3.92,16.32,.99,1.88,2.24,3.61,3.7,5.15,.4,.44,.85,.82,1.34,1.15,.63,.54,1.57,.47,2.12-.16l.02-.02c.56-.57,.56-1.49-.02-2.06-.02-.02-.05-.05-.08-.07-1.16-1.28-2.24-2.63-3.21-4.07-1.03-1.27-1.69-2.8-1.88-4.43,.28-.82,.97-.94,1.68-.94,4.49,0,6.16-2.63,6.31-6.71,.09-2.38-1.14-7.28-1.21-9.65,.1-.59,1.05-.81,1.56-.82,.76-.01,.5,.45,.94,0,.76-.48,2.67,1.15,3.5,1.13,1.75,.06,3.29-1.14,3.67-2.84,.92-3.69,1.16-3.34,3.94-1.28,3.42,2.54,7.23,3.79,11.5,2.08,.53-.28,1.14-.35,1.72-.21,1.25,.58,.78,2.03,1.49,2.89,.13,1.25-.03,2.55,.76,3.67,.21,3.89,.1,7.78,.07,11.68,0,.82-.56,1.46-.67,2.25,.04,.43,0,.86-.11,1.27-.46,.72-.68,1.57-.62,2.42-.08,.28-.22,.55-.41,.78-.67,.33-.68,1.13-1.16,1.6-.86,2.81-2.52,5.3-4.78,7.18-1.15,.57-2.12,1.44-2.81,2.53-.16,.14-.35,.23-.56,.27-.87-.07-1.32,.61-1.9,1.05-.19,.1-.4,.16-.61,.15-.66-.08-1.31,.25-1.62,.84-1.26,.68-2.66,1.06-4.09,1.12-2.92,.04-5.84,.05-8.76,0-1.48-.07-2.93-.44-4.26-1.08-.43-.6-1.13-.94-1.87-.92-.14-.03-.27-.07-.39-.14-.47-.48-1.11-.36-1.68-.48-.46-.13-.55-.59-.81-.9-4.85-2.62-8.85-6.56-11.55-11.36-.98-1.21-1.6-2.68-1.79-4.23l-.66-2.28-.02-1.11c-.42-.56-.08-1.33-.53-1.89l-.57-2.41c-.04-3.34-.08-6.68-.12-10.03,.05,0,.1,0,.15-.03,.33-.81,1.03-.86,1.74-.8,3.03,.28,5.7-.81,8.33-2.11,.9-.45,1.71-1.24,2.86-.9Z"/></g><g id="j" transform="translate(56.606 29.063)"><path id="k" class="dg" d="M58.54,39.79c-.82-1.06-.29-2.33-.52-3.48-.29-.5-.36-1.1-.19-1.65,3.57-1.5,7.12-2.18,10.63,.18,.6,.4,1.38,1.38,1.96,.4,.46-.77-.62-1.29-1.24-1.72-2.63-1.94-6.06-2.43-9.14-1.31-.81,.36-1.47,.98-1.86,1.77-.88,.39-1.02-.26-1.13-.85-.12-.62,.07-1.29-.31-1.87-.07-.13-.12-.26-.14-.41-.02-.21,.04-.43,.16-.6,.36-.38,.92-.18,1.33-.43,3.76-.89,7.51-1.16,11.23,.19,6.87,2.41,10.48,9.93,8.07,16.8-.31,.88-.71,1.73-1.2,2.53-3.64,6.17-9.35,8.94-16.1,10.07-1.05,.3-2.14,.4-3.22,.3-.55-.59-.15-1.02,.25-1.44l.28-.67c.13-.06,.28-.07,.42-.02,2.15,.1,4.3-.15,6.36-.74,3.53-1.02,6.7-2.63,8.93-5.71,1.97-2.42,2.62-5.66,1.74-8.65-.03,1.75-1.55,4.84-3.02,6.59-2.45,2.9-5.62,4.79-8.86,6.6-.95,.53-1.89,1.1-2.88,1.53-.69,.3-1.43,.97-2.25,.21-.19-.72-.12-1.49,.18-2.17l.1-1.19c.52-.53,1.2-.88,1.93-1,4.44-1.33,7.85-4.91,8.97-9.41,.97-3.45-2.24-6.75-5.19-6.77-1.29-.01-2.54,.24-3.81,.32-.43-.11-.82-.18-.75,.5-.09,.75,.18,1.63-.73,2.09Z"/></g><g id="l" transform="translate(22.126 68.813)"><path id="m" class="da" d="M22.12,69.61l.85,.56c.5,.5,1.33,0,1.8,.59v-.02c.6,.57,1.51,.01,2.09,.61,1.22,.69,2.59,1.06,3.99,1.09,3.05,.16,6.12,.12,9.18,0,1.34-.02,2.66-.39,3.82-1.06,.44-.65,1.28-.11,1.77-.61l.54-.07c.64-.33,1.18-.82,1.84-1.13l.52-.07c.38-.19,.46-1.06,1.17-.53,0,2.62,.03,5.24,.01,7.86-.01,1.31-.58,2.19-2.02,2.21-7.32,.14-14.63,.68-21.95,.59-.44,0-.89,0-1.33-.04-1.06,.09-1.98-.7-2.07-1.76-.01-.13,0-.27,0-.4-.02-2.62-.14-5.23-.21-7.84Z"/></g><g id="n" transform="translate(48.518 67.176)"><path id="o" class="ds" d="M49.68,68.98c-.5-.07-.64,.65-1.17,.53,.46-1.46,1.64-2,2.98-2.34-.38,.83-1.38,1.03-1.81,1.8Z"/></g><g id="p" transform="translate(56.734 28.558)"><path id="q" class="dh" d="M58.1,29.81c-.28,.37-.71,.61-1.17,.64-.21-.15-.26-.43-.14-.64,.1-.47-.05-1.06,.62-1.25,.06,.51,0,1.09,.69,1.25Z"/></g><g id="r" transform="translate(56.267 58.259)"><path id="s" class="de" d="M57.12,58.26l-.25,1.44c-.11,.22-.36,.35-.6,.3,.12-.66-.4-1.64,.85-1.74Z"/></g><g id="t" transform="translate(7.566 48.737)"><path id="u" class="du" d="M7.57,48.74c.73,.47,.57,1.19,.53,1.89-.78-.46-.46-1.23-.53-1.89Z"/></g><g id="v" transform="translate(33.261 27.002)"><path id="w" class="dv" d="M56.87,33.63c-3.96,2.19-7.84,1.59-11.7-.29-1.46-.86-2.82-1.89-4.04-3.06-.34,.8-.57,1.64-.68,2.5-.41,2.16-2.36,3.67-4.55,3.51-.74,0-1.48,0-2.22,0-.48-.36-.58-1.05-.22-1.53,.06-.08,.14-.16,.22-.22,1.62-.41,3.11-1.23,4.32-2.39,1.02-1.14,1.6-2.6,1.66-4.12,.03-.36-.14-.89,.35-1.01,.34-.09,.57,.32,.82,.56,2.74,2.92,6.7,4.37,10.68,3.91,1.23-.4,2.44-.87,3.62-1.4,.74-.06,1.5-.13,1.74,.84h0c.42,.86,.42,1.87-.02,2.72Z"/></g><g id="x" transform="translate(18.995 30.73)"><path id="y" class="cn" d="M20.02,36.29c.74-1.45,.91-3.11,1.75-4.53,.31-.52,.51-1.18,1.25-1,.67,.17,.83,.83,.85,1.43,.04,2.03,.01,4.05,.05,6.08,.04,2.4-.29,4.83,.82,7.14,.24,.47,.57,.88,.97,1.23,.74,.72,.95,1.44-.33,1.84-.17,.17-.38,.3-.61,.37-1.67-.06-3.18-1-3.96-2.47-.53-.77-.95-1.62-1.27-2.5-.39-1.47-.21-2.99-.5-4.48-.22-1.14,.46-2.12,.98-3.09Z"/></g><g id="a`" transform="translate(25.056 14.021)"><path id="aa" class="dk" d="M25.07,22.55c.21-4.89,4.34-8.68,9.23-8.47,.79,.03,1.58,.17,2.33,.42,.69,.25,1.76,.46,1.64,1.44-.13,1.07-1.24,1.23-2.1,1.29-2.95,.21-5.16,1.78-7.15,3.75-.61,.71-1.16,1.46-1.66,2.25-.45,.61-.77,1.64-1.71,1.33-.97-.32-.41-1.38-.57-2.01Z"/></g><g id="ab" transform="translate(16.818 5.455)"><path id="ac" class="dn" d="M16.81,12.21c.36-5.71,5.68-7.92,9.12-6.16,.65,.33,1.46,.65,1.38,1.55-.08,.92-1,.85-1.63,1-3.62,.83-5.23,2.56-5.67,6.19-.06,.5-.11,1.03-.66,1.23-.64,.23-1.06-.2-1.36-.65-.65-.93-1.06-2.02-1.18-3.15Z"/></g><g id="ad" transform="translate(30.73 2.153)"><path id="ae" class="dj" d="M37.91,2.15c1.6,.48,3.52,1.05,4.66,2.93,.44,.51,.47,1.25,.07,1.79-.44,.52-.98,.22-1.5,.03-2.84-1.26-6.18-.53-8.24,1.8-.43,.45-.87,1.13-1.6,.71-.7-.4-.62-1.18-.52-1.87,.48-3.2,3.26-5.41,7.12-5.39Z"/></g><g id="af" transform="translate(6.553 29.005)"><path id="ag" class="cl" d="M19.96,32.47c-2.86,1.9-6.09,3.18-9.47,3.75-1.14,.2-2.31-.63-3.46,.05-.21-1.11-.79-2.41-.26-3.32,.58-.99,1.97-.17,3-.3,1.89-.3,3.75-.75,5.57-1.37,.33-.8,1.23-.51,1.77-.91,.77-.28,1.49-.68,2.15-1.18,.72-.38,1.12-.21,1.02,.67s-.21,1.73-.32,2.6Z"/></g><g id="ah" transform="translate(44.623 16.976)"><path id="ai" class="cx" d="M53.66,20.87c-2.48,.01-4.91,.7-7.03,1.98-.47,.27-.96,.96-1.57,.46-.67-.55-.44-1.38-.23-2.07,.85-2.76,4.41-4.75,7.38-4.14,1.27,.21,2.45,.82,3.36,1.73,.42,.44,.87,.88,.56,1.55-.29,.61-.91,.49-1.44,.5-.35,0-.69,0-1.04,0Z"/></g><g id="aj" transform="translate(4.856 18.201)"><path id="ak" class="di" d="M4.85,22.63c.18-1.7,1.29-3.15,2.88-3.78,1.52-.92,3.43-.87,4.9,.13,.4,.28,.84,.61,.78,1.17-.07,.63-.59,.85-1.12,1.04-1.23,.36-2.35,1.01-3.29,1.89-.62,.56-1.03,1.32-1.18,2.14-.15,1.13-.68,1.41-1.71,.72-1.17-.79-1.2-1.94-1.26-3.32Z"/></g><g id="al" transform="translate(22.271 37.492)"><path id="am" class="dp" d="M31.34,37.77c.64,2.98,.77,6.05,.37,9.07-.21,2.71-1.73,4.16-3.97,5.21-.9,.27-1.84,.37-2.77,.29-.52,.03-1.14-.17-1.35,.58-1.05-.04-.78-1.03-1.14-1.57-.28-.5-.27-1.12,.03-1.61,.23-.28,.63-.36,.94-.17,1.5,.84,2.93,.2,4.38-.17,1.62-.95,2.6-2.72,2.55-4.6,.02-2.15-.06-4.3-.25-6.44-.03-1.13,.56-.94,1.23-.58Z"/></g><g id="an" transform="translate(18.172 36.289)"><path id="ao" class="cp" d="M20.02,36.29c-.55,2.54-.55,5.18,.01,7.72,.15,.62,.49,1.23,.03,1.85-.51,.21-.82-.07-1.1-.45-1.08-1.47-1.04-6.8,.06-8.27l.41-.85h.59Z"/></g><g id="ap" transform="translate(21.735 48.383)"><path id="aq" class="dc" d="M27.81,49.39c-1.61,1.6-3.36,1.2-5.14,.34-.67,.02-.98-.31-.94-.97,.67-.69,1.36-.3,1.97,.06,.57,.34,.82,.06,1.11-.33l.56-.03c.3,1.66,1.64,.57,2.44,.92Z"/></g><g id="ar" transform="translate(51.526 29.789)"><path id="as" class="db" d="M55.09,30.36c-1.14,.53-2.18,1.37-3.57,1.12,1.06-1.11,2.55-1.24,3.89-1.69,.12,.32-.17,.41-.32,.57Z"/></g><g id="at" transform="translate(55.095 29.66)"><path id="au" class="dr" d="M55.09,30.36l.32-.57c.46-.02,.93-.29,1.38,.01,.04,.21,.09,.43,.13,.64-.01,.16-.03,.32-.04,.47-.46-.49-1.14-.7-1.8-.56Z"/></g><g id="av" transform="translate(15.337 30.342)"><path id="aw" class="dq" d="M17.1,30.37c-.41,.65-1.13,.69-1.77,.91,.02-1.4,1.09-.78,1.77-.91Z"/></g><g id="ax" transform="translate(42.906 35.4)"><path id="ay" class="dd" d="M52.14,43.23c-.05,6.98-1.73,13.85-4.92,20.05-.46,1.26-1.85,1.9-3.11,1.45l-.06-.02c-1.12-.49-1.5-2.12-.81-3.52,3.28-6.67,4.79-14.07,4.38-21.5-.03-.54-.18-1.07-.24-1.6-.15-1.26,.7-2.43,1.95-2.68,1.24-.08,2.33,.82,2.48,2.06,.28,1.9,.39,3.83,.32,5.76Z"/></g><g id="b`" transform="translate(31.693 38.353)"><path id="ba" class="dd" d="M39.64,45.28c-.17,5.74-.76,11.41-3,16.78-.27,.64-.59,1.24-.98,1.81-.56,.95-1.78,1.28-2.74,.74-1.02-.52-1.5-1.7-1.13-2.78,.4-1.32,.88-2.61,1.45-3.87,1.2-3.61,1.76-7.4,1.68-11.2,.03-2.08,0-4.15-.04-6.23-.15-1.04,.57-1.99,1.61-2.14,.1-.01,.21-.02,.31-.02,1.2-.12,2.14,.18,2.38,1.6,.35,1.75,.51,3.53,.48,5.31Z"/></g><g id="bb" transform="translate(16.769 37.14)"><path id="bc" class="dd" d="M19.02,37.14c-.1,2.66-.6,5.35,.4,7.96,.12,.32,.19,.67,.57,.79,.34,.17,.57,.5,.61,.87,.06,1.72,1.17,2.97,1.99,4.35,.07,.11,.26,.11,.41,.04,.57,.46,.07,1.3,.63,1.76,1.28,2.94,3.1,5.61,5.36,7.89,.82,.73,.9,1.98,.19,2.81-.66,.97-1.99,1.22-2.96,.56-.07-.05-.13-.1-.2-.15-1.5-1.13-2.78-2.54-3.76-4.15-3.78-5.54-5.69-12.13-5.45-18.83,.07-1.6,.16-3.35,2.22-3.9Z"/></g><g id="bd" transform="translate(9.314 36.968)"><path id="be" class="cm" d="M17.12,55.26c.96,1.69,1.95,3.36,2.87,5.08,.19,.36,.26,.99-.15,1.24-.48,.3-.8-.25-1.06-.56-3.24-3.86-6.39-7.8-7.98-12.68-1.05-2.73-1.54-5.64-1.46-8.56,.04-1.56,1.31-2.8,2.87-2.81,1.44,.07,2.55,1.29,2.48,2.73,0,.02,0,.05,0,.07,.05,1.97-.46,3.92-.2,5.91,.29,2.69,.95,5.33,1.97,7.83,.41,.51,.06,1.31,.65,1.75Z"/></g><g id="bf" transform="translate(56.877 30.927)"><path id="bg" class="dr" d="M56.87,33.63c0-.9,.01-1.8,.02-2.71,.95,.05,.42,.79,.55,1.21,.18,.61-.3,1.42,.55,1.83,.16,.08,.22,.28,.14,.44-.02,.04-.04,.07-.07,.1l-.04,1.8c-1.03-.61-.32-1.97-1.15-2.67Z"/></g><g id="bh" transform="translate(57.405 55.237)"><path id="bi" class="d`" d="M57.76,57.67l-.36-.09c.25-.77-.45-1.79,.62-2.35l.02,2.41c-.08,.15-.17,.16-.28,.03Z"/></g><g id="bj" transform="translate(46.164 69.563)"><path id="bk" class="df" d="M47.99,69.59c-.25,.78-1.03,1.26-1.83,1.13,.23-.79,1.02-1.28,1.83-1.13Z"/></g><g id="bl" transform="translate(24.781 70.716)"><path id="bm" class="dl" d="M26.85,71.35c-.7-.18-1.62,.4-2.08-.61,.74,.05,1.59-.3,2.08,.61Z"/></g><g id="bn" transform="translate(22.971 70.131)"><path id="bo" class="cu" d="M24.76,70.76c-.63-.1-1.44,.35-1.8-.59,.64,.09,1.46-.41,1.8,.59Z"/></g><g id="bp" transform="translate(43.849 70.715)"><path id="bq" class="ct" d="M45.62,70.79c-.36,.88-1.15,.5-1.77,.61,.28-1.1,1.15-.51,1.77-.61Z"/></g><g id="br" transform="translate(16.455 53.507)"><path id="bs" class="do" d="M17.12,55.26c-1.05-.27-.51-1.14-.66-1.75,.48,.45,.72,1.1,.66,1.75Z"/></g><g id="bt" transform="translate(57.762 41.468)"><path id="bu" class="cs" d="M57.76,57.67c.1,0,.19-.02,.28-.03,3.39-1.59,6.64-3.48,9.7-5.63,3.06-2.36,5.4-4,6.99-10.55,1.1,1.44,1.48,3.29,1.04,5.05-1.09,5.07-4.33,8.18-9.02,10.03-2.42,1.12-5.08,1.61-7.74,1.43-.44-.05-.9,.06-1.26-.3Z"/></g><g id="bv" transform="translate(57.982 30.962)"><path id="bw" class="dt" d="M58.06,34.5l-.06-.54c-.19-1.09,.54-2.12,1.63-2.31,.04,0,.08-.01,.12-.02,2.36-.62,4.74-1.11,7.09-.07,1.43,.52,2.75,1.32,3.86,2.36,.61,.64,1.05,1.33,.33,2.04-.6,.58-1.56,.57-2.15-.03-1.7-1.53-3.98-2.27-6.26-2.03-.64,.02-1.27,.16-1.85,.42-.83,.47-1.82,.54-2.71,.18Z"/></g><g id="bx" transform="translate(58.684 36.336)"><path id="by" class="cv" d="M59.8,36.8l-1.12,.42c0-.33-.07-.72,.36-.84,.27-.13,.59-.01,.71,.26,.03,.05,.04,.11,.05,.17Z"/></g><g id="c`" transform="translate(25.436 74.549)"><path id="ca" class="dt" d="M46.46,75.99c-.03,.99-.61,1.24-1.56,1.31-4.64,.31-9.29,.25-13.93,.29-1.37,.09-2.75,.09-4.12,0-.71-.08-1.31-.3-1.4-1.05-.11-.81,.46-1.26,1.14-1.54,.24-.08,.48-.11,.73-.09,5.84,.1,11.66-.49,17.5-.32,.99,.03,1.64,.27,1.64,1.41Z"/></g><g id="cb" transform="translate(19.983 44.011)"><path id="cc" class="dm" d="M20.05,46.83l-.07-.94,.05-1.88c1.08,2.04,2.22,4.02,4.78,4.49,.1,.52,.2,1.03,.32,1.66-1.2-.42-2.07-1.46-3.37-1.36-1.32,0-1.12-1.32-1.72-1.96Z"/></g><g id="cd" transform="translate(20.057 46.833)"><path id="ce" class="cy" d="M20.05,46.83c.7,.54,.93,1.5,1.72,1.96l.9,.94c.07,.48-.05,1,.31,1.42-1.28,.64-1.52-.69-1.85-1.22-.61-.93-.98-1.99-1.08-3.1Z"/></g><g id="cf" transform="translate(31.036 34.562)"><path id="cg" class="co" d="M31.91,34.6s0,.1,0,.15c-.07,.49,.27,1.09-.35,1.42-.17,.08-.37,0-.44-.17,0-.02-.01-.03-.02-.05-.25-.63,.27-.96,.55-1.39,.09,0,.18,0,.26,.04Z"/></g><g id="ch"><path id="ci" class="cr" d="M24.41,80.33c-.97-.05-1.86-.51-2.45-1.28-.32-.49-.44-1.08-.35-1.66l-.19-7.35c-7.53-4.09-12.52-11.2-14.46-20.58-.85-4.19-1.09-8.49-.7-12.75-.13-.1-.25-.22-.34-.36-.42-.88-.52-1.88-.28-2.83,0-.68-.96-.86-1.01-.87l-.21-.07C-1.55,29.32,.25,21.48,.27,21.4c1.53-4.8,6.39-7.7,11.34-6.78,.53,.19,.68,.13,.68,.13,.12-.52,.07-1.07-.13-1.56-.05-1.12,.05-2.24,.3-3.33C16.77,.44,25.24,3.64,25.32,3.67c1.69,.77,2.39,.04,2.47-.04C32.65-.85,39.47,.06,39.76,.1c5.73,1.45,9.97,6.27,10.68,12.14l.05,.68c0,.27,.12,.53,.33,.71,.27,.1,.57,.1,.84,0l.22-.05c2.34-.02,4.6,.84,6.35,2.4,1.66,1.27,2.72,3.18,2.92,5.26,.3,3.73-2.41,6.88-2.53,7.01l-.16,.14c-.12,.07-.18,.14-.19,.21,0,.15,.06,.3,.15,.42,6.65-1.15,11.83-.21,15.42,2.8,5.02,4.21,5.02,10.85,5.02,11.13-1.5,15.89-19.85,17.34-21.78,17.45l-.12,.06c-.58,3.62-5.33,7.83-6.54,8.85l.02,6.43c.23,1.14-.02,2.33-.7,3.28-.3,.36-.74,.57-1.21,.59l-24.11,.71ZM5,31.28c1.16,.22,2.01,1.22,2.04,2.4-.16,.61-.15,1.25,.04,1.85l.71,.1-.06,.74c-.03,.23-3.05,23.28,14.72,32.6l.37,.2,.22,8.36-.03,.1c-.03,.23,.02,.46,.14,.65,.34,.38,.82,.61,1.33,.63l23.99-.72c.18-.03,.68-.52,.5-2.37l-.03-7.18,.27-.22c1.69-1.37,6.13-5.55,6.32-8.47l.03-.41,1.27-.56c3.38-.2,6.7-.97,9.83-2.26,6.51-2.76,10.12-7.42,10.73-13.84,0,0-.02-6.21-4.52-9.97-3.33-2.78-8.26-3.59-14.65-2.4l-.38,.07-.27-.27c-.5-.49-.77-1.17-.76-1.87,.06-.49,.34-.92,.76-1.19,.37-.45,2.35-3.04,2.12-5.89-.18-1.71-1.07-3.26-2.45-4.29-1.44-1.28-3.29-2.01-5.22-2.04-.65,.22-1.36,.16-1.97-.15-.61-.4-.99-1.07-1.01-1.8l-.06-.71c-.58-5.26-4.39-9.6-9.53-10.85h0s-6.38-.82-10.65,3.1h0s-1.33,1.64-4.07,.38c-.26-.1-7.26-2.7-10.95,5.34-.18,.85-.27,1.71-.25,2.57,.08,.2,.62,2.03-.28,2.89-.58,.48-1.4,.56-2.07,.2-.19-.03-6.81-1.41-9.57,5.83-.04,.2-1.51,6.69,3.38,9.46Z"/></g></g><g id="cj" transform="translate(155.539 123.949)"><path id="ck" class="cr" d="M57.42,54.57l.7-1.39c.36-.97,.51-2,.46-3.03l-.13-10.27,.04-.11c.17-.64,.19-1.31,.07-1.96-.03-.48,.19-.95,.58-1.23,.26-.16,.58-.21,.87-.13,.91-.24,4.35-.99,6.97,.68,1.7,1.16,2.77,3.04,2.91,5.09v.14c-.72,5.9-5.15,10.67-10.97,11.83l-1.51,.37Zm2.47-14.47l.12,10.04c.01,.78-.06,1.56-.2,2.32,4.63-1.37,8.03-5.33,8.66-10.12-.11-1.6-.94-3.07-2.25-4-2.43-1.54-5.97-.47-6-.46l-.2,.06c.09,.72,.04,1.46-.14,2.16h0Z"/></g></g></g></g></svg>