<?xml version="1.0" encoding="UTF-8"?><svg xmlns="http://www.w3.org/2000/svg" viewBox="0 0 41.95 18.78"><defs><style>.d{fill:#043f46;}</style></defs><g id="a"/><g id="b"><g id="c"><path class="d" d="M14.72,1c.21,0,.41,.17,.41,.41v2.94c0,.06,.05,.11,.11,.11h25.59c.06,0,.11,.05,.11,.11V14.21c0,.06-.05,.11-.11,.11H15.24c-.06,0-.11,.05-.11,.11v2.94c0,.24-.2,.41-.41,.41-.07,0-.14-.02-.21-.06L1.05,9.49c-.07-.04-.07-.15,0-.19L14.51,1.06c.07-.04,.14-.06,.21-.06m0-1h0c-.26,0-.51,.07-.73,.21L.53,8.44c-.33,.2-.53,.56-.53,.95s.2,.75,.53,.95l13.45,8.23c.22,.14,.48,.21,.73,.21,.78,0,1.41-.63,1.41-1.41v-2.05h24.71c.61,0,1.11-.5,1.11-1.11V4.57c0-.61-.5-1.11-1.11-1.11H16.13V1.41C16.13,.63,15.5,0,14.72,0h0Z"/></g></g></svg>