<?xml version="1.0" encoding="utf-8"?>
<!-- Generator: Adobe Illustrator 26.1.0, SVG Export Plug-In . SVG Version: 6.00 Build 0)  -->
<svg version="1.1" id="Capa_1" xmlns="http://www.w3.org/2000/svg" xmlns:xlink="http://www.w3.org/1999/xlink" x="0px" y="0px"
	 viewBox="0 0 43.1 43.1" style="enable-background:new 0 0 43.1 43.1;" xml:space="preserve">
<style type="text/css">
	.st0{fill:#006B67;}
</style>
<g id="a">
</g>
<g id="b">
	<g id="c">
		<path class="st0" d="M22,0c0.6,0.2,1.3,0.4,1.8,0.8c1.2,0.8,1.6,2,1.6,3.4c0,4.1,0,8.3,0,12.4c0,0.9,0.2,1.1,1.1,1.1
			c4.1,0,8.3,0,12.4,0c1.1,0,2.1,0.3,2.9,1c1.2,1.2,1.5,2.5,1,4.1c-0.4,1.3-1.8,2.4-3.2,2.5c-0.4,0-0.9,0.1-1.3,0.1c-4,0-8,0-11.9,0
			c-0.9,0-1.1,0.2-1.1,1.1c0,4.2,0,8.3,0,12.5c0,1.1-0.3,2-1,2.8c-1,1.1-2.6,1.6-4.1,1.1c-1.4-0.5-2.5-1.7-2.6-3.2
			c0-0.4-0.1-0.8-0.1-1.1c0-4,0-8,0-12c0-0.9-0.2-1.1-1.1-1.1c-4.2,0-8.3,0-12.5,0c-1,0-2-0.2-2.8-0.9c-0.7-0.6-1.2-1.4-1.3-2.3
			c0-0.1,0-0.1-0.1-0.2c0-0.3,0-0.6,0-0.8C0,21.1,0.1,21,0.1,21c0.2-0.9,0.6-1.7,1.3-2.3c0.8-0.7,1.8-0.9,2.8-0.9
			c4.1,0,8.3,0,12.4,0c0.9,0,1.1-0.2,1.1-1.1c0-4.1,0-8.3,0-12.4c0-1.4,0.4-2.6,1.6-3.4c0.5-0.4,1.2-0.5,1.8-0.8H22L22,0z"/>
	</g>
</g>
</svg>
