<?xml version="1.0" encoding="UTF-8"?><svg xmlns="http://www.w3.org/2000/svg" viewBox="0 0 99.13 84.81"><defs><style>.h{fill:#fff;}</style></defs><g id="a"/><g id="b"><g id="c"><g id="d" transform="translate(0 0)"><g id="e"><path id="f" class="h" d="M0,42.44H14.09c-.04-12.81,5.76-24.94,15.75-32.96C37.31,3.3,46.72-.06,56.42,0c23.42-.17,42.54,18.68,42.71,42.1,.17,23.42-18.68,42.54-42.1,42.71-9.45,.07-18.66-3.03-26.15-8.79l6.77-6.52c14.93,10.51,35.55,6.93,46.05-8,10.51-14.93,6.93-35.55-8-46.05-14.93-10.51-35.55-6.93-46.05,8-3.91,5.55-6.01,12.16-6.03,18.95h13.77l-18.89,18.91c-.09-.26-.22-.51-.39-.73-5.75-5.78-11.52-11.55-17.31-17.31-.25-.23-.52-.45-.8-.64v-.18Z"/><path id="g" class="h" d="M66.01,42.51c-.05,5.2-4.31,9.37-9.5,9.32s-9.37-4.31-9.32-9.5c.05-5.2,4.3-9.37,9.5-9.32,5.2,.05,9.37,4.3,9.32,9.5h0Z"/></g></g></g></g></svg>