<svg xmlns="http://www.w3.org/2000/svg" xmlns:xlink="http://www.w3.org/1999/xlink" viewBox="0 0 56.16 56.88"><defs><style>.cls-1{fill:none;}.cls-2{clip-path:url(#clip-path);}.cls-3{fill:#deecf1;}.cls-4{fill:#ed710a;}.cls-5{fill:#544440;}.cls-6{fill:#f6a414;}.cls-7{fill:#c6e2e6;}</style><clipPath id="clip-path"><rect class="cls-1" width="56.16" height="56.88"/></clipPath></defs><g id="Capa_2" data-name="Capa 2"><g id="Capa_1-2" data-name="Capa 1"><g id="Grupo_115" data-name="Grupo 115"><g class="cls-2"><g id="Grupo_112" data-name="Grupo 112"><path id="Trazado_536" data-name="Trazado 536" class="cls-3" d="M10.2,47a0,0,0,0,1,0,0v0l.06,0ZM38.36,7.5a.08.08,0,0,0-.1,0l-24,24c-.1.2,0,.37.24.6q4.84,4.78,9.63,9.62c.3.3.48.34.75.12l.12-.12Q36.69,30,48.45,18.25c.09-.1.19-.19.26-.28a.08.08,0,0,0,0-.11h0Zm11.86,7.25Q45.65,10.17,41,5.59c-.24-.24-.33-.4-.28-.58L38.26,7.49l-24,24-1,1-.55,2.62a.09.09,0,0,1,.13,0l8.53,8.53,0,0a.13.13,0,0,1,0,.06l2.26-.67,1.25-1.25.12-.11L51.84,14.89c-.79.7-.79.7-1.62-.13"/><path id="Trazado_537" data-name="Trazado 537" class="cls-4" d="M38.31,7.44,48.78,17.91a3.72,3.72,0,0,1-.31.35Q36.73,30,25,41.76c-.35.35-.53.34-.88,0q-4.79-4.84-9.62-9.63c-.33-.33-.39-.52,0-.88Q26.24,19.51,38,7.73l.31-.29M21.4,33.1h0a1.69,1.69,0,0,0,.83,1.39,1.64,1.64,0,0,0,2.14-.44Q32.64,25.8,40.9,17.52a3.19,3.19,0,0,0,.5-.6,1.43,1.43,0,0,0,0-1.53,1.48,1.48,0,0,0-1.37-.79,1.83,1.83,0,0,0-1.33.7Q33,21,27.23,26.81c-1.7,1.7-3.41,3.39-5.09,5.12a5.88,5.88,0,0,0-.73,1.17"/><path id="Trazado_538" data-name="Trazado 538" class="cls-5" d="M43.67,3a14.82,14.82,0,0,1,2.17.8,16.78,16.78,0,0,1,6.59,6.67,6.66,6.66,0,0,1,.31.73A3.13,3.13,0,0,1,52,15c-.91.83-.88.87-1.75,0L40.94,5.63c-.37-.37-.4-.61,0-.94s.53-.52.8-.78a2.54,2.54,0,0,1,1.92-.86"/><path id="Trazado_539" data-name="Trazado 539" class="cls-6" d="M21.45,43.81,10.11,47.08l2.58-12,8.76,8.77"/></g></g></g><path id="Exclusión_1" data-name="Exclusión 1" class="cls-7" d="M21.25,33h0a1.79,1.79,0,0,0,.88,1.47A1.75,1.75,0,0,0,24.4,34L41.91,16.5a4,4,0,0,0,.52-.63,1.49,1.49,0,0,0,0-1.62A1.56,1.56,0,0,0,41,13.41a2,2,0,0,0-1.41.75L27.42,26.35c-1.8,1.8-3.61,3.59-5.39,5.42A7.6,7.6,0,0,0,21.25,33"/></g></g></svg>