<svg xmlns="http://www.w3.org/2000/svg" viewBox="0 0 36.41 47.76"><defs><style>.cls-1{fill:#544440;}.cls-2{fill:#6a5650;}.cls-3{fill:#ed710a;}.cls-4{fill:#f6a414;}.cls-5{fill:#c6e2e6;}.cls-6{fill:#deecf1;}</style></defs><g id="Capa_2" data-name="Capa 2"><g id="Capa_1-2" data-name="Capa 1"><g id="Capa_1-3" data-name="Capa 1"><path id="Trazado_515" data-name="Trazado 515" class="cls-1" d="M21.77,0a6,6,0,0,1,2,1A4.17,4.17,0,0,1,25.22,4.1c0,.5,0,1,0,1.49a.31.31,0,0,1-.2.11,11,11,0,0,1-2.56,0c-.22-.19-.17-.46-.17-.7,0-1.69-.36-2-2.07-2H18.73a.68.68,0,0,1-.56-.16A6.47,6.47,0,0,1,18.23,0Z"/><path id="Trazado_516" data-name="Trazado 516" class="cls-2" d="M18.22,0V2.78c-.14.18-.36.15-.56.15-.67,0-1.33,0-2,0-1,0-1.46.49-1.5,1.5,0,.4.13.84-.16,1.21a6.42,6.42,0,0,1-2.76-.06,8,8,0,0,1,.2-2.67A4.09,4.09,0,0,1,14.15.21c.15,0,.34,0,.43-.21Z"/><path id="Trazado_517" data-name="Trazado 517" class="cls-3" d="M33.51,11.2c-.1,1.45-.2,2.91-.31,4.36s-.22,2.82-.33,4.23c-.16,1.92-.3,3.83-.45,5.75-.1,1.38-.2,2.75-.3,4.14l-.44,5.61c-.1,1.35-.21,2.69-.31,4l-.21,2.83a.69.69,0,0,1-.52.15H26.26a.89.89,0,0,1-.45-.09.49.49,0,0,1-.14-.51c.18-2,.33-4,.5-6,.14-1.67.27-3.34.41-5q.26-3.14.52-6.27c.1-1.1.2-2.19.26-3.3a1.28,1.28,0,0,0-1.14-1.35,1.24,1.24,0,0,0-1.32,1.11c-.17,1.43-.25,2.88-.38,4.31-.15,1.72-.29,3.44-.43,5.15s-.27,3.34-.41,5-.28,3.44-.43,5.15a10.37,10.37,0,0,1-.11,1.25c0,.17,0,.35-.17.48a1.21,1.21,0,0,1-.59.1H20.2a1,1,0,0,1-.58-.12,1.32,1.32,0,0,1-.14-.85V21.12a1.31,1.31,0,0,0-.9-1.33,1,1,0,0,1-.36-.2,1,1,0,0,1-.13-.67V11.86a1,1,0,0,1,.13-.67,1,1,0,0,1,.67-.15h14A.81.81,0,0,1,33.51,11.2Z"/><path id="Trazado_518" data-name="Trazado 518" class="cls-4" d="M18.22,11.21v8.38l-.06.06a2.67,2.67,0,0,1-.42.2,1.27,1.27,0,0,0-.76,1,5.45,5.45,0,0,0,0,.7V41.33a1.43,1.43,0,0,1-.13.86.35.35,0,0,1-.12.07,13.87,13.87,0,0,1-3.22,0,2.44,2.44,0,0,1-.26-1.3q-.27-3.2-.53-6.4c-.14-1.7-.29-3.4-.42-5.1s-.27-3.25-.4-4.87c-.08-1-.17-1.95-.24-2.93a4.72,4.72,0,0,0-.11-.83,1.24,1.24,0,0,0-1.39-1,1.34,1.34,0,0,0-1.08,1.38l.29,3.52.42,5.06L10.21,35q.22,2.51.42,5c0,.54.08,1.09.14,1.63,0,.21.07.43-.11.61a1.15,1.15,0,0,1-.63.1H6a.89.89,0,0,1-.67-.14l-.51-6.59q-.3-4.05-.62-8.08c-.17-2.17-.34-4.33-.5-6.5L3,12.84c0-.54-.07-1.08-.11-1.63a.8.8,0,0,1,.62-.15H17.61a1,1,0,0,1,.54.1Z"/><path id="Trazado_519" data-name="Trazado 519" class="cls-5" d="M33.51,11.2H18.4l-.18,0v0a.76.76,0,0,1-.16-.56V6.12a.92.92,0,0,1,.12-.54.85.85,0,0,1,.54-.13H21.9a.78.78,0,0,1,.53.15H33.59a2.8,2.8,0,0,1,2.82,2.78v0c0,.48,0,1,0,1.44A1.33,1.33,0,0,1,35.1,11.2H33.51Z"/><path id="Trazado_520" data-name="Trazado 520" class="cls-6" d="M18.22,5.6v5.58H1.4A1.33,1.33,0,0,1,.06,10.06,7.46,7.46,0,0,1,.12,7.75,2.77,2.77,0,0,1,2.85,5.6H14a.78.78,0,0,1,.53-.15H17.7A.65.65,0,0,1,18.22,5.6Z"/><path id="Trazado_521" data-name="Trazado 521" class="cls-1" d="M19.62,42.15H23A.61.61,0,0,1,23.4,42c.65,0,1.3,0,1.94,0a.64.64,0,0,1,.44.13h5.38a11,11,0,0,1-.44,3,4.18,4.18,0,0,1-3.78,2.62H18.22a.7.7,0,0,1-.14-.52c0-1.52,0-3,0-4.57a.74.74,0,0,1,.12-.48A1.64,1.64,0,0,1,19.62,42.15Z"/><path id="Trazado_522" data-name="Trazado 522" class="cls-2" d="M18.22,42.18v5.56c-2.93,0-5.86,0-8.79,0a4.13,4.13,0,0,1-4-3.76c-.06-.6-.1-1.2-.14-1.8l5.36,0a.67.67,0,0,1,.39-.12h2a.66.66,0,0,1,.38.12h3.36a2.2,2.2,0,0,1,1.27-.06A.24.24,0,0,1,18.22,42.18Z"/><path id="Trazado_523" data-name="Trazado 523" class="cls-5" d="M25.78,42.15H23c.13-1.39.26-2.77.37-4.15.08-.93.12-1.86.2-2.78.11-1.34.24-2.67.36-4,.07-.89.12-1.79.2-2.68.11-1.34.24-2.68.35-4,.08-.87.14-1.73.2-2.59,0-.42.05-.83.1-1.25a1.38,1.38,0,0,1,2.62-.25,3.7,3.7,0,0,1,0,1.78c0,.95-.16,1.9-.24,2.86-.13,1.38-.25,2.76-.36,4.15-.07.84-.13,1.69-.2,2.54-.12,1.4-.25,2.8-.36,4.2-.08.89-.13,1.79-.2,2.68Z"/><path id="Trazado_524" data-name="Trazado 524" class="cls-5" d="M19.62,42.15l-1.4,0v0a.79.79,0,0,1-.15-.61V20.21a.85.85,0,0,1,.15-.62h0a1.37,1.37,0,0,1,1.4,1.35.86.86,0,0,1,0,.16Z"/><path id="Trazado_525" data-name="Trazado 525" class="cls-6" d="M13.47,42.14h-2.8l-.36-4c-.07-.84-.13-1.69-.2-2.54-.12-1.4-.25-2.8-.36-4.2-.07-.89-.13-1.79-.2-2.68L9.19,24.6C9.12,23.68,9,22.75,9,21.83a2.73,2.73,0,0,1,0-1.24,1.49,1.49,0,0,1,1.46-1,1.35,1.35,0,0,1,1.26,1.27c.17,1.46.26,2.92.37,4.38.14,1.68.31,3.36.45,5,.08.91.13,1.82.2,2.73.11,1.32.26,2.64.36,4,.06.77.11,1.54.19,2.31C13.36,40.23,13.4,41.19,13.47,42.14Z"/><path id="Trazado_526" data-name="Trazado 526" class="cls-6" d="M18.22,19.59V42.14h-1.4v-21a1.37,1.37,0,0,1,1.24-1.5Z"/></g></g></g></svg>