<?xml version="1.0" encoding="UTF-8"?><svg xmlns="http://www.w3.org/2000/svg" viewBox="0 0 334.91 67.21"><defs><style>.d{fill:#fff;}.e{fill:#1d1d1b;}</style></defs><g id="a"/><g id="b"><g id="c"><g><path class="e" d="M18.95,65.81c-3.3,0-6.35-.51-9.17-1.54s-5.1-2.64-6.87-4.84c-1.76-2.2-2.74-5.06-2.92-8.58H10.85c0,1.29,.35,2.37,1.06,3.21,.71,.85,1.68,1.48,2.9,1.88,1.22,.4,2.58,.6,4.07,.6,1.19,0,2.31-.1,3.35-.29,1.04-.19,1.88-.53,2.52-1.02,.64-.49,.96-1.16,.96-2,0-1.04-.34-1.81-1.01-2.32s-1.89-1.09-3.66-1.75l-10.02-4.04c-3.29-1.32-5.86-2.87-7.69-4.65-1.83-1.78-2.75-4.21-2.75-7.29,0-3.61,1.58-6.52,4.75-8.74,3.17-2.22,7.51-3.33,13.03-3.33s9.91,1.23,12.91,3.68,4.68,5.95,5.05,10.49h-10.78c-.27-1.4-.94-2.58-2.01-3.53s-2.79-1.43-5.17-1.43c-1.72,0-3.1,.29-4.15,.88-1.05,.58-1.58,1.31-1.58,2.18,0,.81,.34,1.44,1.01,1.91s1.69,.98,3.04,1.53l10.61,4.17c3.52,1.42,6.15,3.09,7.88,5,1.73,1.91,2.59,4.2,2.59,6.88,0,2.86-.74,5.26-2.21,7.18-1.48,1.92-3.62,3.36-6.42,4.33-2.8,.97-6.2,1.45-10.18,1.45Z"/><path class="e" d="M46.65,64.79V22.07h10.98v42.72h-10.98Z"/><path class="e" d="M62.81,30.89v-8.82h37.93v8.82h-15.89l2.47-2.29v36.2h-10.98V28.6l2.47,2.29h-16Z"/></g><g><path class="e" d="M201.06,45.76c-1.73-1.93-4.36-3.62-7.88-5.06l-10.61-4.22c-1.35-.55-2.36-1.07-3.04-1.54-.67-.47-1.01-1.12-1.01-1.93,0-.88,.53-1.62,1.58-2.21,1.05-.59,2.44-.89,4.15-.89,2.38,0,4.11,.49,5.17,1.45,1.06,.97,1.73,2.16,2.01,3.58h10.78c-.37-4.6-2.05-8.13-5.05-10.61s-7.3-3.72-12.91-3.72-9.85,1.12-13.02,3.36c-3.17,2.25-4.76,5.19-4.76,8.84,0,3.12,.92,5.57,2.75,7.38,1.83,1.8,4.39,3.37,7.69,4.7l10.02,4.09c1.76,.67,2.98,1.26,3.66,1.77,.67,.52,1.01,1.3,1.01,2.35,0,.86-.32,1.54-.96,2.03-.64,.5-1.48,.84-2.52,1.03-1.05,.2-2.16,.29-3.35,.29-1.49,0-2.84-.2-4.07-.61-1.22-.41-2.19-1.04-2.9-1.9-.69-.84-1.04-1.88-1.06-3.14v-.11h-8.22c-.14,2.41-.64,4.23-1.51,5.5,.45,1.18,1.05,2.24,1.8,3.18,1.16,1.47,2.56,2.68,4.18,3.62,.83,.5,1.73,.92,2.68,1.27,2.82,1.04,5.87,1.56,9.17,1.56,3.98,0,7.37-.48,10.17-1.46,2.81-.98,4.95-2.44,6.42-4.38,1.48-1.94,2.22-4.36,2.22-7.26,0-2.71-.87-5.03-2.59-6.96Z"/><path class="e" d="M233,54.6c-1.17,1.17-2.93,1.76-5.29,1.76-1.65,0-3.12-.48-4.41-1.42-1.29-.95-2.31-2.39-3.04-4.33-.73-1.95-1.1-4.4-1.1-7.36s.36-5.52,1.07-7.47c.71-1.96,1.71-3.41,3-4.37,1.29-.95,2.79-1.43,4.48-1.43,1.9,0,3.42,.61,4.55,1.82s1.96,2.74,2.49,4.59l11.67-1.9c-.57-4.1-2.38-7.44-5.43-10.02-3.04-2.57-7.47-3.86-13.28-3.86-4.03,0-7.57,.85-10.64,2.56-3.07,1.7-5.45,4.23-7.16,7.58-1.7,3.35-2.56,7.52-2.56,12.5s.86,9.11,2.58,12.46c1.72,3.35,4.1,5.87,7.16,7.57,3.05,1.7,6.59,2.54,10.62,2.54s7.43-.59,10.19-1.78c2.77-1.19,4.87-2.94,6.3-5.25s2.15-5.13,2.15-8.46h-11.6c0,1.68-.59,3.1-1.75,4.27Z"/><path class="e" d="M276.66,21.57h-13.97l-15.52,43.22h11.67l2.51-7.6h15.89l2.51,7.6h11.57l-14.66-43.22Zm-12.53,27.99l5.39-15.81,5.22,15.81h-10.61Z"/><path class="e" d="M323.92,21.57v25.08l-17.74-25.08h-11.47v43.22h10.99v-26.16l18.6,26.16h10.61V21.57h-10.99Z"/></g><g><path class="d" d="M168.52,50.67v.02c-.76,2.44-1.08,4.57-1.51,5.5-.11,.23-.29,.41-.46,.59-1.16,1.25-2.51,1.88-4.05,1.88-1.44,0-2.67-.27-3.67-.81-1-.55-2.12-1.38-3.34-2.5l-3.01-2.89-5.78-5.57-13.61-13.09c3.17-1.4,5.82-2.89,7.98-4.47,2.62-1.92,4.56-4.04,5.81-6.36s1.88-4.89,1.88-7.71-.76-5.42-2.28-7.73c-1.52-2.31-3.67-4.14-6.45-5.49-2.77-1.36-6.07-2.04-9.9-2.04s-7.46,.68-10.35,2.04c-2.89,1.35-5.09,3.19-6.61,5.52-1.52,2.32-2.28,4.96-2.28,7.91,0,2.74,.63,5.38,1.9,7.91,1.27,2.53,2.99,4.81,5.16,6.84l1.44,1.39,5.27,5.08,16.55,15.96,6,5.78,1.13,1.09c2.66,2.62,5.16,4.55,7.48,5.8,2.32,1.26,4.8,1.89,7.43,1.89,4.25,0,7.5-1.41,9.74-4.22,.06-.07,.12-.14,.17-.21,2.22-2.92,4.16-7.18,3.58-11.98,.01-.04,.01-.09,.01-.13h-8.23ZM123.07,10.81c1.6-1.68,3.96-2.52,7.06-2.52,2.64,0,4.75,.75,6.35,2.24,1.6,1.49,2.4,3.38,2.4,5.65,0,1.76-.39,3.4-1.17,4.91-.79,1.51-2.1,2.97-3.93,4.37-1.48,1.13-3.4,2.28-5.78,3.44l-2.43-2.34c-1.7-1.66-2.93-3.27-3.72-4.81-.78-1.54-1.17-3.18-1.17-4.91,0-2.34,.79-4.35,2.39-6.03Zm33.88,16.05c-1.51,4.41-3.28,8.53-5.32,12.37-1.5,2.82-3.14,5.37-4.93,7.66-.64,.83-1.3,1.62-1.98,2.38-1.12,1.25-2.29,2.37-3.51,3.38-1.58,1.32-3.26,2.44-5.01,3.36-3.11,1.63-6.51,2.45-10.21,2.45-3.04,0-5.63-.51-7.76-1.53-2.14-1.02-3.76-2.37-4.87-4.07-1.11-1.7-1.67-3.58-1.67-5.65,0-3.08,1.21-5.52,3.62-7.3,2.08-1.53,5.2-2.61,9.35-3.22,.67-.1,1.36-.19,2.08-.26l-2.58-5.45c-1.68,.15-3.27,.36-4.77,.63-4.86,.85-8.76,2.29-11.72,4.31-3.88,2.64-5.81,6.58-5.81,11.8,0,2.75,.61,5.3,1.83,7.66,1.22,2.36,2.93,4.42,5.13,6.18,2.19,1.76,4.74,3.15,7.64,4.15,2.91,1,6.05,1.5,9.44,1.5,4.58,0,8.78-.92,12.61-2.75,3.14-1.5,6.05-3.51,8.7-6.03,.58-.53,1.14-1.09,1.69-1.68,1.26-1.34,2.45-2.77,3.58-4.29,1.68-2.24,3.22-4.69,4.63-7.33,2.37-4.45,4.35-9.31,5.95-14.6l-6.11-3.67Z"/><path class="e" d="M124.33,17.99h11.22v.02c0,3.1-2.51,5.61-5.61,5.61h0c-3.1,0-5.61-2.51-5.61-5.61v-.02h0Z"/><path class="e" d="M128.58,14.93c-.17,0-.33-.09-.43-.24-.48-.8-1-1.21-1.53-1.22,0,0-.02,0-.03,0-.81,0-1.6,.9-1.85,1.25-.16,.23-.47,.29-.69,.13-.23-.16-.29-.47-.13-.69,.05-.07,1.17-1.68,2.67-1.68h.06c.89,.02,1.69,.6,2.36,1.7,.14,.24,.07,.54-.17,.69-.08,.05-.17,.07-.26,.07Z"/><path class="e" d="M135.39,14.93c-.17,0-.33-.08-.43-.24-.48-.8-1-1.21-1.53-1.22,0,0-.02,0-.03,0-.81,0-1.6,.9-1.85,1.25-.16,.23-.47,.29-.69,.13-.23-.16-.29-.47-.13-.69,.05-.07,1.17-1.68,2.67-1.68h.06c.89,.02,1.69,.6,2.36,1.7,.14,.24,.07,.54-.17,.69-.08,.05-.17,.07-.26,.07Z"/></g></g></g></svg>