<?xml version="1.0" encoding="utf-8"?>
<!-- Generator: Adobe Illustrator 26.1.0, SVG Export Plug-In . SVG Version: 6.00 Build 0)  -->
<svg version="1.1" id="Capa_1" xmlns="http://www.w3.org/2000/svg" xmlns:xlink="http://www.w3.org/1999/xlink" x="0px" y="0px"
	 viewBox="0 0 607 597" style="enable-background:new 0 0 607 597;" xml:space="preserve">
<style type="text/css">
	.st0{fill:#F7DE5C;}
	.st1{fill:#FFFFFF;}
</style>
<circle class="st0" cx="303.5" cy="298.5" r="276.2"/>
<path class="st1" d="M279.7,278.6L279.7,278.6c0-47.6-38.7-86.3-86.3-86.3c-47.7,0-86.3,38.7-86.3,86.3c0,47.7,30.6,64.8,77.3,72.9
	C237.4,360.5,279.7,326.3,279.7,278.6z M260.8,296.6L260.8,296.6c0,24.3-27.9,49.5-80,40.5c-36-5.4-55.7-16.2-55.7-40.5
	c0-3.6,0.9-7.2,1.8-10.8c3.6,13.5,8.1,30.6,55.8,33.3C226.6,321.8,254.5,311,260.8,296.6L260.8,296.6L260.8,296.6z"/>
<path class="st1" d="M473,198.6L473,198.6c0-46.7-43.2-93.5-90.8-93.5c-47.7,0-85.4,54.8-85.4,102.5c0,47.7,42.3,77.3,89.9,77.3
	C434.3,284.9,473,246.3,473,198.6L473,198.6z M454.1,206.7L454.1,206.7c0,36.9-29.7,65.6-67.4,65.6s-71.9-20.7-71.9-56.7
	c0-5.4,0.9-10.8,1.8-15.3c3.6,19.8,20.7,49.4,68.3,53C428.9,257.1,447.8,228.3,454.1,206.7L454.1,206.7L454.1,206.7z"/>
<path class="st1" d="M375,302.9L375,302.9c-40.5-15.3-76.4,3.6-92.6,45c-16.2,41.4,2.7,88.1,43.2,104.3
	c39.6,15.3,86.3-19.8,102.5-61.1C444.2,348.8,414.6,319.1,375,302.9L375,302.9z M355.2,307.4L355.2,307.4
	c-76.4,52.2-54.8,107-41.4,127.7c-25.2-18-35.1-52.2-23.4-83.6C301.3,324.5,323.8,302.9,355.2,307.4z"/>
<path class="st0" d="M394.8,120.4L394.8,120.4c10.8,0.9,18.9-0.9,19.8-3.6c0-2.7-8.1-5.4-18.9-5.4c-10.8-0.9-18.9,0-18.9,2.7
	C375.9,116.8,384.9,119.5,394.8,120.4L394.8,120.4z"/>
<path class="st0" d="M195.2,206.7L195.2,206.7c10.8,0,18.9-2.7,18.9-5.4c0-2.7-8.1-4.5-18.9-4.5c-10.8,0-18.9,1.8-18.9,4.5
	C176.3,204,184.4,206.7,195.2,206.7z"/>
<path class="st0" d="M398.4,415.3L398.4,415.3c-6.3,8.1-9.9,16.2-8.1,18c2.7,1.8,9-3.6,15.3-11.7c6.3-9,9.9-17.1,8.1-18.9
	C411,401.8,404.7,407.2,398.4,415.3z"/>
</svg>
