<?xml version="1.0" encoding="UTF-8"?><svg id="a" xmlns="http://www.w3.org/2000/svg" viewBox="0 0 552.35 552.35"><defs><style>.b{fill:#fff;}.c{fill:none;stroke:#fff;stroke-linecap:round;stroke-linejoin:round;stroke-width:8.21px;}.d{fill:#7fcb28;}</style></defs><circle class="d" cx="276.18" cy="276.18" r="276.18"/><g><path class="b" d="M364.15,111.96h0c-4.13,9.3,23.81,14.49,27.96,2.06,2.06-6.19,0-14.49-7.26-18.66-5.17-3.07-22.77-1-25.87-3.07,6.21,5.15,8.28,12.41,5.17,19.66h0Z"/><path class="b" d="M217.16,109.87h0c6.23,5.19,17.6,19.66,27.97,18.62,7.23-1.04,7.23-19.64,8.28-22.75,5.17-24.85,43.47,1.04,56.91,5.15-2.08-6.19-6.19-15.53,2.08-18.6,10.34-5.17,22.77-6.21,34.15-4.17-5.17-12.41-17.6-31.04-36.23-23.79-13.45,6.23-15.53,2.07-27.92-1.02-2.1-1.04-3.12-1.04-4.15-1.04-6.21,0-11.4,4.13-14.51,9.32-3.09,4.13-6.21,9.3-13.45,9.3-4.15,1.04-7.25-2.06-10.34-4.13-3.12-2.08-6.23-4.15-10.36-3.12-23.81,3.12,9.3,31.06-12.44,36.23h0Z"/><path class="b" d="M167.49,135.75h0c4.13,6.23,3.11,16.57-4.15,21.76,7.26-2.06,14.49-3.11,21.74-6.25,9.32-5.15,5.19-14.47,7.23-22.77,2.08-5.15,13.47-15.49,7.25-20.68-3.11-2.08-8.28-4.15-13.47-4.15-2.06,0-4.13,0-6.19,1.04-11.38,4.15-2.08,17.6-18.65,20.72-5.17,1.02,5.19,8.28,6.23,10.32h0Z"/><path class="b" d="M396.26,156.47h0c-30.02-3.11-5.17-18.66,0-32.09-8.3,4.11-20.72,5.15-30.02,2.07-13.48-4.15-10.36-12.43-8.29-21.74,2.08-9.3-9.3-10.34-18.62-10.34h-5.17c-16.56,1.04-16.56,4.13-15.55,16.54,2.06,11.4-11.36,5.21-25.85,0-14.49-6.19-30.02-11.38-33.14,1.04-1.02,6.23-1.02,18.64-9.3,22.77-14.49,7.27-31.04-13.45-40.38-19.66-4.15,6.21-7.23,13.45-8.26,21.74-1.04,6.23,0,12.41-7.27,17.6-11.38,8.28-26.9,9.3-40.36,13.45,14.51,7.25,31.04,11.4,47.63,15.53,9.3,2.08,9.3,14.51,18.62,15.53,23.81,2.07,5.17,17.61,14.49,19.68,2.06,16.55,2.06,40.38,2.06,75.53-2.06,16.57-4.13,32.1-5.15,47.63-6.23,64.17-7.27,105.59,9.3,119.02h1.04c4.15,13.47,12.41,22.78,22.77,26.91-1.04,2.08,31.06,4.15,30.02,0,6.21-4.13,12.43-10.32,15.51-18.62,3.11,0,6.21-3.11,11.4-7.23,23.81-31.06,7.23-85.91,8.28-134.59,2.06-48.64-1.04-96.25-1.04-120.06,2.08,0,2.08,1.04,4.15,2.08,8.28,2.06,3.11,2.06,12.43-7.26,13.45-13.45-2.08-8.28,13.45-20.72,12.43-9.3,30-12.41,39.34-24.81h-2.07Zm-155.27,185.27h0c2.07-14.49,3.11-31.06,5.19-47.62,1.02-35.17,0-59-2.08-74.51,1.04-3.11,2.08-7.24,1.04-16.57,0-2.08-2.08-7.23-5.17-11.4-1.06-3.07-2.1-5.14-2.1-6.19,6.23,4.15,16.57,14.49,20.72,31.06l-2.07,61.04c1.04,8.3,0,16.57,0,25.89-6.21,49.7-17.61,89.02-16.55,142.85v3.11c-7.25-17.58-3.12-57.98,1.02-107.66h0Zm51.76,132.49h0c-17.6,14.49-38.31,0-41.4-26.9-1.04-12.43,0-38.32,2.07-69.36,4.15-29,10.34-70.4,9.32-100.42v-13.45l4.13-45.53h1.04c-1.04-3.12-1.04-8.28-1.04-17.62-2.06-27.95-27.95-45.53-27.95-45.53,0,0,26.91,15.53,22.8,1.04-4.15-11.4,20.7,27.92,27.94,38.3,4.15,5.15,6.21,13.45,7.23,20.68h1.02l1.04,27.96c-1.04,31.06-2.07,73.49-2.07,73.49,5.17,102.48,13.45,143.89-4.13,157.34h0Zm28.96-150.1h0c6.21,82.84,6.21,124.23-4.11,133.55-2.08,2.06-4.17,4.15-5.21,4.15,1.04-5.19,2.08-10.36,1.04-17.6-1.04-18.66-3.11-44.51-5.17-76.61-1.02-23.79-1.02-52.79,0-79.7l-4.13-66.25v-9.3h-1.04c1.04-12.43,1.04-34.15,0-42.44,0-11.4,5.17-25.87,5.17-22.77,1.02,4.13,1.02,27.94,2.06,30.02,2.07,2.07,7.27-1.06,7.27,7.24,0,6.21,1,17.59,2.05,23.81,0,24.85,2.07,115.93,2.07,115.93v-.02h0Z"/><path class="c" d="M262.73,240.32h0s10.34,99.34,13.43,144.91c2.1,19.66,0,55.89,0,55.89"/></g></svg>