<?xml version="1.0" encoding="utf-8"?>
<!-- Generator: Adobe Illustrator 26.1.0, SVG Export Plug-In . SVG Version: 6.00 Build 0)  -->
<svg version="1.1" id="Capa_1" xmlns="http://www.w3.org/2000/svg" xmlns:xlink="http://www.w3.org/1999/xlink" x="0px" y="0px"
	 viewBox="0 0 607 597" style="enable-background:new 0 0 607 597;" xml:space="preserve">
<style type="text/css">
	.st0{fill:#77144D;}
	.st1{fill:#FFFFFF;}
</style>
<g id="Capa_x0020_1">
	<g id="_1597600715376">
		<path class="st0" d="M294,574.7c-148.3-5.1-266.6-127.5-266.6-277c0-146,111.4-263.9,253.5-275.3h45.7
			c134.7,10.8,241.4,116.2,253.1,250.5v49.4c-12.2,138.1-125.5,247.5-266.4,252.3L294,574.7L294,574.7L294,574.7z"/>
		<path class="st1" d="M262.4,189.7L262.4,189.7h-36.6v22.9h40.2v18.3h-62.2v-98.8h60.4v18.3h-38.4v21h36.6V189.7z"/>
		<path class="st1" d="M314.6,199.8L314.6,199.8h-38.4v-14.6h38.4V199.8z"/>
		<path class="st1" d="M378.6,230.9L378.6,230.9l-9.1-17.4c-3.7-7.3-6.4-11.9-9.2-18.3c-1.8,6.4-4.6,11-7.3,18.3l-8.2,17.4h-25.6
			l28.4-49.4l-27.4-49.4h25.6l8.2,18.3c3.7,6.4,5.5,11,8.2,16.5c1.8-6.4,4.6-11,6.4-16.5l8.2-18.3h25.6L375,180.6l29.3,50.3H378.6
			L378.6,230.9L378.6,230.9z"/>
		<path class="st1" d="M467.3,412.9L467.3,412.9c-1.8-4.6-6.4-7.3-11-7.3c-4.6,0-8.2,1.8-10.1,5.5l-1.8,1.8v4.6
			c0,6.4,5.5,11.9,11.9,11.9c4.6,0,9.1-2.7,11-7.3c0.9-1.8,0.9-2.7,0.9-4.6C468.3,415.7,468.3,413.8,467.3,412.9L467.3,412.9
			L467.3,412.9z M284.4,406.5L284.4,406.5v-60.4h-12.8v54l-46.7,26.5l6.4,11L284.4,406.5L284.4,406.5z M328.3,340.7L328.3,340.7
			l5.5,11l49.4-29.3l-5.5-10.1L328.3,340.7L328.3,340.7z M151.7,343.4L151.7,343.4c7.3,0,11.9-5.5,11.9-11.9
			c0-7.3-4.6-12.8-11.9-12.8h-0.9c-3.6,0.9-6.4,2.7-9.1,5.5v0.9c-0.9,1.8-1.8,3.7-1.8,6.4c0,1.8,0.9,3.7,1.8,5.5
			C143.5,340.7,147.2,343.4,151.7,343.4z M172.8,330.6L172.8,330.6l55.8-31.1l64.9,37.5v64.9c3.7-1.8,7.3-2.7,11-2.7
			c3.7,0,7.3,0.9,11,2.7V337l64.9-37.5l65.9,37.5v62.2c2.7-1.8,6.4-2.7,10.1-2.7c3.7,0,7.3,0.9,11,2.7v-75l-80.5-45.8v-18.3H374
			v18.3l-69.5,40.3l-70.4-41.2v-17.4h-11.9v18.3l-60.4,33.9C169.1,316,172.8,323.3,172.8,330.6z M436.2,406.5L436.2,406.5v-60.4
			h-11.9v54l-46.7,26.5l5.5,11L436.2,406.5L436.2,406.5z M175.5,340.7L175.5,340.7l6.4,11l49.4-29.3l-6.4-10.1L175.5,340.7
			L175.5,340.7L175.5,340.7z M304.5,408.4L304.5,408.4c-7.3,0-11.9,5.5-11.9,11.9c0,6.4,4.6,11,10.1,11.9h1.8h1.8
			c5.5-0.9,10.1-6.4,10.1-11.9C316.4,413.9,310.9,408.4,304.5,408.4L304.5,408.4L304.5,408.4z M435.3,419.3L435.3,419.3l-54.9,31.1
			l-54.9-32v1.8c0,7.3-3.7,13.7-10.1,17.4l58.5,33.8v17.4h12.8v-17.4l60.4-34.8C440.8,433.1,435.3,426.6,435.3,419.3L435.3,419.3
			L435.3,419.3z M162.7,412.9L162.7,412.9V412c-1.8-4.6-6.4-7.3-11-7.3c-4.6,0-8.2,1.8-10.1,5.5c-1.8,1.8-1.8,3.7-1.8,6.4
			c0,2.8,0,4.6,1.8,6.4c1.8,3.7,5.5,5.5,10.1,5.5c6.4,0,11.9-5.5,11.9-11.9C163.6,415.7,163.6,413.9,162.7,412.9L162.7,412.9
			L162.7,412.9z M141.7,349.8L141.7,349.8v48.5c2.8-1.8,6.4-2.8,10.1-2.8c3.7,0,8.2,0.9,11,3.7v-50.3c-2.7,1.8-6.4,3.7-11,3.7
			C148.1,352.6,144.4,351.6,141.7,349.8L141.7,349.8L141.7,349.8L141.7,349.8z M283.5,420.3L283.5,420.3v-1.8l-54.9,32l-55.8-32
			c-0.9,7.3-5.5,14.6-12.8,17.4l62.2,35.7v17.4h11.9v-17.4l58.5-33.8C287.1,434,283.5,427.6,283.5,420.3L283.5,420.3L283.5,420.3
			L283.5,420.3z"/>
	</g>
</g>
</svg>
