<?xml version="1.0" encoding="utf-8"?>
<!-- Generator: Adobe Illustrator 26.1.0, SVG Export Plug-In . SVG Version: 6.00 Build 0)  -->
<svg version="1.1" id="Capa_1" xmlns="http://www.w3.org/2000/svg" xmlns:xlink="http://www.w3.org/1999/xlink" x="0px" y="0px"
	 viewBox="0 0 607 597" style="enable-background:new 0 0 607 597;" xml:space="preserve">
<style type="text/css">
	.st0{fill:#B78051;}
	.st1{fill:#FFFFFF;}
	.st2{fill:none;stroke:#FFFFFF;stroke-width:7.751;stroke-miterlimit:10;}
</style>
<g id="Capa_x0020_1_00000119828706514497940060000011413963027654529439_">
	<g id="_1561654813344">
		<path class="st0" d="M293.9,574.7C145.7,569.6,27.4,447.3,27.3,297.9v-0.4C27.4,151.6,138.8,33.8,280.8,22.3h45.7
			c134.7,10.8,241.4,116.2,253.2,250.6v49.3c-12.1,138.1-125.5,247.6-266.3,252.4H293.9L293.9,574.7L293.9,574.7z"/>
		<path class="st1" d="M365.8,353.5L365.8,353.5c-42.1-7.3-39.4,54.9-22.9,93.3c16.5,37.5,59.5,27.4,62.2,26.5
			c27.4-12.8,38.4-51.2,21-86.9c-32-67.7-55.8-34.8-55.8-34.8l14.6,75L365.8,353.5z"/>
		<path class="st1" d="M526.8,270.2L526.8,270.2c32.9,27.4-16.5,65.8-56.7,78.7c-38.4,11.9-54.9-26.5-55.8-29.3
			c-7.3-22.9,10.1-63.1,48.5-73.2c72.3-19.2,62.2,20.1,62.2,20.1l-65.9,37.5L526.8,270.2L526.8,270.2z"/>
		<path class="st1" d="M121.5,375.4L121.5,375.4c12.8,55.8,103.4,40.3,151,18.3c36.6-15.5,43-62.2,75.9-103.4
			c28.4-36.6,73.2-42.1,85.1-75.9c27.4-73.2-26.5-129-108.9-108.9c-43,10.1-66.8,72.3-85.1,118C181,238.2,102.3,295.8,121.5,375.4
			L121.5,375.4z M248.7,241.9L248.7,241.9c25.6-61.3,78.7-162.8,161.9-94.2c32.9,74.1-51.2,89.6-80.5,128.1
			c-20.1,24.7-21.1,64-47.6,85.1c-33.8,26.5-54.9,26.5-88.7,29.3c-16.5,0.9-38.4-6.4-50.3-20.1C141.7,291.3,185.6,255.6,248.7,241.9
			L248.7,241.9z"/>
		<path class="st2" d="M358.5,119.3L358.5,119.3c0,2.7-0.9,4.5-1.8,7.3c-4.6,19.2-9.1,32.9-19.2,55.8c-5.5,11-11.9,22.9-18.3,33.8
			c-6.4,12.8-15.6,22.9-23.8,35.7c-9.1,12.8-19.2,24.7-29.3,35.7c-9.2,11.9-19.2,22.9-29.3,33c-15.6,14.6-32,28.4-48.5,41.2
			c-7.3,5.5-13.7,11-21,16.4c-1.8,2.8-15.5,11-19.2,10.1"/>
		<path class="st2" d="M385.9,119.3L385.9,119.3c0,2.7-19.2,64-29.3,87.8c-9.1,23.8-31.1,43.9-44.8,66.8
			c-15.6,19.2-33.9,46.7-39.3,52.1c-14.6,14.6-23.8,22.9-40.3,35.7c-7.3,5.5-13.7,11-21,16.4c-5.5,6.4-46.7,29.3-34.8,13.7"/>
		<path class="st2" d="M128,362.6L128,362.6c5.5,0,21-10,24.7-13.7c12.8-13.7,31.1-24.7,45.7-36.6c25.6-20.1,71.3-65.9,81.4-81.4
			c10.1-15.6,23.8-33.9,34.7-59.5c11.9-26.5,6.4-23.8,11-43"/>
		<path class="st2" d="M345.7,271.1L345.7,271.1c4.6-9.1,21-14.6,25.6-23.8c1.8-3.6,14.6-32,25.6-70.5c0.9-3.6,4.6-30.2,4.6-40.2"/>
		<path class="st2" d="M137.1,311.4L137.1,311.4c6.4-0.9,41.1,1.8,80.5,25.6c11.9,8.2,41.2,41.2,41.2,47.6"/>
		<path class="st2" d="M174.6,273L174.6,273c21,3.6,58.5,6.4,84.2,29.3c25.6,23.8,30.2,47.6,32.9,49.4"/>
		<path class="st2" d="M332,292.2L332,292.2c-5.5-0.9-12.8-23.8-41.2-39.3c-37.5-20.1-43.9-7.3-64.9-11.9"/>
		<path class="st2" d="M376.8,248.3L376.8,248.3c-6.4-10-21.9-27.4-41.2-41.2c-20.1-14.6-61.3-21-75.9-14.6"/>
		<path class="st2" d="M418.9,215.3L418.9,215.3c-4.6-10.1-32-32.9-60.4-47.6c-12.8-7.3-55.8-23.8-78.7-16.5"/>
	</g>
</g>
</svg>
