<?xml version="1.0" encoding="utf-8"?>
<!-- Generator: Adobe Illustrator 26.1.0, SVG Export Plug-In . SVG Version: 6.00 Build 0)  -->
<svg version="1.1" id="Capa_1" xmlns="http://www.w3.org/2000/svg" xmlns:xlink="http://www.w3.org/1999/xlink" x="0px" y="0px"
	 viewBox="0 0 607 597" style="enable-background:new 0 0 607 597;" xml:space="preserve">
<style type="text/css">
	.st0{fill:#BE5854;}
	.st1{fill:#FFFFFF;}
</style>
<g id="Capa_x0020_1">
	<g id="_1561654809952">
		<path class="st0" d="M293.9,574.7c-148-5.1-266-127.5-266-277c0-146,111.2-263.9,253-275.3h45.6c134.5,10.8,241,116.3,252.7,250.7
			v49.1C567,460.4,453.9,569.8,313.3,574.7H293.9L293.9,574.7z"/>
		<path class="st1" d="M368.4,460.5L368.4,460.5c13.7-2.7,24.7-8.2,34.7-13.7c7.3-11.9,11-27.5,15.5-41.2c2.7,7.3,2.7,22,2.7,30.2
			c21.9-12.8,29.2-38.4,31-68.6c3.7-69.6-9.2-121.7-42.9-161c-14.6-16.5-29.2-30.2-45.7-40.2c-23.8-13.7-51.1-24.7-59.3-52.2
			c-12.8,34.8-21,77.8-27.4,120.8c-2.7,16.5-7.3,33.8-8.2,50.3c-4.6,64,2.7,128,22.8,168.3c1.8,3.7,2.7,9.1,7.3,10.1
			c-4.6-32-23.7-71.4-26.5-110.7c-5.5-83.2,13.7-165.6,41.1-215.9v0.9c-13.7,32-17.3,66.8-22.8,111.6c-2.7,22.9-8.2,48.5-8.2,70.4
			c0.9,48.5,3.7,96.1,19.2,128.1c13.7-33.8,37.4,18.3,61.2,11.9c-12.8-19.2-5.5-51.2-2.7-76.8C362.9,408.4,365.7,434.9,368.4,460.5
			L368.4,460.5L368.4,460.5z M373.9,363.5L373.9,363.5c-6.4-16.4-8.2-39.3-1.8-56.7C378.4,323.3,380.3,348,373.9,363.5z
			 M389.4,425.7L389.4,425.7c0-21.1-0.9-41.2,4.6-55.8C398.5,386.4,404,415.7,389.4,425.7z M378.4,251L378.4,251
			c22.8,6.4,21.9,37.5,24.7,65C393,296.8,386.7,272,378.4,251z M433.2,367.2L433.2,367.2c-6.4-25.6-3.6-60.4-15.5-80.5
			C439.6,293.1,440.5,339.8,433.2,367.2z M414,251.9L414,251.9c-16.4-24.7-37.4-44.8-48.4-75C383.9,195.2,407.6,217.2,414,251.9z
			 M317.3,155.9L317.3,155.9c5.5,17.4,14.6,31.1,14.6,53.1C320.9,197.1,313.6,179.7,317.3,155.9z M310.9,279.4L310.9,279.4
			c4.6,17.4,6.4,40.3,10.9,54.9C307.2,328.8,300.8,299.5,310.9,279.4z M310,356.2L310,356.2c3.6,28.4,18.3,45.7,27.4,69.5
			C323.7,411.1,294.4,384.6,310,356.2z M348.3,316.9L348.3,316.9c-4.6-19.2-6.4-42.1-5.5-65.9C358.4,262.9,350.1,294.9,348.3,316.9z
			"/>
		<path class="st1" d="M251.5,455L251.5,455c-1.8-6.4-7.3-16.5-3.7-25.6c4.6,6.4,9.1,11.9,12.8,19.2c3.7,0,3.7-3.7,6.4-4.6
			c5.5,5.5,11.8,16.5,19.2,17.4c-29.2-36.6-34.7-92.4-37.4-149.1c-2.7-71.3,21.9-126.2,41.1-177.4c-23.7,19.2-53.8,27.4-75.8,50.3
			c-36.5,36.6-55.7,101.6-58.4,165.6c-0.9,7.3-0.9,15.6,0,22.9c0.9,20.1,21,35.7,31,46.7c-5.5-6.4-11-18.3-7.3-30.2
			C198.6,416.6,207.7,454.1,251.5,455L251.5,455L251.5,455z M232.4,301.3L232.4,301.3c-8.2-26.5-11-72.2,10.9-86.9
			C235.1,235.5,234.2,272,232.4,301.3z M231.4,187.9L231.4,187.9c6.4-11.9,5.5-21.1,24.7-21.9c-14.6,11.8-17.3,35.7-37.4,43
			C217.8,198.9,226,196.1,231.4,187.9z M215.9,375.4L215.9,375.4c2.7,7.3,8.2,13.7,6.4,25.6c-5.5-1.8-4.6-6.4-7.3-11.9
			c-2.7-5.5-9.1-9.2-10.9-14.6c-5.5-14.7,0.9-32.1,1.8-48.5C211.4,337.9,211.4,359.9,215.9,375.4L215.9,375.4L215.9,375.4z
			 M199.5,234.5L199.5,234.5c5.5,12.8,6.4,43.9,0.9,56.7C193.1,274.8,191.3,252.8,199.5,234.5z M176.7,283.9L176.7,283.9
			c-2.7,27.5,0,60.4,3.7,88.7C166.6,350.7,158.4,306.8,176.7,283.9z"/>
	</g>
</g>
</svg>
