<?xml version="1.0" encoding="utf-8"?>
<!-- Generator: Adobe Illustrator 26.1.0, SVG Export Plug-In . SVG Version: 6.00 Build 0)  -->
<svg version="1.1" id="Capa_1" xmlns="http://www.w3.org/2000/svg" xmlns:xlink="http://www.w3.org/1999/xlink" x="0px" y="0px"
	 viewBox="0 0 607 597" style="enable-background:new 0 0 607 597;" xml:space="preserve">
<style type="text/css">
	.st0{fill:#00ADEE;}
	.st1{fill:#FFFFFF;}
</style>
<g id="Capa_x0020_1_00000026869627413315375230000002541302119981715104_">
	<g id="_1561654809280">
		<path class="st0" d="M579.1,322.1c-12.1,138.2-125.2,247.7-265.8,252.5h-19.4c-148-5.1-266-127.5-266-277
			C27.9,151.7,139,33.8,280.8,22.3h45.6c134.5,10.8,241,116.3,252.7,250.8V322.1L579.1,322.1z"/>
		<path class="st1" d="M383,380.9L383,380.9c9.1-15.6,11.9-47.6,11.9-57.7v-9.1c-1.8-4.6-3.7-9.1-8.2-14.6
			c-3.7-4.6-7.3-15.6-11.9-26.5c-3.7-8.2-7.3-16.5-13.7-21c-4.6-2.8-10-4.6-14.6-7.3c-2.7-1.8-4.6-4.6-5.5-6.4
			c-0.9-4.6,0-11-8.2-10.1c-2.7,0-7.3,3.7-9.1,4.6c-5.5,2.8-10.9,0.9-15.5,0.9c-0.9,0-0.9,0-1.8,0.9c-0.9,0-1.8,0-1.8,0.9
			c-0.9-0.9-1.8-0.9-2.7-0.9c0-0.9-0.9-0.9-1.8-0.9c-4.6,0-10,1.8-14.6-0.9c-2.7-0.9-6.4-4.6-10-4.6c-7.3-0.9-7.3,5.5-8.2,10.1
			c-0.9,1.8-2.7,4.6-5.5,6.4c-3.6,2.7-10,4.6-13.7,7.3c-7.3,4.6-10.9,12.8-14.6,21c-4.6,11-7.3,21.9-11.9,26.5
			c-4.6,5.5-6.4,10-7.3,14.6c-0.9,2.7-0.9,5.5-0.9,9.1c0,10.1,2.7,42.1,11.9,57.7c1.8,2.8,7.3,7.3,14.6,12.8
			c13.7,10.1,31.9,21.1,34.7,21.1c3.6,0,18.3,0.9,30.1,0c11,0.9,26.5,0,29.2,0c2.8,0,21.9-11,34.7-21.1
			C375.7,388.2,381.2,383.7,383,380.9L383,380.9z M486.2,277.5L486.2,277.5c-0.9,0-2.7,5.5-4.6,11c-1.8,6.4-3.6,11.9-4.5,12.8
			c-0.9,2.8,0,5.5,2.7,6.4c1.8,1.8,5.5,0.9,6.4-2.7c0.9-0.9,2.7-8.2,2.7-14.7C488.9,283,487.1,276.6,486.2,277.5L486.2,277.5z
			 M445.1,435.8L445.1,435.8c-2.7-0.9-5.5,0.9-6.4,3.7c0,0.9-0.9,7.3-3.6,12.8c-2.7,6.4-6.4,11-5.5,11.9c0.9,1.8,7.3-1.8,11.9-7.3
			c4.6-5.5,7.3-13.7,7.3-14.7C449.7,438.6,447.8,435.8,445.1,435.8L445.1,435.8z M432.3,390.1L432.3,390.1
			c-3.7,2.8-4.6,7.3-2.7,10.1c7.3,14.6,8.2,22,10.1,26.5c1.8,4.6,3.6,5.5,5.5,5.5c1.8,0,4.6,0,5.5-6.4c0.9-4.6,1.8-16.4-7.3-32.9
			C440.5,389.2,435.9,387.3,432.3,390.1L432.3,390.1L432.3,390.1z M206.8,382.8L206.8,382.8c-5.5,7.3-7.3,12.8-8.2,16.4
			c0,7.3,2.7,8.2,6.4,9.2c2.7,1.8,6.4,1.8,10-1.9c1.8-1.8,4.6-4.5,8.2-6.4c2.7-1.8,5.5-3.7,10-5.5c-6.4-4.6-10-9.2-11.9-11.9
			c-10-16.5-12.8-49.4-12.8-59.5c0-4.6,0-7.3,0.9-10.1c0-3.7,1.8-6.4,3.6-10.1c-36.5-11.9-33.8-10-40.2-4.5
			c-5.5,2.7-5.5,14.6,32.8,28.3c-19.2,2.7-28.3,3.7-32.8,4.6c-4.6,1.8-5.5,4.6-6.4,8.2c-0.9,2.7-1.8,6.4,4.6,9.2
			c6.4,2.7,17.3,4.6,37.4,1.8c-11,2.8-18.3,8.2-22.8,11.9c-6.4,5.5-9.1,10.1-11,13.7c-2.7,6.4,0,8.2,2.7,11c2.8,1.8,5.5,3.7,11,0.9
			c5.5-1.8,11.9-9.2,27.4-12.8C212.3,377.3,209.6,380,206.8,382.8L206.8,382.8L206.8,382.8z M432.3,376.4L432.3,376.4
			c-0.9-3.7-3.7-8.2-10-13.7c-5.5-3.6-12.8-9.1-23.7-11.9c20.1,2.7,32,0.9,38.3-1.8c6.4-2.7,5.5-6.4,4.6-9.1
			c-0.9-3.7-1.8-6.4-6.4-8.2c-4.6-0.9-14.6-1.8-32.9-4.6c38.4-13.7,38.4-25.6,32.9-28.3c-6.4-5.5-3.6-7.3-40.2,4.5
			c2.7,2.8,3.6,6.4,4.6,10.1c0,2.7,0.9,5.5,0.9,10c0,10.1-3.7,43-12.8,59.5c-1.8,2.7-6.4,7.3-12.8,11.9c4.6,1.8,7.3,3.6,10.1,5.5
			c3.6,1.8,5.4,4.6,8.2,6.4c3.6,3.7,6.4,3.7,10,1.8c3.6-0.9,6.4-1.8,5.5-9.2c0-3.6-1.8-9.2-8.2-16.5c-1.8-2.8-4.6-5.5-9.1-7.3
			c16.4,3.6,22.8,11,28.3,12.8c4.6,2.7,7.3,0.9,10-0.9C432.3,384.6,435,382.8,432.3,376.4L432.3,376.4L432.3,376.4z M183.1,259.3
			L183.1,259.3c6.4,15.6,19.2,34.8,28.3,42.1c0.9,0,1.8,0,1.8,0.9c1.8-1.8,2.7-4.6,5.5-6.4c1.8-2.7,3.6-8.3,5.5-13.7
			c1.8-4.6,2.7-8.2,4.6-11.9c-6.4-5.5-14.6-11-20.1-15.6c8.2-9.1,6.4-26.5,3.7-41.2c0.9,0,1.8-0.9,2.7-0.9
			c0.9-0.9,59.3-32,42.9-82.3c-12.8,28.4-33.8,43-41.1,47.6c-1.8,0.9-5.5,2.8-8.2,4.6c-0.9-24.7,8.2-46.7,19.2-71.4
			c-11,7.3-21,13.7-25.6,17.4c-12.8,11.9-23.7,26.5-30.1,43c-10,29.3-7.3,54-2.7,66.8C171.2,245.5,174.9,255.6,183.1,259.3
			L183.1,259.3L183.1,259.3z M477.9,311.4L477.9,311.4c-1.8-1.8-3.6-1.8-7.3,0.9c-3.6,2.7-9.1,6.4-23.7,14.6
			c-1.8,1.8-3.7,3.6-3.7,5.5c0,1.8,0.9,3.7,1.8,5.5c0.9,1.8,2.7,2.8,5.5,2.8c0.9,0,2.7,0,4.5-0.9c6.4-3.6,12.8-7.3,16.5-11.9
			c3.7-3.7,6.4-6.4,7.3-9.2C480.7,313.2,479.8,312.3,477.9,311.4L477.9,311.4L477.9,311.4z M146.6,256.5L146.6,256.5
			c2.7-0.9,3.6-3.7,3.6-6.4c-0.9-1.8-2.7-7.3-3.6-13.7c-1.8-5.5-2.7-11.9-4.6-11.9c-0.9,0-2.7,6.4-2.7,12.8c0,6.4,0.9,13.7,0.9,14.7
			C141.1,255.6,143.8,257.4,146.6,256.5L146.6,256.5z M131,301.3L131,301.3c-0.9-0.9-3.6-6.4-5.5-12.8c-1.8-5.5-2.7-11-3.6-11
			c-1.8-0.9-2.8,5.5-2.8,12.8c0,6.4,1.8,13.7,2.8,14.7c0.9,3.7,3.6,4.6,6.4,2.7C131,306.8,132,304.1,131,301.3L131,301.3z
			 M147.5,259.3L147.5,259.3c-1.8,0.9-3.6,1.8-2.7,7.3c0.9,4.6,3.7,14.7,14.6,28.3c3.7,3.7,8.2,3.7,11,0.9c2.7-3.7,2.7-7.3,0.9-11
			c-10-11.9-13.7-19.2-16.4-22.9C151.1,258.4,149.3,258.4,147.5,259.3L147.5,259.3z M436.9,295.9L436.9,295.9
			c3.7,2.8,8.2,2.8,11-0.9c11.9-13.7,14.6-23.8,15.5-28.3c0-5.5-0.9-6.4-3.7-7.3c-1.8-0.9-3.6-0.9-6.4,2.7
			c-2.7,3.7-6.4,11-16.5,22.9C434.1,288.5,434.1,292.2,436.9,295.9L436.9,295.9L436.9,295.9z M461.5,256.5L461.5,256.5
			c1.8,0.9,5.5-0.9,5.5-4.6c0.9-0.9,1.8-8.2,1.8-14.7c-0.9-6.4-1.8-12.8-3.6-12.8c-0.9,0-1.8,6.4-3.7,11.9
			c-0.9,6.4-3.6,11.9-3.6,13.7C457,252.9,458.8,255.6,461.5,256.5z M393.1,212.6L393.1,212.6c0.9,0,0.9,0.9,1.8,0.9
			c-1.8,14.7-3.7,32,4.6,41.2c-6.4,4.6-13.7,10.1-20.1,15.6c1.8,3.6,2.8,7.3,4.6,11.9c1.8,5.5,4.6,11,6.4,13.7
			c1.9,1.8,2.8,3.7,4.6,6.4c0-0.9,0.9-0.9,0.9-0.9c9.1-7.3,22.8-26.5,29.2-42.1c7.3-3.7,11.9-13.7,13.7-21
			c3.7-12.8,7.3-37.5-2.7-66.8c-6.4-16.4-17.3-31.1-30.1-43c-4.5-3.7-14.6-10.1-26.5-17.4c11.9,24.7,21,46.7,20.1,71.4
			c-3.7-1.8-6.4-3.7-8.2-4.6c-7.3-4.6-28.3-19.2-41.1-47.6C332.8,180.6,392.1,211.7,393.1,212.6L393.1,212.6L393.1,212.6z
			 M163,337.9L163,337.9c0.9-1.8,1.8-3.7,1.8-5.5c0-1.9-1.8-3.7-3.6-5.5c-15.5-8.2-20.1-11.9-23.7-14.6c-3.7-2.8-5.5-2.8-7.3-0.9
			c-1.8,0.9-3.7,1.8-0.9,7.3c0.9,2.7,2.7,5.5,7.3,9.2c3.7,4.6,10,8.2,16.4,11.9c1.8,0.9,2.7,0.9,4.6,0.9
			C159.3,340.7,162.1,339.7,163,337.9L163,337.9L163,337.9z M241.5,451.4L241.5,451.4c-6.4-1.8-11.9-3.7-13.7-3.7
			c-1.8-0.9-5.5,0-6.4,2.7c-0.9,2.8,0.9,5.5,3.7,6.4c1.8,0.9,9.1,1.8,15.5,1.8c7.3,0,13.7-1.8,13.7-2.8
			C254.3,454.1,247.9,453.2,241.5,451.4L241.5,451.4L241.5,451.4z M379.4,447.7L379.4,447.7c-0.9,0-7.3,1.8-13.7,3.7
			c-5.5,1.8-11.9,2.7-11.9,4.6c0,0.9,6.4,2.8,12.8,2.8c7.3,0,14.6-0.9,15.5-1.8c3.6-0.9,5.5-3.7,3.6-6.4
			C384.9,447.7,382.1,446.8,379.4,447.7L379.4,447.7L379.4,447.7z M404,412L404,412c-3.7,1.8-6.4,5.5-5.5,9.2
			c1.8,12.8-4.6,16.5-7.3,21c-2.7,2.7-2.7,4.6-1.8,6.4c0.9,2.8,1.8,4.6,7.3,2.8c2.7-0.9,7.3-2.8,11-8.2c4.6-4.6,7.3-14.7,5.5-24.7
			C413.1,413.9,408.6,411.1,404,412L404,412z M209.6,421.2L209.6,421.2c0.9-3.7-1.8-7.3-6.4-9.2c-3.7-0.9-8.2,1.8-9.2,6.4
			c-1.8,10.1,1.8,20.1,5.5,24.7c4.6,5.5,8.2,7.3,10.9,8.2c5.5,1.8,7.3,0,8.2-2.8c0.9-1.8,0.9-3.7-1.8-6.4
			C214.1,437.7,207.7,434,209.6,421.2L209.6,421.2z M175.8,390.1L175.8,390.1c-3.6-2.7-9.1-0.9-11,2.8c-9.1,16.5-9.1,28.4-8.2,32.9
			c1.8,6.4,3.7,6.4,5.5,6.4c2.7,0,4.5-0.9,5.5-5.5c1.8-4.5,3.7-11.9,11-26.5C180.4,397.4,179.4,392.8,175.8,390.1L175.8,390.1z
			 M168.5,439.5L168.5,439.5c0-2.7-2.7-4.6-5.5-3.7c-2.7,0-4.6,2.8-3.7,6.4c0,0.9,2.8,9.2,7.3,14.7c4.6,5.5,10.1,9.1,11,7.3
			c0.9-0.9-2.7-5.5-4.6-11.9C170.3,446.8,169.4,440.4,168.5,439.5L168.5,439.5z"/>
	</g>
</g>
</svg>
