<?xml version="1.0" encoding="utf-8"?>
<!-- Generator: Adobe Illustrator 26.1.0, SVG Export Plug-In . SVG Version: 6.00 Build 0)  -->
<svg version="1.1" id="Capa_1" xmlns="http://www.w3.org/2000/svg" xmlns:xlink="http://www.w3.org/1999/xlink" x="0px" y="0px"
	 viewBox="0 0 607 597" style="enable-background:new 0 0 607 597;" xml:space="preserve">
<style type="text/css">
	.st0{fill:#DF8042;}
	.st1{fill:#FFFFFF;}
</style>
<g id="Capa_x0020_1">
	<path class="st0" d="M27.3,297.7L27.3,297.7c0,149.5,118.3,271.9,266.6,277h19.4c140.9-4.8,254.3-114.3,266.4-252.5V273
		C568,138.6,461.2,33.2,326.5,22.3h-45.7C138.7,33.8,27.3,151.7,27.3,297.7L27.3,297.7L27.3,297.7z"/>
	<path class="st1" d="M173.7,445.9L173.7,445.9c0,0,37.5,51.2,103.4-77.8C277.1,368.1,174.6,408.4,173.7,445.9z"/>
	<path class="st1" d="M245,393.8L245,393.8c0,0,30.2-32.9,84.2-65.9c-51.2,35.7-78.7,70.4-78.7,70.4L245,393.8L245,393.8L245,393.8z
		"/>
	<path class="st1" d="M188.3,423L188.3,423c0,0-61.3,14.7-27.4-126.3C160.9,296.8,212.1,393.8,188.3,423z"/>
	<path class="st1" d="M168.2,337L168.2,337c0,0-1.8-44.8-22-104.3c16.5,60.4,14.6,104.3,14.6,104.3H168.2L168.2,337z"/>
	<path class="st1" d="M201.1,366.3L201.1,366.3c0,0,33.9,45.7,93.3-69.5C294.4,296.8,203,331.5,201.1,366.3z"/>
	<path class="st1" d="M266.1,319.7L266.1,319.7c0,0,27.4-29.3,75.9-58.6c-45.7,32.1-70.4,63.1-70.4,63.1L266.1,319.7L266.1,319.7z"
		/>
	<path class="st1" d="M216.7,351.7L216.7,351.7c0,0-55.8,11.9-23.8-114.3C192.9,237.3,238.6,325.1,216.7,351.7z"/>
	<path class="st1" d="M199.3,273.9L199.3,273.9c0,0-0.9-40.2-18.3-94.2c13.7,54,11.9,94.2,11.9,94.2H199.3L199.3,273.9z"/>
	<path class="st1" d="M230.4,296.8L230.4,296.8c0,0,28.4,42.1,85.1-58.5C315.5,238.2,233.2,265.7,230.4,296.8z"/>
	<path class="st1" d="M289.9,257.4L289.9,257.4c0,0,25.6-25.6,69.5-49.4c-42.1,26.5-65,53-65,53L289.9,257.4L289.9,257.4z"/>
	<path class="st1" d="M243.2,278.5L243.2,278.5c0,0-50.3,9.1-17.4-101.5C225.8,176.9,263.4,256.5,243.2,278.5z"/>
	<path class="st1" d="M230.4,209L230.4,209c0,0,0.9-35.7-12.8-84.2c10.1,49.4,6.4,84.2,6.4,84.2H230.4z"/>
	<path class="st1" d="M267.9,230L267.9,230c0,0,25.6,36.6,72.3-53.1C340.2,176.9,268.8,203.5,267.9,230z"/>
	<path class="st1" d="M318.2,194.3L318.2,194.3c0,0,21.1-22.9,59.5-44.8c-36.6,23.8-55.8,48.5-55.8,48.5L318.2,194.3L318.2,194.3z"
		/>
	<path class="st1" d="M278,214.5L278,214.5c0,0-43,9.1-17.4-88.8C260.6,125.7,295.3,193.4,278,214.5z"/>
	<path class="st1" d="M265.2,153.1L265.2,153.1c0,0-0.9-31.1-13.7-73.2c10,43,8.2,74.1,8.2,74.1L265.2,153.1L265.2,153.1z"/>
	<path class="st1" d="M305.4,171.4L305.4,171.4c0,0,20.1,32,65.9-42.1C371.3,129.3,308.2,148.6,305.4,171.4z"/>
	<path class="st1" d="M351.2,143.1L351.2,143.1c0,0,19.2-18.3,54-34.8c-32.9,19.2-51.2,38.4-51.2,38.4L351.2,143.1z"/>
	<path class="st1" d="M315.5,158.6L315.5,158.6c0,0-37.5,4.6-10-77.8C305.4,80.9,331,141.2,315.5,158.6z"/>
	<path class="st1" d="M308.1,105.6L308.1,105.6c0,0,0.9-26.5-7.3-64.1c5.5,37.5,2.7,64.1,2.7,64.1H308.1z"/>
	<path class="st1" d="M346.6,113.8L346.6,113.8l7.3-4.6C232.2,259.3,179.2,434,158.1,568.5h-16.5
		C165.4,432.2,222.2,255.6,346.6,113.8L346.6,113.8z"/>
	<path class="st1" d="M249.6,516.3L249.6,516.3c0,0,12.8,42.1,84.2-27.4C333.8,488.9,258.8,492.5,249.6,516.3z"/>
	<path class="st1" d="M308.1,499L308.1,499c0,0,26.6-14.7,69.5-23.8c-42.1,11.9-67.7,28.4-67.7,28.4L308.1,499z"/>
	<path class="st1" d="M264.3,505.4L264.3,505.4c0,0-43.9-4.6,11-88.7C275.2,416.6,286.2,491.6,264.3,505.4z"/>
	<path class="st1" d="M270.7,444.1L270.7,444.1c0,0,9.2-29.3,10-72.3c-3.6,43-15.5,70.5-15.5,70.5L270.7,444.1z"/>
	<path class="st1" d="M299.9,459.6L299.9,459.6c0,0,3.7,39.4,79.6-9.1C379.5,450.5,311.8,439.5,299.9,459.6z"/>
	<path class="st1" d="M354.8,454.1L354.8,454.1c0,0,26.5-8.2,65-8.2c-38.4,2.7-64.1,12.8-64.1,12.8L354.8,454.1z"/>
	<path class="st1" d="M313.7,455.9L313.7,455.9c0,0-37.5-11.9,25.6-75.9C339.3,380,335.6,447.7,313.7,455.9z"/>
	<path class="st1" d="M330.1,403.8L330.1,403.8c0,0,13.7-24.7,22-63.1c-11,37.5-25.6,60.4-25.6,60.4L330.1,403.8L330.1,403.8z"/>
	<path class="st1" d="M345.7,423.9L345.7,423.9c0,0-0.9,34.8,71.3,0.9C417,424.9,359.4,407.5,345.7,423.9z"/>
	<path class="st1" d="M395.1,425.7L395.1,425.7c0,0,23.8-4.5,58.5,0c-34.7-1.8-57.6,3.7-57.6,3.7L395.1,425.7z"/>
	<path class="st1" d="M360.3,418.5L360.3,418.5c0,0-32-14.6,31.1-64C391.4,354.4,380.4,413.9,360.3,418.5z"/>
	<path class="st1" d="M380.4,374.6L380.4,374.6c0,0,14.7-20.1,26.5-52.2c-13.7,31.1-29.3,49.4-29.3,49.4L380.4,374.6L380.4,374.6z"
		/>
	<path class="st1" d="M392.3,396.5L392.3,396.5c0,0-3.7,30.2,62.2,7.3C454.5,403.8,406.1,383.7,392.3,396.5z"/>
	<path class="st1" d="M435.3,402L435.3,402c0,0,21-0.9,51.2,6.4c-30.2-5.5-51.2-2.7-51.2-2.7V402z"/>
	<path class="st1" d="M405.1,392.8L405.1,392.8c0,0-25.6-15.6,33.9-52.1C439,340.7,423.4,391,405.1,392.8z"/>
	<path class="st1" d="M428,356.2L428,356.2c0,0,14.6-15.5,28.3-43c-15.5,26.5-31.1,41.2-31.1,41.2L428,356.2L428,356.2z"/>
	<path class="st1" d="M448.1,376.4L448.1,376.4c0,0-3.7,18.3,38.4,7.3C486.6,383.7,457.3,369.1,448.1,376.4z"/>
	<path class="st1" d="M474.7,381.9L474.7,381.9c0,0,12.8,0,31.1,5.5c-18.3-4.5-31.1-3.7-31.1-3.7V381.9L474.7,381.9L474.7,381.9z"/>
	<path class="st1" d="M456.4,375.5L456.4,375.5c0,0-15.5-11,22-32.1C478.3,343.4,467.4,374.5,456.4,375.5z"/>
	<path class="st1" d="M471,353.5L471,353.5c0,0,10.1-9.2,19.2-25.6c-10.1,15.5-20.1,23.8-20.1,23.8L471,353.5z"/>
	<path class="st1" d="M503,367.2L503,367.2c-166.5,22-244.3,154.6-266.3,201.3h-20.1C228.6,544.7,314.6,380.9,503,367.2L503,367.2z"
		/>
</g>
</svg>
