<?xml version="1.0" encoding="utf-8"?>
<!-- Generator: Adobe Illustrator 26.1.0, SVG Export Plug-In . SVG Version: 6.00 Build 0)  -->
<svg version="1.1" id="Capa_1" xmlns="http://www.w3.org/2000/svg" xmlns:xlink="http://www.w3.org/1999/xlink" x="0px" y="0px"
	 viewBox="0 0 607 597" style="enable-background:new 0 0 607 597;" xml:space="preserve">
<style type="text/css">
	.st0{fill:#F7A035;}
	.st1{fill:#FFFFFF;}
</style>
<g id="Capa_x0020_1_00000183966205109558808770000007705841755811507116_">
	<path class="st0" d="M579.7,322.3c-12.2,138.1-125.5,247.5-266.4,252.4h-19.4C145.7,569.5,27.4,447.3,27.3,297.9v-0.4
		C27.4,151.6,138.8,33.8,280.8,22.3h45.7c134.7,10.8,241.4,116.2,253.1,250.6L579.7,322.3L579.7,322.3z"/>
	<path class="st1" d="M176.4,183.3L176.4,183.3c-45.7,4.6-74.1,91.5-68.6,149.1c5.5,57.6,46.7,87.8,91.5,84.2
		c45.7-4.6,79.6-43,74.1-100.6C267.9,258.3,222.2,178.8,176.4,183.3z M183.8,222.7L183.8,222.7c0,0-22,11.9-26.6,44.8
		c-0.9,4.6-4.5,8.2-9.1,8.2h-1.8c-2.7,0-4.6-1.8-6.4-3.7c-1.8-1.8-2.8-4.6-1.8-7.3c5.5-41.2,33.8-57.6,36.6-59.5
		c4.6-1.8,11,0,13.7,4.6C190.1,214.4,188.3,220.8,183.8,222.7L183.8,222.7z"/>
	<path class="st1" d="M369.5,264.7L369.5,264.7c-57.6,6.4-87.8,47.6-82.3,93.3c5.5,45.7,43.9,77.8,101.5,71.4
		c57.6-6.4,136.3-54,130.8-98.8C514,284.9,426.2,257.4,369.5,264.7L369.5,264.7L369.5,264.7z M492,341.6L492,341.6
		c-0.9,0.9-1.8,1.8-3.7,1.8c-3.7,0-7.3-1.8-9.1-5.5c-0.9-0.9-12.8-21-45.8-23.8c-4.6-0.9-8.2-4.6-9.2-9.2v-1.8
		c0.9-5.5,5.5-9.1,11-9.1c43,4.6,59.5,32.9,60.4,34.7c0.9,0.9,0.9,1.8,1.8,2.8C497.5,336.1,495.7,339.8,492,341.6L492,341.6z"/>
	<path class="st1" d="M346.3,230.6L346.3,230.6h2.7c13.7-1.9,30.2-0.9,46.7,0.9c3.7-56.7-22-136.3-65-142.7
		c-36.6-4.6-77.8,50.3-95.1,100.6c17.4,22,33.9,52.1,42.1,78.7C294.1,250.7,317,234.2,346.3,230.6L346.3,230.6L346.3,230.6z
		 M276.7,162L276.7,162c12.8-41.2,43.9-52.2,45.7-53.1h3.7c3.6,0,7.3,2.8,8.2,6.4c1.8,5.5-0.9,11-6.4,12.8c0,0-22.9,8.2-32.9,40.2
		c-0.9,3.7-3.7,6.4-8.2,6.4h-0.9h-2.7c-2.8-0.9-4.6-2.7-5.5-4.6C275.8,167.4,275.8,164.7,276.7,162L276.7,162L276.7,162z"/>
</g>
</svg>
