<?xml version="1.0" encoding="utf-8"?>
<!-- Generator: Adobe Illustrator 26.1.0, SVG Export Plug-In . SVG Version: 6.00 Build 0)  -->
<svg version="1.1" id="Capa_1" xmlns="http://www.w3.org/2000/svg" xmlns:xlink="http://www.w3.org/1999/xlink" x="0px" y="0px"
	 viewBox="0 0 607 597" style="enable-background:new 0 0 607 597;" xml:space="preserve">
<style type="text/css">
	.st0{fill:#6D4325;}
	.st1{fill:#FFFFFF;}
</style>
<g id="Capa_x0020_1">
	<g id="_1561647112608">
		<path class="st0" d="M579.7,322.3c-12.1,138.1-125.5,247.5-266.4,252.4h-19.4C145.7,569.6,27.4,447.3,27.3,297.9v-0.4
			C27.4,151.6,138.8,33.8,280.8,22.3h45.7c134.7,10.8,241.4,116.2,253.2,250.6V322.3z"/>
		<path class="st1" d="M252.4,210.8L252.4,210.8c1.8,10.1,1.8,19.2-1.8,28.4c-16.5,22.9-28.4,54-32.9,88.8c-4.6-9.2-11-22-11.9-26.6
			c-13.7-42.1,0-77.8,39.3-94.2c0.9-0.9,2.7-0.9,4.6,0C251.4,208,252.4,208.9,252.4,210.8L252.4,210.8z M395.7,125.7h-16
			c-13.5,1.9-27.5,7.6-37.7,11c-12.8,3.7-25.6,11-37.5,15.6c-8.2,2.8-15.6,7.3-23.8,8.2c-10.1,0.9-18.3-0.9-25.6-2.8
			c-0.9,0-1.8-0.9-1.8-2.7c0-0.9,0-1.8,0.9-2.8c2.7-0.9,4.6-2.8,6.4-2.8c11.9-5.5,34.8-7.3,46.6-7.3c11.9-0.9,17.4-1.8,15.6-2.8
			c-1.8-0.9-5.5-0.9-10.1-0.9c-22.9-1.8-68.6,1.8-75.9,15.6c-0.9,1.8-1.8,4.6-1.8,5.5c0,3.6,0.9,9.2,3.7,14.6
			c0.9,3.6,2.7,7.3,4.6,11c-42.1,12.8-59.4,40.3-60.3,82.3c-0.9,11,0.9,17.4,3.6,28.4c2.7,12.8,5.5,19.2,11,30.2
			c1.8,4.6,12.8,27.4,18.3,32.9v1.8c0,49.4,14.6,69.5,37.5,99.7c5.5,7.3,13.7,11,22.9,11.9l0,0c14.6,1.8,29.3,1.8,43.9,1.8
			c15.6,0,30.2,0,44.8-1.8c9.2-0.9,16.5-4.6,22.9-11.9c22.9-30.2,37.5-50.3,37.5-99.7c0-54.9-17.4-103.4-43.9-132.7
			c-11.9-14.6-6.4-48.5,5.5-59.5c3.6-3.7,26.5-9.2,28.4-22c0-2.8,0.9-8.2-3.7-12.8C407.1,129.3,401.7,126.7,395.7,125.7L395.7,125.7
			L395.7,125.7z M284.4,186.1L284.4,186.1c11,0,4.6,42.1,3.6,47.6c-4.6,15.6-12.8,25.6-20.1,39.4c-8.2,18.3-15.6,37.5-22,54
			c0,0.9-1.8,1.8-3.7,1.8c-1.8,0-3.7-1.8-3.7-2.8v-1.8c0.9-12.8,6.4-32.9,14.6-52.1c7.3-17.4,16.5-27.5,19.2-41.2
			c1.8-10.1-4.6-32.9-1.8-41.2C271.6,186.1,278.9,186.1,284.4,186.1L284.4,186.1L284.4,186.1z"/>
	</g>
</g>
</svg>
