<?xml version="1.0" encoding="utf-8"?>
<!-- Generator: Adobe Illustrator 26.1.0, SVG Export Plug-In . SVG Version: 6.00 Build 0)  -->
<svg version="1.1" id="Capa_1" xmlns="http://www.w3.org/2000/svg" xmlns:xlink="http://www.w3.org/1999/xlink" x="0px" y="0px"
	 viewBox="0 0 607 597" style="enable-background:new 0 0 607 597;" xml:space="preserve">
<style type="text/css">
	.st0{fill:#68CEE3;}
	.st1{fill:#FFFFFF;}
</style>
<g id="Capa_x0020_1_00000060015590195311878270000017362973062980735630_">
	<g id="_1561648911584">
		<path class="st0" d="M580.2,302.8C577.9,453.5,454.4,574.7,303,574.7c-152.8,0-276.2-123.4-276.2-276.2
			C26.8,145.7,150.3,22.3,303,22.3c151.3,0,274.9,121.1,277.2,271.9V302.8L580.2,302.8z"/>
		<path class="st1" d="M507.4,236.8L507.4,236.8c-4.1-8.1-11.1-11.1-18.2-15.2c-4.1-2-9.1-4-11.2-6.1c-2-3-4-8.1-6.1-14.2
			c-4.1-9.1-8.1-19.2-18.2-27.3c-8.1-7.1-18.2-9.1-27.3-11.1c-7.1-1-13.1-3-18.2-5c-5-3-10.1-7.1-15.2-12.1
			c-9.1-8.1-19.2-17.2-32.4-20.2c-12.1-4.1-25.3-1-37.4,2c-7.1,1-14.2,3-20.2,3c-6.1,0-13.2-2-19.2-3c-13.1-3-25.3-6.1-38.4-2
			c-13.1,3-23.3,12.1-32.4,20.2c-5,5-10.1,9.1-15.2,12.1c-4,2-11.1,4-17.2,5c-10.1,2-20.2,4.1-28.3,11.1
			c-9.1,8.1-14.2,18.2-17.2,27.3c-3,6.1-5,11.1-7.1,14.2c-2,2-6.1,4.1-11.1,6.1c-6.1,4.1-14.2,7.1-18.2,15.2c-5,10.1-3,21.2-1,28.3
			c1,3.1,1,6.1,1,8.1c-2,18.2,3,36.4,16.2,53.6c11.1,15.2,25.3,29.3,39.5,41.5v1c13.2,11.2,28.3,25.3,43.5,36.4
			c6.1,5.1,13.1,9.1,19.2,13.2l-13.2,21.2c-5,7.1-5,15.2-2,22.3c4.1,7.1,12.1,11.1,21.2,11.1H383c9.1,0,17.2-4,21.2-11.1
			c3-7.1,3-15.2-2-22.3L389,418.9c6.1-4.1,13.2-8.1,19.2-13.2c15.2-11.1,30.4-24.2,43.5-36.4v-1c14.2-12.2,29.3-26.3,40.4-41.5
			c12.1-17.2,17.2-35.4,15.2-53.6c0-2,1-5,1-8.1C510.4,258,513.4,246.9,507.4,236.8L507.4,236.8L507.4,236.8z M130,240.8L130,240.8
			c5-2,11.1-6.1,15.2-11.1c1-1,2-2,3-3l87,121.4L130,240.8L130,240.8z M200.8,181.1L200.8,181.1c3-1,6.1-2,8.1-4
			c5.1-2,9.1-5,13.2-9.1l45.5,174L200.8,181.1z M303,348.1L303,348.1l-12.1-196.3c4,1,8.1,1,12.1,1c4.1,0,8.1,0,12.1-1L303,348.1z
			 M384,168L384,168c4,4,8.1,7.1,13.1,9.1c2,2,5,3,8.1,4.1L338.4,342L384,168L384,168z M370.8,348.1L370.8,348.1l87-121.4l3,3
			c4,5.1,10.1,9.1,15.2,11.1L370.8,348.1L370.8,348.1z"/>
	</g>
</g>
</svg>
