<?xml version="1.0" encoding="utf-8"?>
<!-- Generator: Adobe Illustrator 26.1.0, SVG Export Plug-In . SVG Version: 6.00 Build 0)  -->
<svg version="1.1" id="Capa_1" xmlns="http://www.w3.org/2000/svg" xmlns:xlink="http://www.w3.org/1999/xlink" x="0px" y="0px"
	 viewBox="0 0 607 597" style="enable-background:new 0 0 607 597;" xml:space="preserve">
<style type="text/css">
	.st0{fill:#BE9B3A;}
	.st1{clip-path:url(#SVGID_00000167373314030528206970000009218252228491935372_);}
	.st2{fill:#FFFFFF;}
	.st3{fill:none;}
	.st4{fill:none;stroke:#FFFFFF;stroke-width:25.3668;stroke-linecap:round;stroke-linejoin:round;stroke-miterlimit:10;}
</style>
<g id="Capa_x0020_1">
	<path class="st0" d="M110.2,104.4L110.2,104.4c106.2-108.1,279-108.1,385.3,0c107.1,107.2,107.1,281.6,0,388.8
		c-106.2,107.2-279.1,107.2-385.3,0C4.9,386.1,4.9,211.6,110.2,104.4z"/>
	<g>
		<defs>
			<path id="SVGID_1_" d="M110.2,104.4L110.2,104.4c106.2-108.1,279-108.1,385.3,0c107.1,107.2,107.1,281.6,0,388.8
				c-106.2,107.2-279.1,107.2-385.3,0C4.9,386.1,4.9,211.6,110.2,104.4z"/>
		</defs>
		<clipPath id="SVGID_00000136397598166458757430000015946045040665609638_">
			<use xlink:href="#SVGID_1_"  style="overflow:visible;"/>
		</clipPath>
		<g style="clip-path:url(#SVGID_00000136397598166458757430000015946045040665609638_);">
			<g id="_1561654927728">
				<path id="_x31_" class="st2" d="M487.3-70.9L274.9,143.5l99.9,99.9l216-218l-96.3-96.3H487.3L487.3-70.9z M264.1,182.6
					l25.2,24.6l-32.4,49l6.3,5.4l47.7-32.7l25.2,25.4l17.1-17.3l-72-71.8L264.1,182.6L264.1,182.6z"/>
			</g>
		</g>
	</g>
	<path class="st3" d="M110.2,104.4L110.2,104.4c106.2-108.1,279-108.1,385.3,0c107.1,107.2,107.1,281.6,0,388.8
		c-106.2,107.2-279.1,107.2-385.3,0C4.9,386.1,4.9,211.6,110.2,104.4z"/>
	<path class="st4" d="M238,278.9L238,278.9c-3.6,4.5-4.5,20-18.9,24.5c-2.7,0.9-9,4.6-11.7,6.3c-9,10-2.7,20.9,0,31.8
		c0.9,5.4,1.8,15.4-1.8,19.1c-7.2,8.2-17.1,14.5-21.6,17.3c-12.6,6.4-9,34.5,0,47.2"/>
	<path class="st2" d="M159.7,472.3L159.7,472.3c-36-32.7,0.9-60,41.4-60c16.2,0,37.8,2.7,65.7,7.3c72,12.7,66.6-14.5,113.4-11.8
		c47.7,2.7,103.5,22.7,78.3,56.3c-14.4,18.2-68.4,49.1-164.7,41.8C221.8,500.5,192.1,502.3,159.7,472.3L159.7,472.3L159.7,472.3z"/>
	<path class="st0" d="M382,479.6L382,479.6c0,0,23.4-1.8,44.1-16.3c19.8-12.7,17.1-29.1,17.1-29.1s15.3,15.5-11.7,32.7
		C413.5,479.6,402.7,484.2,382,479.6z"/>
</g>
</svg>
