<?xml version="1.0" encoding="utf-8"?>
<!-- Generator: Adobe Illustrator 26.1.0, SVG Export Plug-In . SVG Version: 6.00 Build 0)  -->
<svg version="1.1" id="Capa_1" xmlns="http://www.w3.org/2000/svg" xmlns:xlink="http://www.w3.org/1999/xlink" x="0px" y="0px"
	 viewBox="0 0 607 597" style="enable-background:new 0 0 607 597;" xml:space="preserve">
<style type="text/css">
	.st0{fill:#2C3791;}
	.st1{fill:#FFFFFF;}
</style>
<g id="Capa_x0020_1_00000111176912202665369730000008337541286306263961_">
	<g id="_1597653478912">
		<path class="st0" d="M579.7,322.3c-12.2,138.1-125.5,247.6-266.4,252.4h-19.4C145.7,569.6,27.4,447.3,27.3,297.9v-0.4
			C27.4,151.6,138.8,33.8,280.8,22.3h45.7c134.7,10.8,241.4,116.3,253.2,250.6L579.7,322.3L579.7,322.3L579.7,322.3z"/>
		<path class="st1" d="M503.1,249.2L503.1,249.2c0-5.5-51.2-11-83.3,35.7c-38.4-34.8-98.8-54.9-116.2-59.5
			c0-9.1,26.5-36.6,17.4-44.8c-9.2-8.2-43-6.4-71.4,32.9c-36.6,15.6-95.1,2.8-147.3,84.2l20.1,16.5l-16.5,8.2
			c52.1,81.4,120.8,55.8,157.4,71.4c28.4,39.3,52.1,27.4,61.3,22c-21.9-20.1-26.5-16.5-26.5-25.6c17.4-4.6,102.5-29.3,121.7-63.1
			c48.5,65.9,83.3,40.3,83.3,34.8c0,0-38.4-27.5-39.3-54.9C464.6,274.8,503.1,249.2,503.1,249.2L503.1,249.2z M203.9,281.2
			L203.9,281.2c0,9.1-7.3,16.5-15.6,16.5c-9.2,0-16.5-7.3-16.5-16.5c0-8.2,7.3-15.5,16.5-15.5C196.5,265.7,203.9,273,203.9,281.2z
			 M218.5,374.5L218.5,374.5c31.1-25.6,57.6-76.9,8.2-143.6C268.8,260.2,289.9,341.6,218.5,374.5z"/>
	</g>
</g>
</svg>
