<?xml version="1.0" encoding="utf-8"?>
<!-- Generator: Adobe Illustrator 26.1.0, SVG Export Plug-In . SVG Version: 6.00 Build 0)  -->
<svg version="1.1" id="Capa_1" xmlns="http://www.w3.org/2000/svg" xmlns:xlink="http://www.w3.org/1999/xlink" x="0px" y="0px"
	 viewBox="0 0 607 597" style="enable-background:new 0 0 607 597;" xml:space="preserve">
<style type="text/css">
	.st0{fill:#A4997C;}
	.st1{fill:#FFFFFF;}
</style>
<g id="Capa_x0020_1">
	<g id="_1561654813696">
		<path class="st0" d="M293.9,574.7C145.7,569.6,27.4,447.3,27.3,297.9v-0.4C27.4,151.6,138.8,33.7,280.9,22.3h45.5
			C461.2,33.1,567.9,138.6,579.7,273v49.2c-12.1,138.2-125.5,247.6-266.4,252.5L293.9,574.7L293.9,574.7L293.9,574.7z"/>
		<path class="st1" d="M449,244.6L449,244.6c-11.9-7.3-52.1,11-92.4,41.2c-41.2,31.1-53.1,75-26.5,97.9c26.5,22,68.6,4.6,93.3-41.2
			c21.9-39.3,33.9-78.7,29.3-93.3c-25.6,32-73.2,78.7-73.2,78.7c-0.9,0.9-1.8,0.9-2.7,0.9c-0.9,0-1.8,0-1.8-0.9
			c-0.9-0.9-0.9-2.8,0-4.6C374.9,323.3,423.4,275.7,449,244.6L449,244.6L449,244.6L449,244.6z"/>
		<path class="st1" d="M332,174.2L332,174.2c-15.6-24.7-33.9-43-44.8-47.6c5.5,19.2,14.6,52.2,22.9,73.2c0.9,0.9,0,2.7-1.9,3.6h-0.9
			c-0.9,0-1.8-0.9-1.8-1.8c-9.1-21.9-18.3-56.7-23.8-75.9h-0.9c-8.2,3.7-11,35.7-5.5,70.4c5.5,35.7,27.5,57.7,50.3,48.5
			C347.5,236.4,351.2,204.4,332,174.2L332,174.2L332,174.2L332,174.2z"/>
		<path class="st1" d="M332,453.2L332,453.2c-25.6-26.5-52.1-43.9-64-43c20.1,29.3,41.2,63.1,41.2,64c0.9,0.9,0.9,2.8-0.9,3.6
			c0,0.9-0.9,0.9-1.8,0.9c-0.9,0-1.8-0.9-1.8-1.8c-0.9,0-21-33.8-42.1-64c-6.4,9.2-1.8,42.1,11.9,77.8
			c14.6,38.4,44.8,57.6,67.7,42.1C364.9,518.2,361.2,481.6,332,453.2L332,453.2L332,453.2L332,453.2z"/>
		<path class="st1" d="M252.3,266.6L252.3,266.6c-21.9-20.1-59.4-5.5-82.3,32.9c-22,35.7-32.9,70.4-27.4,81.4
			c17.4-16.5,40.3-38.4,54.9-55.8c0.9-0.9,2.7-0.9,3.7,0c1.8,0.9,1.8,2.8,0.9,4.6c-14.7,16.5-36.6,38.4-54,54.9
			c12.8,3.6,45.8-10.1,78.7-33.9C263.3,324.2,275.2,286.7,252.3,266.6L252.3,266.6L252.3,266.6L252.3,266.6z"/>
		<path class="st1" d="M334.7,53.4L334.7,53.4c-21.9-8.2-42.1-11.9-51.2-9.2c12.8,9.2,33.8,24.7,48.5,33.9c0.9,0,1.8,0.9,0.9,1.8
			c0,0.9-0.9,1.8-1.8,1.8c0,0,0-0.9-0.9-0.9c-15.6-9.2-38.4-25.6-50.3-34.8c0,0-0.9,0-0.9,0.9c-3.7,6.4,9.1,27.5,30.2,47.6
			c20.1,20.1,45.7,22.9,55.8,6.4C374.9,84.5,361.2,63.5,334.7,53.4L334.7,53.4L334.7,53.4L334.7,53.4z"/>
	</g>
</g>
</svg>
