<?xml version="1.0" encoding="utf-8"?>
<!-- Generator: Adobe Illustrator 26.1.0, SVG Export Plug-In . SVG Version: 6.00 Build 0)  -->
<svg version="1.1" id="Capa_1" xmlns="http://www.w3.org/2000/svg" xmlns:xlink="http://www.w3.org/1999/xlink" x="0px" y="0px"
	 viewBox="0 0 607 597" style="enable-background:new 0 0 607 597;" xml:space="preserve">
<style type="text/css">
	.st0{fill:#63B338;}
	.st1{fill:#FFFFFF;}
</style>
<g id="Capa_x0020_1_00000010291212746892436700000008581426679181119152_">
	<g id="_1597653492208">
		<path class="st0" d="M294.1,565C148.5,559.9,32.3,439.9,32.2,293v-0.4C32.3,149.3,141.7,33.6,281.2,22.3h44.9
			c132.4,10.6,237.3,114.3,248.8,246.3v48.3C563,452.6,451.6,560.2,313.2,565H294.1L294.1,565L294.1,565z"/>
		<path class="st1" d="M499.5,453.7L499.5,453.7c-0.9-1.8-2.7-3.6-4.5-5.4c-0.9-0.9-1.8-1.8-2.7-1.8c0.9,0,1.8,0.9,2.7,1.8
			c-6.3-9-18-22.5-31.5-35c-36.8-30.6-71.9-18.9-111.5-5.4c-31.4,10.8-83.6,24.3-116.8,25.2c-20.7,0-56.6-6.3-75.5-16.2
			c-7.2-3.6-12.6-8.1-12.6-8.1c0,0.9,0.9,1.8,0.9,4.5c0.9,3.6,0.9,8.1,0.9,9c0,15.3,5.4,31.4,14.4,44.9c8.1,13.5,20.7,24.3,35,30.6
			c17.1,7.2,41.4,9.9,73.7,6.3c27.9-3.6,62-11.7,103.3-27.9c21.6-8.1,44.1-15.3,65.6-19.8c19.8-3.6,39.5-4.5,55.7,0h7.2
			c-0.9-1.8-1.8-3.6-3.6-4.5C500.4,452.8,499.5,452.8,499.5,453.7L499.5,453.7L499.5,453.7z M204.7,490.6L204.7,490.6
			c-3.6-0.9-7.2-1.8-9.9-3.6c-3.6-1.8-6.3-4.5-9.9-7.2c-2.7-3.6-4.5-6.3-6.3-9.9c-1.8-3.6-2.7-7.2-3.6-10.8c-0.9-3.6,0-6.3,0.9-9.9
			c0.9-2.7,1.8-5.4,4.5-7.2c1.8-1.8,4.5-3.6,7.2-4.5c3.6-0.9,6.3-0.9,9.9,0c7.2,0.9,14.4,5.4,19.8,10.8c5.4,6.3,9,12.6,9.9,20.7
			c0.9,2.7,0.9,6.3,0,9c-0.9,3.6-2.7,6.3-4.5,8.1h-0.9c-1.8,1.8-4.5,3.6-7.2,4.5H204.7L204.7,490.6L204.7,490.6z M272.1,494.1
			L272.1,494.1c-2.7,0.9-6.3,0.9-9.9,0c-8.1-0.9-15.3-5.4-20.7-11.7c-6.3-5.4-9.9-13.5-11.7-21.6c0-3.6,0-7.2,0.9-9.9
			c0.9-3.6,2.7-6.3,5.4-8.1c1.8-2.7,4.5-3.6,8.1-4.5c2.7-0.9,6.3-0.9,9.9,0c8.1,0.9,15.3,5.4,21.6,11.7c5.4,5.4,9.9,13.5,10.8,20.7
			c0,4.5,0,8.1-0.9,10.8c-0.9,3.6-2.7,6.3-4.5,8.1C278.4,492.4,275.7,493.2,272.1,494.1L272.1,494.1z M323.4,487.8L323.4,487.8
			c-8.1-0.9-16.2-4.5-21.6-9.9c-6.3-5.4-11.7-12.6-13.5-20.7c0-3.6-0.9-7.2,0-10.8c0.9-2.7,1.8-5.4,4.5-8.1c1.8-2.7,4.5-4.5,8.1-5.4
			c2.7-0.9,6.3-0.9,9.9-0.9c8.1,0.9,16.2,4.5,21.6,9.9c6.3,5.4,11.7,12.6,13.5,20.7c0,3.6,0.9,7.2,0,9.9c-0.9,3.6-2.7,6.3-4.5,9
			c-1.8,2.7-4.5,4.5-8.1,5.4C330.6,487.9,327,487.9,323.4,487.8L323.4,487.8L323.4,487.8z M379.1,468.1L379.1,468.1
			c-8.1,0-16.2-3.6-22.5-8.1c-6.3-5.4-11.7-12.6-14.4-19.8c-0.9-3.6-0.9-7.2-0.9-10.8c0.9-2.7,1.8-6.3,3.6-8.1
			c1.8-2.7,4.5-4.5,7.2-6.3c3.6-0.9,7.2-1.8,10.8-1.8c8.1,0,16.2,3.6,22.5,8.1c6.3,5.4,11.7,12.6,14.4,19.8
			c0.9,3.6,0.9,7.2,0.9,10.8c-0.9,2.7-1.8,6.3-3.6,8.1c-1.8,2.7-4.5,4.5-7.2,6.3C386.3,467.2,382.7,468.1,379.1,468.1L379.1,468.1
			L379.1,468.1z M433,452.8L433,452.8c-3.6,0-7.2-0.9-10.8-1.8c-3.6-1.8-7.2-3.6-10.8-6.3c-2.7-2.7-5.4-5.4-8.1-8.1
			c-1.8-3.6-3.6-6.3-4.5-9.9c-0.9-3.6-1.8-7.2-0.9-9.9c0-2.7,0.9-6.3,2.7-8.1c1.8-2.7,4.5-4.5,7.2-5.4c2.7-1.8,6.3-1.8,9.9-1.8
			c3.6,0,7.2,0.9,10.8,1.8c3.6,1.8,7.2,3.6,9.9,6.3c3.6,1.8,6.3,5.4,9,8.1c1.8,2.7,3.6,6.3,4.5,9.9c0.9,3.6,1.8,6.3,0.9,9.9
			c0,2.7-0.9,5.4-2.7,8.1c-2.7,2.7-4.5,4.5-7.2,5.4C440.2,451.9,436.6,452.8,433,452.8L433,452.8L433,452.8z"/>
		<path class="st1" d="M309.9,252.4L309.9,252.4c9-5.4,37.8-25.2,46.7-58.4c13.5-49.5-36-107-79.1-127.7
			C242.5,97.8,211.9,167.9,238,211c18,29.7,54.8,39.5,64.7,42.2C297.3,213.7,264-49.6,309.9,252.4z"/>
		<path class="st1" d="M322.5,297.3L322.5,297.3c6.3,7.2,30.5,31.5,62,32.4c45.8,0.9,86.3-55.7,96.2-98
			c-35.9-23.4-104.3-35.9-136.6-3.6c-22.5,22.5-23.4,53.1-23.4,62.9c7.2-3.6,146.5-53,151-53.9C475.3,237.1,365.6,280.2,322.5,297.3
			L322.5,297.3L322.5,297.3z"/>
		<path class="st1" d="M300,295.5L300,295.5c-1.8-9-11.7-40.5-37.8-55.7c-16.2-9.9-36.9-9.9-56.6-5.4c-27,7.2-53.9,24.2-70.1,42.2
			c10.8,19.8,29.7,41.3,53,54.8c18.9,11.7,41.4,18,61.1,12.6c28.8-8.1,44-34.1,48.5-42.2C262.2,297.3,63.6,267.7,300,295.5
			L300,295.5z"/>
		<path class="st1" d="M314.4,300L314.4,300c2.7-0.9,5.4-1.8,8.1-2.7c0-0.9-1.8-6.3-1.8-6.3c-2.7,0.9-4.5,1.8-6.3,2.7l-2.7-21.6
			c-0.9-10.8,0-10.8-1.8-19.8c3.6,0-6.3,0.9-7.2,0.9c1.8,9,2.7,16.2,2.7,19.8v0.9l2.7,22.5c-2.7,0-4.5-0.9-8.1-0.9
			c0,0-1.8,5.4-1.8,6.3c3.6,0,9,0,11.7,0.9c4.5,32.4-2.7,67.4-21.6,95.3c0.9,0.9,4.5,1.8,4.5,1.8C312.6,371,319.8,334.2,314.4,300
			L314.4,300L314.4,300z"/>
	</g>
</g>
</svg>
